<svg width="190" height="160" viewBox="0 0 190 160" fill="none" xmlns="http://www.w3.org/2000/svg">
<g clip-path="url(#clip0_99_345)">
<path d="M105.736 140.156C89.7978 141.743 74.1968 137.042 61.8069 126.921C49.4169 116.799 41.722 102.467 40.1386 86.566C38.5553 70.6649 43.2738 55.0972 53.4238 42.7307C63.5746 30.3643 77.9424 22.6802 93.8804 21.0932C109.818 19.5062 125.419 24.2069 137.809 34.3283C150.199 44.4503 157.894 58.782 159.478 74.6831C161.061 90.5843 156.342 106.152 146.192 118.518C136.042 130.885 121.674 138.569 105.736 140.156Z" fill="#442919"/>
<path d="M94.0849 23.14C125.906 19.9714 154.265 43.139 157.427 74.8873C160.588 106.636 137.355 134.94 105.533 138.109C73.7107 141.278 45.3521 118.11 42.1909 86.3616C39.0296 54.6134 62.2629 26.3086 94.0849 23.14ZM93.6772 19.0456C85.3464 19.8751 77.4252 22.309 70.1333 26.2787C63.092 30.1123 56.9333 35.2092 51.8293 41.4274C46.7252 47.6456 42.931 54.6742 40.5522 62.3168C38.0885 70.2316 37.2595 78.4594 38.087 86.7703C38.9146 95.0812 41.3504 102.984 45.3258 110.257C49.1649 117.281 54.2706 123.423 60.5006 128.513C66.7306 133.603 73.7734 137.385 81.4324 139.755C89.364 142.209 97.6102 143.033 105.94 142.203C114.27 141.374 122.192 138.94 129.484 134.97C136.525 131.137 142.684 126.04 147.788 119.822C152.892 113.603 156.686 106.575 159.065 98.9321C161.529 91.0174 162.358 82.7896 161.53 74.4787C160.703 66.1678 158.267 58.2651 154.292 50.9915C150.453 43.968 145.347 37.8256 139.117 32.7359C132.887 27.6463 125.844 23.8639 118.185 21.494C110.254 19.0396 102.007 18.2161 93.6772 19.0456Z" fill="white"/>
<path d="M143.912 118.444C144.799 118.355 145.399 117.088 145.252 115.613C145.105 114.139 144.267 113.015 143.38 113.103C142.493 113.191 141.893 114.458 142.04 115.933C142.187 117.408 143.025 118.532 143.912 118.444Z" fill="white"/>
<path d="M144.208 121.422C141.591 121.683 139.376 119.451 139.055 116.23C138.734 113.01 140.466 110.385 143.083 110.124C145.701 109.864 147.916 112.095 148.237 115.316C148.558 118.537 146.826 121.161 144.208 121.422ZM142.591 115.878C142.862 116.019 143.24 116.124 143.677 116.081C144.113 116.037 144.463 115.859 144.701 115.668C144.43 115.528 144.052 115.422 143.615 115.466C143.179 115.509 142.829 115.688 142.591 115.878Z" fill="white"/>
<path d="M154.565 101.128C155.452 101.04 156.051 99.7728 155.905 98.2979C155.758 96.8231 154.92 95.6991 154.033 95.7874C153.146 95.8757 152.546 97.1429 152.693 98.6177C152.84 100.093 153.678 101.217 154.565 101.128Z" fill="white"/>
<path d="M154.861 104.106C152.244 104.367 150.029 102.135 149.708 98.9144C149.387 95.6937 151.119 93.0691 153.736 92.8085C156.354 92.5479 158.569 94.7794 158.89 98.0002C159.211 101.221 157.479 103.845 154.861 104.106ZM153.244 98.563C153.515 98.7035 153.893 98.8087 154.329 98.7652C154.766 98.7218 155.116 98.5435 155.354 98.3529C155.083 98.2124 154.705 98.1072 154.268 98.1507C153.832 98.1941 153.482 98.3724 153.244 98.563Z" fill="white"/>
<path d="M123.238 133.399C124.124 133.311 124.724 132.044 124.577 130.569C124.43 129.094 123.593 127.97 122.706 128.058C121.819 128.147 121.219 129.414 121.366 130.889C121.513 132.364 122.351 133.488 123.238 133.399Z" fill="white"/>
<path d="M123.535 136.377C120.917 136.638 118.702 134.406 118.381 131.185C118.06 127.965 119.792 125.34 122.41 125.079C125.027 124.819 127.242 127.05 127.563 130.271C127.884 133.492 126.152 136.116 123.535 136.377ZM121.917 130.834C122.188 130.975 122.566 131.08 123.003 131.036C123.44 130.993 123.789 130.814 124.027 130.624C123.756 130.483 123.378 130.378 122.942 130.422C122.505 130.465 122.156 130.643 121.917 130.834Z" fill="white"/>
<path d="M100.853 142.444C101.74 142.356 102.339 141.089 102.193 139.614C102.046 138.139 101.208 137.015 100.321 137.103C99.4341 137.192 98.8342 138.459 98.9811 139.934C99.1279 141.408 99.9659 142.532 100.853 142.444Z" fill="white"/>
<path d="M101.149 145.423C98.5319 145.683 96.3165 143.452 95.9958 140.231C95.6751 137.01 97.407 134.386 100.024 134.125C102.642 133.864 104.857 136.096 105.178 139.317C105.498 142.537 103.767 145.162 101.149 145.423ZM99.532 139.879C99.803 140.019 100.181 140.124 100.618 140.081C101.055 140.037 101.404 139.859 101.642 139.669C101.371 139.528 100.993 139.423 100.557 139.466C100.121 139.51 99.7707 139.688 99.532 139.879Z" fill="white"/>
<path d="M80.6714 139.06C81.5582 138.972 82.1581 137.704 82.0112 136.23C81.8644 134.755 81.0264 133.631 80.1396 133.719C79.2528 133.807 78.6529 135.075 78.7998 136.549C78.9466 138.024 79.7846 139.148 80.6714 139.06Z" fill="white"/>
<path d="M80.968 142.038C78.3506 142.299 76.1352 140.067 75.8145 136.847C75.4938 133.626 77.2257 131.001 79.843 130.741C82.4604 130.48 84.6758 132.712 84.9965 135.932C85.3172 139.153 83.5853 141.778 80.968 142.038ZM79.3501 136.495C79.6211 136.635 79.9992 136.74 80.4355 136.697C80.8717 136.653 81.2216 136.475 81.4597 136.284C81.1886 136.144 80.8105 136.039 80.3743 136.082C79.938 136.126 79.5881 136.304 79.3501 136.495Z" fill="white"/>
<path d="M135.779 126.144C136.666 126.056 137.266 124.789 137.119 123.314C136.972 121.839 136.134 120.715 135.247 120.803C134.361 120.892 133.761 122.159 133.908 123.634C134.054 125.109 134.892 126.233 135.779 126.144Z" fill="white"/>
<path d="M136.076 129.122C133.458 129.383 131.243 127.151 130.922 123.931C130.601 120.71 132.333 118.085 134.951 117.825C137.568 117.564 139.783 119.796 140.104 123.016C140.425 126.237 138.693 128.862 136.076 129.122ZM134.458 123.579C134.729 123.72 135.107 123.825 135.543 123.781C135.979 123.738 136.329 123.56 136.568 123.369C136.297 123.229 135.919 123.123 135.482 123.167C135.045 123.21 134.696 123.389 134.458 123.579Z" fill="white"/>
<path d="M83.5495 141.843C84.1461 140.998 84.7254 140.404 85.9865 140.49C87.2163 140.573 88.5335 141.705 88.4343 143.153C88.4019 143.625 88.3464 143.969 88.0493 144.613C86.411 147.727 82.8319 149.098 79.3307 148.861C73.7797 148.487 70.2973 144.268 70.1996 139.203C70.1576 137.493 70.274 135.793 70.5394 134.231C71.3291 129.162 75.3533 125.451 80.8729 125.823C84.4054 126.062 87.7649 127.901 88.9653 131.207C89.1727 131.885 89.1807 132.233 89.1483 132.705C89.0497 134.152 87.5905 135.097 86.3608 135.014C85.099 134.929 84.5833 134.135 84.1299 133.346C83.3747 131.872 82.1359 130.998 80.5269 130.89C77.846 130.709 76.192 132.652 75.8166 135.377C75.6765 136.506 75.5896 137.764 75.576 138.902C75.5758 141.684 76.9651 143.611 79.6459 143.792C81.2543 143.901 82.602 143.201 83.5495 141.843Z" fill="#442919"/>
<path d="M81.2774 149.112C80.6414 149.176 79.9845 149.186 79.3124 149.141C73.8871 148.774 70.025 144.69 69.9191 139.208C69.8772 137.494 69.9958 135.756 70.2622 134.184C71.1113 128.733 75.4837 125.179 80.8919 125.543C84.8857 125.813 88.0804 127.946 89.2298 131.111C89.4456 131.815 89.4654 132.19 89.4288 132.724C89.3774 133.476 88.9942 134.163 88.3496 134.656C87.7595 135.108 87.027 135.34 86.3412 135.294C84.9792 135.203 84.4027 134.386 83.8855 133.486C83.1579 132.067 81.9925 131.27 80.5079 131.17C78.169 131.012 76.4784 132.639 76.095 135.415C75.9554 136.536 75.8707 137.777 75.8568 138.905C75.8567 141.668 77.2449 143.349 79.665 143.513C81.1503 143.614 82.4134 142.98 83.3189 141.683L83.3188 141.682C83.9062 140.85 84.5538 140.113 86.0055 140.21C87.3761 140.303 88.8264 141.542 88.7153 143.171C88.6792 143.704 88.6085 144.073 88.305 144.729C86.9967 147.217 84.3979 148.801 81.2773 149.112L81.2774 149.112ZM79.1327 126.129C74.8413 126.556 71.5283 129.712 70.8177 134.274C70.5566 135.815 70.4403 137.516 70.4814 139.196C70.5814 144.376 74.2284 148.235 79.3503 148.581C83.0998 148.835 86.3376 147.264 87.8008 144.482C88.086 143.864 88.126 143.546 88.1539 143.134C88.2403 141.871 87.0708 140.844 85.9675 140.769C84.9049 140.697 84.3973 141.129 83.7796 142.003C82.7551 143.471 81.3178 144.185 79.6263 144.072C76.9133 143.889 75.2938 141.956 75.2942 138.901C75.3083 137.749 75.3948 136.487 75.5371 135.342C75.9651 132.241 77.8852 130.43 80.5457 130.609C82.238 130.723 83.5642 131.625 84.38 133.217C84.8451 134.026 85.2915 134.66 86.3797 134.733C86.9241 134.77 87.5319 134.574 88.0071 134.21C88.5217 133.816 88.8269 133.274 88.8672 132.685C88.8956 132.271 88.8988 131.951 88.6961 131.287C87.6285 128.349 84.6222 126.356 80.8538 126.102C80.2661 126.062 79.6911 126.071 79.1331 126.127L79.1327 126.129Z" fill="white"/>
<path d="M107.721 135.836C108.016 137.101 108.286 139.134 108.328 140.401C108.487 144.23 105.696 147.465 101.402 148.035C97.1719 148.597 93.5694 146.212 92.7216 142.475C92.4295 141.241 92.1595 139.209 92.1141 137.91C91.9554 134.081 94.8302 130.995 99.0607 130.433C103.354 129.862 106.873 132.099 107.721 135.836L107.721 135.836ZM97.3383 138.107C97.3711 138.835 97.5586 140.241 97.7129 140.921C98.0735 142.432 99.1737 143.272 100.741 143.064C102.308 142.855 103.213 141.749 103.072 140.209C103.012 139.517 102.824 138.11 102.698 137.395C102.444 135.965 101.312 135.128 99.7134 135.341C98.1148 135.553 97.3036 136.648 97.3383 138.106L97.3383 138.107Z" fill="#442919"/>
<path d="M101.121 148.35C96.9337 148.767 93.3142 146.362 92.4466 142.537C92.1487 141.276 91.8783 139.247 91.8326 137.92C91.6673 133.933 94.6244 130.738 99.0232 130.154C103.428 129.57 107.111 131.88 107.995 135.773C108.297 137.068 108.567 139.096 108.609 140.392C108.778 144.472 105.83 147.73 101.439 148.314C101.333 148.327 101.226 148.34 101.121 148.35ZM99.4204 130.674C99.3135 130.684 99.206 130.697 99.0975 130.711C94.998 131.256 92.2417 134.211 92.3947 137.899C92.4393 139.176 92.7084 141.199 92.995 142.411C93.7988 145.955 97.1674 148.18 101.068 147.792C101.167 147.782 101.265 147.771 101.366 147.757C105.457 147.214 108.205 144.194 108.047 140.413C108.007 139.166 107.738 137.144 107.447 135.9L107.447 135.898C106.651 132.394 103.375 130.279 99.4204 130.673L99.4204 130.674ZM100.644 143.358C99.0271 143.519 97.8346 142.64 97.4396 140.987C97.2806 140.286 97.0919 138.867 97.0579 138.121L97.0573 138.115C97.0175 136.428 97.9966 135.287 99.6767 135.064C101.39 134.837 102.688 135.732 102.975 137.346C103.104 138.076 103.291 139.483 103.352 140.185C103.507 141.874 102.496 143.114 100.778 143.343C100.733 143.349 100.688 143.354 100.644 143.358L100.644 143.358ZM97.6198 138.097C97.652 138.806 97.8375 140.198 97.9871 140.859C98.3232 142.267 99.3152 142.969 100.704 142.786C102.119 142.598 102.919 141.62 102.792 140.234C102.733 139.556 102.546 138.148 102.421 137.444C102.187 136.131 101.164 135.432 99.7508 135.619C98.3642 135.803 97.588 136.706 97.6198 138.097Z" fill="white"/>
<path d="M110.955 128.691C109.528 124.679 111.205 121.943 114.512 120.77C115.644 120.369 117.048 120.073 117.907 120.036C119.196 119.981 120.215 120.489 120.648 121.708C121.05 122.837 120.554 124.084 119.124 124.591C118.439 124.834 117.587 124.701 116.693 125.017C115.859 125.313 115.583 126.047 115.942 127.057L116.196 127.77L119.205 126.704C120.396 126.281 121.756 126.804 122.211 128.082C122.634 129.27 121.919 130.561 120.727 130.984L117.718 132.05L120.678 140.372C121.195 141.828 120.555 143.328 119.125 143.834C117.754 144.32 116.25 143.582 115.733 142.125L112.773 133.804L112.237 133.993C110.985 134.437 109.674 133.864 109.252 132.675C108.797 131.397 109.463 130.157 110.715 129.714L111.251 129.524L110.955 128.692L110.955 128.691Z" fill="#442919"/>
<path d="M118.543 144.251C118.012 144.303 117.475 144.205 116.983 143.959C116.28 143.608 115.741 142.99 115.468 142.219L112.602 134.162L112.331 134.258C111.657 134.497 110.942 134.477 110.32 134.204C109.69 133.927 109.217 133.418 108.987 132.77C108.493 131.382 109.196 129.955 110.62 129.45L110.892 129.354L110.69 128.786C109.977 126.781 109.982 125.017 110.705 123.543C111.375 122.18 112.658 121.13 114.418 120.507C115.555 120.104 116.985 119.795 117.895 119.756C119.393 119.692 120.465 120.352 120.914 121.615C121.404 122.996 120.707 124.329 119.218 124.856C118.865 124.982 118.489 125.015 118.092 125.05C117.667 125.087 117.229 125.126 116.787 125.283C115.923 125.59 115.995 126.367 116.207 126.965L116.367 127.414L119.111 126.441C120.512 125.944 121.991 126.625 122.476 127.989C122.942 129.298 122.199 130.761 120.821 131.249L118.077 132.222L120.943 140.279C121.219 141.055 121.2 141.87 120.889 142.573C120.573 143.287 119.981 143.83 119.219 144.099C118.997 144.178 118.771 144.229 118.543 144.251L118.543 144.251ZM112.944 133.445L115.998 142.031C116.223 142.664 116.663 143.17 117.235 143.457C117.801 143.739 118.439 143.78 119.031 143.57C119.644 143.352 120.121 142.918 120.374 142.346C120.627 141.775 120.641 141.106 120.412 140.466L117.358 131.88L120.633 130.72C121.719 130.335 122.307 129.193 121.946 128.176C121.565 127.107 120.403 126.578 119.299 126.969L116.024 128.129L115.677 127.151C115.267 126 115.611 125.103 116.598 124.754C117.108 124.573 117.605 124.529 118.043 124.49C118.403 124.458 118.744 124.428 119.03 124.327C120.207 123.91 120.763 122.872 120.383 121.803C119.922 120.507 118.788 120.279 117.919 120.317C117.072 120.353 115.678 120.656 114.605 121.036C112.987 121.609 111.813 122.562 111.21 123.79C110.555 125.123 110.559 126.74 111.219 128.598L111.608 129.695L110.807 129.979C109.666 130.383 109.122 131.478 109.515 132.582C109.693 133.083 110.059 133.477 110.546 133.69C111.037 133.906 111.603 133.921 112.141 133.73L112.943 133.446L112.944 133.445Z" fill="white"/>
<path d="M123.805 123.52C121.533 119.916 122.571 116.88 125.542 115.016C126.559 114.378 127.864 113.781 128.695 113.559C129.941 113.223 131.047 113.498 131.737 114.592C132.376 115.607 132.165 116.931 130.88 117.738C130.265 118.124 129.403 118.18 128.6 118.684C127.851 119.154 127.743 119.93 128.315 120.838L128.718 121.479L131.421 119.782C132.493 119.11 133.934 119.323 134.657 120.471C135.33 121.538 134.915 122.954 133.844 123.626L131.141 125.323L135.851 132.797C136.676 134.105 136.378 135.708 135.094 136.514C133.863 137.287 132.233 136.894 131.409 135.586L126.698 128.111L126.216 128.414C125.092 129.119 123.687 128.846 123.014 127.778C122.291 126.63 122.669 125.275 123.793 124.569L124.275 124.267L123.805 123.52Z" fill="#442919"/>
<path d="M134.006 137.179C132.924 137.286 131.82 136.765 131.171 135.735L126.61 128.498L126.366 128.651C125.107 129.441 123.53 129.123 122.776 127.927C121.991 126.681 122.364 125.135 123.643 124.332L123.887 124.179L123.566 123.669C122.43 121.868 122.049 120.145 122.433 118.55C122.788 117.074 123.811 115.769 125.391 114.778C126.413 114.137 127.741 113.523 128.621 113.287C130.066 112.897 131.259 113.308 131.974 114.442C132.755 115.683 132.366 117.135 131.029 117.975C130.711 118.174 130.353 118.288 129.972 118.409C129.566 118.539 129.147 118.672 128.749 118.921C127.972 119.409 128.214 120.151 128.552 120.688L128.806 121.091L131.271 119.544C131.863 119.173 132.557 119.039 133.223 119.168C133.917 119.301 134.511 119.711 134.895 120.321C135.258 120.897 135.358 121.589 135.176 122.268C134.998 122.929 134.578 123.495 133.994 123.862L131.529 125.409L136.09 132.647C137.01 134.106 136.646 135.871 135.244 136.75C134.855 136.995 134.432 137.134 134.007 137.177L134.006 137.179ZM126.786 127.724L131.647 135.437C132.383 136.606 133.832 136.975 134.944 136.277C136.075 135.568 136.362 134.136 135.613 132.947L130.753 125.235L133.694 123.389C134.151 123.102 134.493 122.641 134.632 122.125C134.773 121.599 134.697 121.064 134.418 120.621C134.117 120.144 133.654 119.825 133.115 119.72C132.589 119.618 132.04 119.725 131.57 120.02L128.628 121.866L128.076 120.987C127.423 119.953 127.564 119.003 128.45 118.446C128.908 118.159 129.383 118.008 129.802 117.875C130.147 117.765 130.472 117.661 130.73 117.5C131.787 116.837 132.103 115.702 131.498 114.742C130.765 113.578 129.608 113.604 128.767 113.829C127.948 114.049 126.655 114.648 125.691 115.253C124.238 116.165 123.3 117.35 122.98 118.681C122.633 120.124 122.991 121.702 124.042 123.37L124.662 124.355L123.942 124.807C122.917 125.451 122.627 126.637 123.252 127.629C123.838 128.559 125.074 128.799 126.066 128.176L126.786 127.724L126.786 127.724Z" fill="white"/>
<path d="M149.723 111.454C150.715 112.38 151.003 113.597 149.88 114.796L144.483 120.602L144.621 120.732C145.73 121.766 147.257 121.29 148.423 120.045C149.2 119.215 149.678 118.106 149.983 117.225C150.675 115.193 152.711 115.191 153.726 116.138C154.28 116.655 154.578 117.538 154.306 118.752C153.995 120.147 153.085 121.672 151.595 123.262C148.637 126.42 144.444 126.786 141.368 124.435C140.379 123.642 138.925 122.286 138.25 121.528C135.485 118.431 135.595 114.388 138.51 111.276C141.511 108.073 145.751 107.75 149.191 110.959L149.722 111.454L149.723 111.454ZM145.618 114.449C145.769 114.288 145.765 114.154 145.557 113.96C144.378 112.817 142.833 112.802 141.647 114.07C140.286 115.523 140.65 117.028 142.012 118.298L145.618 114.449Z" fill="#442919"/>
<path d="M146.493 126.196C144.656 126.379 142.793 125.877 141.197 124.657C140.195 123.855 138.722 122.481 138.04 121.714C135.166 118.495 135.27 114.323 138.304 111.084C141.493 107.681 145.945 107.548 149.383 110.753L149.914 111.248C151.141 112.393 151.205 113.79 150.084 114.987L144.88 120.586C145.963 121.514 147.347 120.78 148.218 119.852C148.812 119.218 149.302 118.328 149.717 117.132C150.043 116.176 150.691 115.532 151.54 115.318C152.362 115.112 153.298 115.353 153.919 115.932C154.616 116.583 154.851 117.605 154.581 118.812C154.256 120.269 153.32 121.83 151.8 123.453C150.278 125.078 148.399 126.005 146.493 126.194L146.493 126.196ZM143.339 109.006C141.698 109.17 140.098 109.992 138.716 111.467C135.894 114.479 135.794 118.354 138.461 121.341C139.126 122.089 140.567 123.432 141.545 124.216C144.553 126.514 148.603 126.045 151.39 123.07C152.841 121.522 153.729 120.049 154.033 118.69C154.258 117.686 154.081 116.851 153.535 116.343C153.05 115.89 152.32 115.702 151.678 115.863C151.212 115.98 150.586 116.326 150.25 117.314C149.808 118.588 149.278 119.543 148.629 120.235C147.248 121.709 145.561 121.99 144.43 120.936L144.086 120.616L149.674 114.604C150.897 113.298 150.11 112.198 149.531 111.658L149 111.163C147.249 109.531 145.266 108.815 143.34 109.006L143.339 109.006ZM142.026 118.695L141.82 118.503C141.061 117.795 140.626 117.05 140.529 116.288C140.423 115.45 140.73 114.639 141.441 113.879C142.065 113.212 142.808 112.85 143.583 112.831C144.357 112.813 145.108 113.133 145.754 113.759C145.848 113.847 145.982 113.992 146.003 114.188C146.027 114.424 145.874 114.587 145.824 114.641L142.026 118.695L142.026 118.695ZM143.444 113.402C142.875 113.458 142.328 113.754 141.852 114.262C141.259 114.894 141.002 115.552 141.087 116.217C141.159 116.779 141.467 117.343 142.003 117.897L145.412 114.258C145.42 114.25 145.426 114.242 145.431 114.237C145.42 114.222 145.4 114.198 145.365 114.165C144.826 113.643 144.215 113.378 143.595 113.393C143.544 113.394 143.493 113.397 143.443 113.402L143.444 113.402Z" fill="white"/>
<path d="M159.174 94.6891C160.372 95.328 160.964 96.4312 160.188 97.8777L156.472 104.874L156.639 104.964C157.977 105.678 159.331 104.825 160.136 103.323C160.672 102.322 160.848 101.126 160.916 100.197C161.06 98.0565 163.026 97.5309 164.253 98.1852C164.922 98.5419 165.437 99.3184 165.488 100.561C165.548 101.988 165.062 103.697 164.032 105.616C161.989 109.427 158.032 110.858 154.452 109.377C153.292 108.866 151.536 107.929 150.688 107.37C147.216 105.088 146.278 101.154 148.292 97.399C150.365 93.5321 154.378 92.1314 158.531 94.3466L159.172 94.6886L159.174 94.6891ZM155.981 98.6382C156.085 98.4434 156.046 98.3155 155.795 98.1814C154.361 97.3803 152.865 97.7629 152.045 99.2931C151.105 101.045 151.845 102.407 153.49 103.283L155.981 98.6382Z" fill="#442919"/>
<path d="M158.004 110.196C156.804 110.315 155.559 110.139 154.344 109.637C153.167 109.118 151.389 108.17 150.533 107.604C146.926 105.233 145.949 101.176 148.044 97.2663C150.247 93.158 154.516 91.8858 158.665 94.0988L159.306 94.4407C159.992 94.8068 160.468 95.3047 160.684 95.8811C160.928 96.5314 160.844 97.2474 160.436 98.0087L156.852 104.756C157.381 105.01 157.921 105 158.458 104.724C158.999 104.446 159.506 103.902 159.887 103.19C160.297 102.425 160.542 101.439 160.635 100.176C160.703 99.1689 161.162 98.3798 161.928 97.9556C162.671 97.544 163.636 97.5369 164.386 97.9368C165.227 98.386 165.719 99.3135 165.769 100.549C165.831 102.041 165.33 103.79 164.28 105.747C162.877 108.364 160.542 109.941 158.003 110.194L158.004 110.196ZM153.947 93.5993C151.742 93.8188 149.807 95.169 148.541 97.5311C146.592 101.166 147.496 104.936 150.844 107.136C151.68 107.687 153.419 108.615 154.566 109.121C158.067 110.568 161.86 109.074 163.785 105.484C164.786 103.617 165.266 101.964 165.208 100.573C165.166 99.5445 164.78 98.7844 164.121 98.4332C163.535 98.1208 162.781 98.1264 162.202 98.4477C161.782 98.6798 161.267 99.1757 161.197 100.216C161.098 101.561 160.832 102.62 160.384 103.456C159.943 104.279 159.366 104.89 158.717 105.224C157.989 105.598 157.225 105.594 156.507 105.212L156.093 104.991L159.94 97.7465C160.269 97.1326 160.342 96.5716 160.158 96.079C159.99 95.6321 159.604 95.2369 159.04 94.9366L158.399 94.5946C156.874 93.7811 155.355 93.4597 153.946 93.6L153.947 93.5993ZM153.606 103.663L153.357 103.531C152.441 103.042 151.828 102.433 151.538 101.722C151.218 100.939 151.306 100.077 151.797 99.1604C152.229 98.3559 152.851 97.8155 153.596 97.5977C154.339 97.3803 155.148 97.4978 155.933 97.9364C156.409 98.1909 156.357 98.5304 156.229 98.7698L153.605 103.663L153.606 103.663ZM154.128 98.0642C154.001 98.0768 153.876 98.1009 153.753 98.1365C153.157 98.3109 152.651 98.7566 152.293 99.4253C151.884 100.188 151.805 100.89 152.058 101.511C152.273 102.035 152.716 102.501 153.378 102.898L155.733 98.5056C155.738 98.4953 155.742 98.4871 155.745 98.4803C155.73 98.4688 155.705 98.4513 155.663 98.4288C155.142 98.1385 154.619 98.0153 154.128 98.0642Z" fill="white"/>
<path d="M81.5559 151.812C80.7679 151.89 79.9564 151.903 79.127 151.847C75.7248 151.618 72.6606 150.181 70.4982 147.802C68.4344 145.531 67.2637 142.498 67.201 139.262C67.1547 137.371 67.2819 135.512 67.5785 133.752C68.0836 130.538 69.6516 127.68 71.9958 125.702C74.4558 123.626 77.6811 122.609 81.0766 122.837C86.1612 123.18 90.264 125.996 91.7855 130.186L91.8345 130.332C92.1627 131.406 92.1954 132.113 92.141 132.906C92.037 134.424 91.2591 135.846 90.0051 136.807C89.3431 137.314 88.5752 137.674 87.7792 137.861C89.8716 138.668 91.6066 140.728 91.4275 143.354C91.3737 144.146 91.2458 144.843 90.7742 145.863L90.7053 146.002C88.9686 149.303 85.5804 151.41 81.5558 151.811L81.5559 151.812ZM78.5749 138.918C78.5801 140.721 79.3433 140.772 79.849 140.806C80.29 140.836 80.6695 140.733 81.0874 140.133L81.0965 140.12C81.5299 139.505 82.5348 138.083 84.4836 137.63C82.73 136.932 81.8907 135.47 81.5255 134.835L81.4577 134.709C81.1241 134.058 80.7627 133.906 80.3218 133.875C80.0119 133.854 79.0678 133.791 78.7894 135.765C78.6641 136.781 78.588 137.899 78.5742 138.917L78.5749 138.918Z" fill="white"/>
<path d="M101.382 151.051C95.8132 151.605 90.982 148.336 89.7987 143.151C89.4618 141.721 89.1694 139.524 89.1165 138.025C88.9002 132.67 92.9144 128.23 98.6663 127.466C101.473 127.093 104.102 127.619 106.28 128.986C108.504 130.381 110.054 132.575 110.645 135.165C110.985 136.626 111.277 138.824 111.326 140.291C111.545 145.736 107.539 150.24 101.797 151.003C101.659 151.021 101.52 151.038 101.383 151.051L101.382 151.051Z" fill="white"/>
<path d="M118.805 146.951C117.77 147.054 116.724 146.863 115.764 146.384C114.43 145.717 113.415 144.561 112.905 143.127L110.763 137.102C110.234 137.042 109.715 136.903 109.222 136.686C107.901 136.104 106.907 135.036 106.425 133.678C105.707 131.661 106.258 129.548 107.685 128.15C107.121 125.546 107.653 123.596 108.264 122.351C109.253 120.339 111.066 118.817 113.508 117.952C114.916 117.453 116.593 117.098 117.779 117.047C120.489 116.931 122.619 118.299 123.476 120.707C123.964 122.078 123.865 123.471 123.294 124.656C124.067 125.253 124.681 126.077 125.038 127.08C126.005 129.798 124.521 132.815 121.73 133.805L121.548 133.87L123.505 139.371C124.014 140.803 123.968 142.328 123.376 143.668C122.755 145.072 121.601 146.133 120.128 146.655C119.694 146.809 119.25 146.908 118.805 146.952L118.805 146.951Z" fill="white"/>
<path d="M134.305 139.864C132.222 140.072 130.079 139.098 128.87 137.18L125.463 131.775C125.444 131.777 125.425 131.779 125.405 131.781C123.483 131.972 121.572 131.112 120.475 129.372C119.333 127.559 119.408 125.379 120.494 123.703C119.374 121.285 119.466 119.266 119.79 117.918C120.314 115.739 121.751 113.859 123.945 112.482C125.209 111.688 126.768 110.976 127.916 110.668C130.536 109.964 132.912 110.835 134.275 112.997C135.053 114.232 135.261 115.616 134.961 116.898C135.871 117.32 136.642 117.997 137.196 118.877C137.955 120.082 138.176 121.574 137.801 122.97C137.446 124.294 136.607 125.426 135.44 126.158L135.277 126.261L138.391 131.203C140.107 133.926 139.36 137.371 136.69 139.047C135.946 139.514 135.129 139.781 134.305 139.863L134.305 139.864Z" fill="white"/>
<path d="M146.773 128.897C144.204 129.153 141.641 128.414 139.543 126.81L139.489 126.768C138.359 125.862 136.796 124.403 136.006 123.514C132.194 119.244 132.318 113.502 136.319 109.232C140.552 104.715 146.687 104.525 151.24 108.771L151.771 109.266C152.852 110.275 153.457 111.488 153.578 112.728C154.39 112.952 155.15 113.368 155.775 113.951C157.184 115.265 157.716 117.252 157.234 119.403C156.802 121.337 155.642 123.324 153.786 125.305C151.877 127.343 149.412 128.616 146.843 128.889C146.82 128.892 146.796 128.894 146.773 128.896L146.773 128.897Z" fill="white"/>
<path d="M158.289 112.892C156.619 113.058 154.912 112.808 153.303 112.142L153.239 112.115C151.912 111.53 150.025 110.521 149.034 109.866C144.247 106.721 142.885 101.142 145.649 95.9883C148.573 90.5363 154.453 88.7764 159.949 91.7077L160.591 92.0502C161.868 92.7314 162.781 93.7273 163.232 94.9302C164.074 94.9385 164.914 95.1438 165.67 95.5464C167.371 96.4535 168.397 98.2372 168.487 100.44C168.569 102.42 167.961 104.638 166.679 107.028C165.361 109.487 163.306 111.351 160.895 112.275C160.051 112.599 159.176 112.804 158.29 112.893L158.289 112.892ZM153.335 97.2284C153.335 97.2284 153.335 97.229 153.335 97.2297L153.334 97.2285L153.335 97.2284Z" fill="white"/>
<path d="M83.5495 141.843C84.1461 140.998 84.7254 140.404 85.9865 140.49C87.2163 140.573 88.5335 141.705 88.4343 143.153C88.4019 143.625 88.3464 143.969 88.0493 144.613C86.411 147.727 82.8319 149.098 79.3307 148.861C73.7797 148.487 70.2973 144.268 70.1996 139.203C70.1576 137.493 70.274 135.793 70.5394 134.231C71.3291 129.162 75.3533 125.451 80.8729 125.823C84.4054 126.062 87.7649 127.901 88.9653 131.207C89.1727 131.885 89.1807 132.233 89.1483 132.705C89.0497 134.152 87.5905 135.097 86.3608 135.014C85.099 134.929 84.5833 134.135 84.1299 133.346C83.3747 131.872 82.1359 130.998 80.5269 130.89C77.846 130.709 76.192 132.652 75.8166 135.377C75.6765 136.506 75.5896 137.764 75.576 138.902C75.5758 141.684 76.9651 143.611 79.6459 143.792C81.2543 143.901 82.602 143.201 83.5495 141.843Z" fill="#442919"/>
<path d="M107.721 135.837C108.016 137.102 108.286 139.134 108.328 140.401C108.487 144.23 105.696 147.465 101.402 148.036C97.1719 148.598 93.5694 146.213 92.7216 142.475C92.4295 141.242 92.1595 139.209 92.1141 137.911C91.9554 134.082 94.8302 130.995 99.0607 130.433C103.354 129.862 106.873 132.1 107.721 135.837L107.721 135.837ZM97.3383 138.107C97.3711 138.835 97.5586 140.241 97.7129 140.921C98.0735 142.433 99.1737 143.273 100.741 143.064C102.308 142.856 103.213 141.749 103.072 140.209C103.012 139.517 102.824 138.11 102.698 137.395C102.444 135.965 101.312 135.129 99.7134 135.341C98.1148 135.554 97.3036 136.648 97.3382 138.107L97.3383 138.107Z" fill="#442919"/>
<path d="M110.955 128.692C109.528 124.68 111.205 121.944 114.512 120.771C115.644 120.37 117.048 120.073 117.907 120.036C119.196 119.981 120.215 120.49 120.648 121.708C121.05 122.838 120.554 124.084 119.124 124.591C118.439 124.834 117.587 124.702 116.693 125.018C115.859 125.313 115.583 126.047 115.942 127.058L116.196 127.771L119.205 126.704C120.396 126.282 121.756 126.804 122.211 128.082C122.634 129.271 121.919 130.562 120.727 130.985L117.718 132.051L120.678 140.373C121.195 141.829 120.555 143.328 119.125 143.835C117.754 144.32 116.25 143.582 115.733 142.125L112.773 133.804L112.237 133.994C110.985 134.437 109.674 133.865 109.252 132.676C108.797 131.398 109.463 130.158 110.715 129.714L111.251 129.525L110.955 128.693L110.955 128.692Z" fill="#442919"/>
<path d="M123.805 123.52C121.533 119.917 122.571 116.881 125.542 115.016C126.559 114.378 127.864 113.782 128.695 113.559C129.941 113.224 131.047 113.498 131.737 114.593C132.376 115.608 132.165 116.932 130.88 117.738C130.265 118.125 129.403 118.18 128.6 118.684C127.851 119.155 127.743 119.931 128.315 120.838L128.718 121.479L131.421 119.782C132.493 119.11 133.934 119.323 134.657 120.471C135.33 121.539 134.915 122.954 133.844 123.626L131.141 125.323L135.851 132.798C136.676 134.106 136.378 135.709 135.094 136.515C133.863 137.287 132.233 136.895 131.409 135.587L126.698 128.112L126.216 128.414C125.092 129.12 123.687 128.846 123.014 127.779C122.291 126.631 122.669 125.276 123.793 124.57L124.275 124.267L123.805 123.52Z" fill="#442919"/>
<path d="M149.723 111.454C150.715 112.38 151.003 113.597 149.88 114.796L144.483 120.602L144.621 120.732C145.73 121.766 147.257 121.29 148.423 120.045C149.2 119.215 149.678 118.106 149.983 117.225C150.675 115.193 152.711 115.191 153.726 116.138C154.28 116.655 154.578 117.538 154.306 118.752C153.995 120.147 153.085 121.672 151.595 123.262C148.637 126.42 144.444 126.786 141.368 124.435C140.379 123.642 138.925 122.286 138.25 121.528C135.485 118.431 135.595 114.388 138.51 111.276C141.511 108.073 145.751 107.75 149.191 110.959L149.722 111.454L149.723 111.454ZM145.618 114.449C145.769 114.288 145.765 114.154 145.557 113.96C144.378 112.817 142.833 112.802 141.647 114.07C140.286 115.523 140.65 117.028 142.012 118.298L145.618 114.449Z" fill="#442919"/>
<path d="M159.174 94.6891C160.372 95.328 160.964 96.4312 160.188 97.8777L156.472 104.874L156.639 104.964C157.977 105.678 159.331 104.825 160.136 103.323C160.672 102.322 160.848 101.126 160.916 100.197C161.06 98.0565 163.026 97.5309 164.253 98.1852C164.922 98.5419 165.437 99.3184 165.488 100.561C165.548 101.988 165.062 103.697 164.032 105.616C161.989 109.427 158.032 110.858 154.452 109.377C153.292 108.866 151.536 107.929 150.688 107.37C147.216 105.088 146.278 101.154 148.292 97.399C150.365 93.5321 154.378 92.1314 158.531 94.3466L159.172 94.6886L159.174 94.6891ZM155.981 98.6382C156.085 98.4434 156.046 98.3155 155.795 98.1814C154.361 97.3803 152.865 97.7629 152.045 99.2931C151.105 101.045 151.845 102.407 153.49 103.283L155.981 98.6382Z" fill="#442919"/>
<path d="M118.904 80.8537C118.981 90.2918 114.23 106.406 102.797 106.49C96.3454 103.883 95.8223 94.8909 92.359 89.5841C85.1014 78.4622 74.2932 72.2196 82.0355 61.801C97.7005 40.7214 119.262 58.2845 118.904 80.8537Z" fill="#F9B043"/>
<path d="M81.0971 98.6466C78.3147 96.1183 75.0858 94.0863 72.2748 91.8082C66.3774 85.0792 74.153 69.531 83.1825 77.992C92.8017 87.0044 100.233 104.947 98.1941 106.607C90.1133 113.19 86.7248 102.379 81.0965 98.6466L81.0971 98.6466Z" fill="#F9B043"/>
<path d="M84.7182 101.003C86.8813 102.957 90.1859 105.324 91.05 107.99C86.001 112.487 76.6458 111.721 71.2196 108.038C68.0254 105.623 70.3294 101.432 71.2917 98.4232C73.989 90.0055 81.495 97.6819 85.0232 101.249L84.711 100.996C84.711 100.996 84.7168 101.002 84.7175 101.003L84.7182 101.003Z" fill="#F9B043"/>
<path d="M118.373 88.7692C119.9 76.781 117.712 65.7866 109.632 56.7707C112.526 52.9962 120.716 53.6785 124.696 57.099C144.338 71.7461 111.854 111.139 117.741 89.4514M109.356 55.9938C109.356 55.9938 109.357 56.0022 109.359 56.015C109.357 55.9996 109.356 55.9932 109.356 55.9938Z" fill="#F9B043"/>
<path d="M131.731 60.2813L131.729 60.2808L131.731 60.2813ZM131.907 60.3274C133.727 60.8779 135.99 61.0946 137.413 62.4325C137.415 62.4343 137.417 62.4361 137.418 62.4379C141.518 67.1294 134.895 74.1039 131.022 76.9391C130.988 76.9639 130.947 76.9278 130.962 76.8887C134.215 68.1344 125.012 57.9379 131.997 60.3508" fill="#F9B043"/>
<path d="M81.9881 73.5588C82.0599 73.5743 82.1332 73.5846 82.2078 73.5888C82.673 73.6139 83.1108 73.397 83.521 73.1776C86.3309 71.674 89.0318 69.6911 90.5381 66.8461C91.1186 65.7489 91.5318 64.5138 92.4253 63.664C93.2528 62.8771 94.3897 62.525 95.5029 62.2947C97.9392 61.7905 100.451 61.7552 102.941 61.8689C105.72 61.9961 108.492 62.3063 111.235 62.798C111.828 62.9045 112.567 62.9614 112.896 62.4528C113.173 62.0239 112.979 61.4466 112.753 60.9815C110.825 57.0029 107.043 54.0651 102.841 52.9143C98.6398 51.7628 94.0813 52.3309 90.1595 54.1751C85.0957 56.5569 79.2805 61.6656 79.1009 67.7954C79.0487 69.5658 79.5741 71.3983 80.7451 72.7217C81.0832 73.1035 81.5039 73.4538 81.9875 73.5588L81.9881 73.5588Z" fill="#FCC572"/>
<path d="M112.686 60.7244C112.693 60.7296 112.697 60.7318 112.699 60.7303C114.584 59.5298 116.777 58.666 119.009 58.8119C121.237 58.9576 123.262 60.0778 125.255 61.0811C125.589 61.2497 125.968 61.4191 126.326 61.3088C126.635 61.213 126.854 60.916 126.92 60.5998C126.985 60.2836 126.918 59.9527 126.801 59.6514C126.603 59.1452 126.268 58.7046 125.905 58.2999C124.57 56.8118 122.802 55.7406 120.905 55.0998C119.008 54.4596 116.985 54.2384 114.983 54.3008C113.956 54.3328 112.914 54.4424 111.967 54.8393C111.362 55.0931 110.813 55.458 110.294 55.8577C109.621 56.3766 109.526 56.4879 110.039 57.1848C110.253 57.4758 112.493 60.5657 112.687 60.7243L112.686 60.7244Z" fill="#FBC572"/>
<path d="M129.313 60.6447C129.321 60.6225 129.33 60.6008 129.34 60.5797C129.591 60.0593 130.551 59.9566 131.039 59.9898C131.661 60.0324 132.255 60.2491 132.856 60.4166C133.898 60.7069 134.98 60.8549 136 61.2137C136.598 61.4242 137.18 61.7123 137.642 62.146C138.105 62.5798 138.439 63.1724 138.468 63.8051C138.498 64.4338 138.23 65.0403 137.904 65.5798C137.752 65.8313 137.583 66.0772 137.355 66.2628C137.269 66.3338 137.171 66.3968 137.061 66.4188C136.731 66.4847 136.455 66.1843 136.245 65.9228C135.849 65.4305 135.419 64.967 134.956 64.5365C134.516 64.1266 134.039 63.7417 133.484 63.5067C133.062 63.3274 132.607 63.2402 132.156 63.154C131.757 63.0781 131.358 63.0017 130.952 62.9719C130.772 62.9587 130.587 62.9531 130.421 62.8813C130.183 62.7777 130.024 62.5527 129.884 62.3349C129.635 61.9481 129.136 61.1603 129.313 60.6454L129.313 60.6447Z" fill="#FBC572"/>
<path d="M72.3541 90.7684C72.1812 90.646 72.0249 90.4948 71.8981 90.3256C71.4833 89.7741 71.3132 89.0724 71.1925 88.3891C70.3528 83.6359 71.6331 75.8676 77.4948 75.7286C79.5079 75.6808 81.4538 76.7218 82.9781 78.1295C84.0193 79.0906 84.9048 80.2256 85.6657 81.4366C83.4595 81.0038 81.1915 80.5707 79.0041 80.9988C76.8901 81.4132 74.9211 82.6889 73.8246 84.5971C72.7281 86.506 72.5938 89.0455 73.6603 91.0247C73.2248 91.1738 72.7455 91.0456 72.3542 90.7691L72.3541 90.7684Z" fill="#FBC572"/>
<path d="M78.0353 99.443C77.1801 99.4483 76.301 99.5598 75.5521 99.972C74.238 100.695 73.3627 102.027 72.769 103.365C72.1636 104.729 71.664 106.299 71.8263 107.805C71.836 107.896 71.8473 107.99 71.8249 108.079C71.7349 108.43 71.2344 108.448 70.8943 108.32C69.7599 107.894 69.0115 106.749 68.7756 105.563C68.5397 104.377 68.7407 103.148 69.0278 101.972C69.3994 100.45 69.9142 98.9668 70.4854 97.5082C70.7623 96.7996 71.0723 96.0695 71.6494 95.5719C72.1312 95.1564 72.7538 94.9458 73.3657 94.7712C74.1833 94.5385 75.0762 94.3568 75.8656 94.6703C76.537 94.9372 77.0205 95.5188 77.5649 95.9931C78.1664 96.5181 78.863 96.9266 79.4587 97.4581C80.0537 97.9903 80.2643 100.013 78.0359 99.4423L78.0353 99.443Z" fill="#FBC572"/>
<path d="M85.5516 103.001C87.516 104.313 91.9978 107.327 88.3028 109.214C87.2342 109.782 85.4885 110.602 84.3618 110.475C83.7918 110.312 84.0779 109.702 84.1993 109.215C84.3924 108.574 84.6326 107.843 84.7103 107.152C84.8636 106.149 84.57 105.038 84.4528 104.187C84.2458 102.742 84.5349 102.351 85.4839 102.961L85.551 103.002L85.5516 103.001Z" fill="#B87F29"/>
<path d="M96.8864 99.9837C98.9077 101.651 99.4199 105.69 96.9954 107.313C95.3827 108.435 92.8206 108.937 91.6975 108.18C90.7386 107.391 91.4821 106.2 91.979 105.249C92.7297 103.914 93.9625 102.001 94.726 100.788C95.3901 99.7263 96.0369 99.347 96.8337 99.9442L96.887 99.983L96.8864 99.9837Z" fill="#B87F29"/>
<path d="M97.1356 99.9839C97.3494 99.7711 97.8065 99.8521 98.4337 100.126C99.0296 100.385 99.8184 100.753 100.506 100.956C105.738 102.446 111.21 98.3298 114.028 94.4707C114.597 93.8759 116.818 86.2125 117.418 87.411C117.583 88.2314 116.943 93.6838 116.668 94.6851C115.638 98.5272 113.245 101.364 110.073 103.74C107.139 106.406 102.416 107.518 99.261 104.742C98.2948 103.888 96.4213 101.083 97.1119 100.006L97.135 99.9839L97.1356 99.9839Z" fill="#B87F29"/>
<path d="M118.72 81.92C118.936 82.0335 119.164 82.6562 119.368 83.5019C119.758 85.0797 119.957 86.8154 120.938 87.9363C122.337 89.6318 124.033 88.1995 125.6 87.8616C125.975 87.8249 126.137 88.0276 126.071 88.4705C125.544 90.7667 120.991 96.5737 118.156 95.7289C117.464 95.5089 117.033 94.885 116.935 93.884C116.832 90.9246 117.544 87.8964 117.824 84.9944C117.96 84.118 118.096 83.1384 118.36 82.3181C118.467 82.014 118.579 81.8736 118.697 81.9113L118.719 81.9201L118.72 81.92Z" fill="#B87F29"/>
<path d="M131.181 65.9448C131.998 66.0835 132.649 67.7541 133.181 68.5581C133.957 70.0377 134.835 71.6441 134.472 73.3488C133.918 75.5516 132.077 76.2101 131.609 73.9351C131.427 72.7372 130.166 66.3756 131.149 65.9512L131.181 65.9454L131.181 65.9448Z" fill="#B87F29"/>
<path d="M118.935 96.8398C118.395 96.9858 117.878 96.9808 117.399 96.7849C115.136 95.8566 115.896 91.9888 116.663 89.1603L118.82 89.7422C117.816 93.4402 118.173 94.505 118.281 94.7163C119.546 94.6988 124.277 89.913 127.51 81.9197C129.503 76.9928 133.153 64.7971 124.028 57.9916L123.967 57.9437C121.839 56.1151 118.129 55.0686 114.944 55.3999C113.361 55.5641 112.046 56.0547 111.143 56.8048C118.315 65.2541 120.458 76.882 118.82 89.7428L116.664 89.1609C118.29 76.3948 116.122 65.686 108.8 57.5147L108.184 56.8274L108.331 56.2713L108.585 55.9488L109.089 55.5253L109.609 55.082L110.376 54.5284C111.604 53.5628 112.744 53.3876 114.715 53.1822C118.509 52.7882 122.796 54.0117 125.398 56.2288C135.603 63.8708 132.669 78.1085 127.051 87.9864C125.217 91.2107 121.759 96.0795 118.937 96.8403L118.935 96.8398Z" fill="#C7622A"/>
<path d="M131.297 78.024C130.962 78.1145 130.597 78.0502 130.305 77.8307C129.892 77.5212 129.735 76.9883 129.914 76.5037C131.389 72.5347 130.038 68.1161 129.052 64.8896C128.441 62.8904 127.986 61.4035 128.273 60.3388L127.443 60.7415L127.575 60.6679L127.438 60.7329L127.356 60.5424L128.349 60.1105C128.449 59.8583 128.599 59.6324 128.808 59.4317C129.734 58.5423 131.194 58.8936 132.364 59.2971L132.363 59.2992C132.75 59.4112 133.163 59.511 133.597 59.6164C135.144 59.9902 136.897 60.4143 138.18 61.6201L138.262 61.7047C139.481 63.0994 139.993 64.752 139.785 66.6165C139.279 71.1635 134.455 75.8099 131.684 77.8381C131.565 77.9253 131.434 77.9876 131.298 78.0246L131.297 78.024ZM130.363 76.0395C130.363 76.0395 130.362 76.0409 130.361 76.0417C130.362 76.0415 130.363 76.0402 130.363 76.0395ZM130.417 61.1076C130.418 61.712 130.858 63.1529 131.189 64.2379C131.976 66.8117 133.073 70.4018 132.731 74.0566C135.147 71.7684 137.286 68.8584 137.563 66.3709C137.699 65.1511 137.387 64.1162 136.609 63.208C135.763 62.4347 134.394 62.1036 133.07 61.7829C132.577 61.6638 132.068 61.5405 131.583 61.394L131.585 61.3879C130.963 61.1759 130.605 61.1187 130.417 61.1076L130.417 61.1076Z" fill="#C7622A"/>
<path d="M106.004 107.176C104.976 107.453 103.909 107.597 102.805 107.605L102.583 107.606L102.378 107.523C97.6758 105.624 95.9019 100.886 94.1872 96.3054C93.3398 94.0422 92.5393 91.9041 91.4227 90.1929C89.5965 87.3941 87.5585 84.9313 85.5871 82.5495C79.8311 75.5935 74.8599 69.5857 81.1379 61.138C89.6383 49.6994 98.5272 50.5665 103.07 52.1015C113.1 55.491 120.228 67.5834 120.022 80.8587C120.076 87.8514 117.637 97.9009 112.154 103.458C110.308 105.328 108.249 106.571 106.005 107.177L106.004 107.176ZM103.014 105.371C105.822 105.293 108.36 104.122 110.561 101.893C115.377 97.0125 117.841 87.6201 117.786 80.8638L117.786 80.8372C117.979 68.6975 111.343 57.252 102.352 54.2129C95.503 51.898 88.6062 54.8291 82.9326 62.4649C77.6969 69.511 81.7293 74.3839 87.3107 81.1287C89.3214 83.5586 91.4001 86.0712 93.296 88.9754C94.5468 90.8914 95.4281 93.246 96.2809 95.5237C97.8687 99.7654 99.3705 103.777 103.015 105.37L103.014 105.371Z" fill="#C7622A"/>
<path d="M85.2714 111.559C79.9754 112.987 73.602 111.745 69.409 108.898L69.3628 108.865C66.0132 106.334 67.4693 102.371 68.5322 99.4784C68.7216 98.9629 68.9008 98.475 69.0452 98.0231C69.8548 95.4948 71.1627 93.9973 72.9686 93.5675C76.9374 92.6192 81.7058 97.4402 84.5546 100.321L84.6371 100.404L84.626 100.416C84.9369 100.69 85.2669 100.971 85.6048 101.26C87.7284 103.074 90.1352 105.129 90.9309 107.585L91.1546 108.276L90.6112 108.76C89.0984 110.108 87.2606 111.021 85.2707 111.558L85.2714 111.559ZM70.6912 107.071C75.4555 110.289 83.7187 111.192 88.5181 107.593C87.681 105.97 85.8184 104.379 84.1512 102.955C83.6705 102.545 83.2067 102.148 82.7855 101.768L82.7016 101.683L82.7327 101.655C80.4718 99.3725 76.1385 95.1042 73.4879 95.7369C72.5051 95.971 71.7292 96.9683 71.1743 98.7018C71.0155 99.1987 70.8286 99.7068 70.6304 100.246C69.4933 103.341 68.8319 105.645 70.6913 107.072L70.6912 107.071Z" fill="#C7622A"/>
<path d="M95.0833 109.571C90.6592 110.764 87.5043 107.051 84.8588 103.938C83.4642 102.296 82.0223 100.599 80.4777 99.5753L80.3437 99.4711C78.7217 97.9972 76.9032 96.6668 75.1443 95.3799C73.9518 94.5073 72.7193 93.6055 71.569 92.6735L71.4323 92.5423C67.5222 88.0806 68.9536 80.3206 72.7949 76.6218C76.0542 73.4822 80.2241 73.6909 83.9468 77.1793C92.7939 85.4688 99.8046 101.144 99.6468 105.643C99.6178 106.476 99.3661 107.091 98.9002 107.471C97.5278 108.589 96.26 109.254 95.082 109.572L95.0833 109.571ZM81.7877 97.7659C83.5645 98.9647 85.0889 100.759 86.5639 102.495C90.433 107.049 92.8549 109.458 97.3934 105.82C98.0655 103.571 91.5889 87.3982 82.4174 78.8047C79.5832 76.1491 76.7171 75.9437 74.3472 78.226C71.2993 81.1615 70.0615 87.4869 73.0558 91.0049C74.1391 91.8793 75.2705 92.7068 76.4665 93.5817C78.2507 94.8875 80.0951 96.236 81.7871 97.7666L81.7877 97.7659Z" fill="#C7622A"/>
<path d="M41.2349 95.0663C-58.1489 163.169 185.338 70.3338 174.327 51.1955C172.071 48.0571 158.591 50.9796 153.231 48.0276C151.154 47.0521 150.171 44.4056 151.269 41.652C151.821 40.2395 152.621 39.1567 153.688 38.0099C154.87 36.7384 158.398 36.6169 159.299 38.2691C161.085 41.4199 156.05 50.3087 158.394 52.5288C160.855 54.0354 165.214 48.5633 166.767 46.5486C167.192 46.0226 170.847 41.4457 171.677 40.4886C171.91 40.22 169.041 45.9884 168.922 46.4678C166.099 51.9381 158.124 57.9716 155.995 55.7294C155.353 55.1467 155.059 53.9535 155.248 52.0895C155.383 50.4362 155.802 48.9259 156.505 47.4937C157.575 45.0915 158.538 40.4965 156.57 40.4672C155.203 40.5156 154.729 42.0873 154.559 43.3066C153.143 53.9242 173.713 43.5359 178.033 49.5079C192.146 79.2197 -75.087 163.43 40.7423 91.2167L41.2362 95.0662L41.2349 95.0663Z" fill="white"/>
<path d="M26.285 121.17C25.4254 121.256 24.624 121.312 23.8816 121.338C23.2714 121.36 22.6983 121.362 22.161 121.344C13.6108 121.774 11.337 119.878 10.4086 118.26C8.34554 114.662 12.4494 110.182 15.715 107.126C20.5796 102.574 28.6985 96.7407 39.8479 89.79L42.0806 88.3978L43.0395 95.8717L42.1897 96.4536C33.1563 102.644 26.6373 107.73 22.8133 111.57C18.5273 115.875 19.0622 117.188 19.0691 117.199C19.1014 117.249 19.5565 117.866 22.0748 117.976C23.8889 117.882 26.0761 117.674 28.7118 117.304C30.8386 117.005 33.142 116.617 35.605 116.145C35.8118 116.099 36.0199 116.052 36.2318 116.003C46.1716 113.72 59.4769 109.58 74.7093 104.03C106.199 92.5563 138.47 77.8787 156.923 66.6372C162.927 62.9802 167.348 59.7664 170.065 57.0859C172.265 54.9153 173.316 53.0805 172.912 52.1325C172.773 52.0087 172.242 51.6617 170.538 51.4515C169.673 51.3449 168.68 51.2912 167.609 51.2621C164.68 54.6162 160.717 57.4512 157.983 57.841C156.348 58.0752 155.362 57.4879 154.814 56.9334C153.753 55.936 153.334 54.2553 153.567 51.9365C153.618 51.3165 153.704 50.7139 153.827 50.1245C153.342 49.954 152.885 49.7554 152.461 49.5262C149.517 48.1086 148.331 44.4677 149.701 41.0299C150.418 39.1958 151.493 37.8942 152.452 36.8645C153.642 35.5845 155.778 35.2115 157.367 35.4103C158.95 35.6078 160.159 36.3321 160.775 37.4498C161.967 39.5689 161.175 42.6505 160.337 45.9126C160.271 46.1705 160.205 46.425 160.142 46.6761C161.53 46.6963 163.145 46.5595 164.74 46.3981C164.962 46.1221 165.192 45.8304 165.43 45.5217L165.454 45.4921C165.527 45.401 165.699 45.1872 165.936 44.8909C167.795 42.5718 169.779 40.1045 170.402 39.3868L171.367 38.2733L172.614 39.0698C172.976 39.3058 173.753 40.0036 173.151 41.3828C173.084 41.5362 172.984 41.7532 172.862 42.0154C172.63 42.5104 172.312 43.1744 171.982 43.8637C171.696 44.4609 171.331 45.2211 171.038 45.8469C174.573 45.7222 177.71 46.1843 179.401 48.5213L179.492 48.6461L179.558 48.7856C181.562 53.0066 179.313 58.0485 172.871 63.7715C167.508 68.5366 159.208 73.861 148.2 79.5984C126.102 91.1159 94.1526 103.643 64.8187 112.291C54.0622 115.462 44.3638 117.89 36.3083 119.438C32.404 120.315 29.0466 120.895 26.2849 121.17L26.285 121.17ZM39.4031 94.0472C29.5874 100.263 22.4024 105.482 18.023 109.581C12.5186 114.733 13.2377 116.413 13.3377 116.587C13.4117 116.716 13.8447 117.307 15.7046 117.693C15.2018 114.872 18.0603 111.57 20.4206 109.199C24.2688 105.334 30.662 100.311 39.4311 94.2632L39.4031 94.0472ZM175.028 49.5047C175.283 49.7131 175.507 49.9485 175.698 50.2139L175.79 50.3573C178.327 54.7681 172.891 60.8545 158.681 69.5109C151.02 74.1783 141.01 79.4282 129.675 84.795C135.765 82.0552 141.474 79.3066 146.638 76.6156C157.4 71.0064 165.471 65.8393 170.627 61.2584C174.141 58.1363 177.994 53.7365 176.575 50.381C176.229 49.9721 175.696 49.6908 175.028 49.5047ZM157.172 54.5224C157.346 54.5576 157.714 54.5087 158.253 54.3115C158.002 54.2281 157.754 54.1132 157.511 53.9641L157.36 53.8719L157.232 53.7503C157.104 53.6287 156.988 53.5 156.883 53.3656C156.911 54.0822 157.059 54.4135 157.131 54.4843L157.173 54.5223L157.172 54.5224ZM153.424 41.0766C153.191 41.4634 153.002 41.8511 152.841 42.2631C152.351 43.4922 152.405 44.7028 152.913 45.5572C152.774 44.8154 152.764 43.9905 152.885 43.0865C152.998 42.274 153.188 41.6137 153.425 41.0772L153.424 41.0766ZM156.151 38.7438C155.537 38.8049 155.06 39.0089 154.924 39.1549C154.834 39.2515 154.748 39.3458 154.665 39.4391C155.357 38.917 156.076 38.8006 156.509 38.7854L156.594 38.7847C157.041 38.7916 157.461 38.9016 157.832 39.1023C157.831 39.101 157.831 39.0998 157.83 39.0986L157.816 39.074C157.783 39.013 157.515 38.8235 156.945 38.7524C156.668 38.7177 156.398 38.7192 156.151 38.7438Z" fill="white"/>
<path d="M59.2683 60.4234L55.7558 68.3594C54.585 71.0048 52.1599 71.7066 50.0502 70.7779L33.649 63.5568C31.5052 62.6133 30.3758 60.3878 31.5627 57.7078L35.1066 49.7017C37.1833 45.0107 41.3853 43.7847 44.8556 45.3128C47.4078 46.4363 48.5131 48.4402 48.6643 50.4878L48.7323 50.5173C50.4515 48.7458 52.9792 48.0883 55.803 49.3316C60.3288 51.324 61.345 55.733 59.2684 60.424L59.2683 60.4234ZM44.3381 55.1139C45.0877 53.4207 44.5621 52.22 43.269 51.6508C41.8057 51.0064 40.6326 51.5439 39.9143 53.1658L37.6661 58.2447L42.0898 60.1921L44.338 55.1132L44.3381 55.1139ZM51.277 64.2381L53.7282 58.7008C54.5245 56.9023 53.9802 55.6509 52.4829 54.9917C51.0197 54.3473 49.7111 54.8249 48.8987 56.6587L46.4789 62.1254L51.277 64.2381Z" fill="#F9AF42"/>
<path d="M52.3285 71.9942C51.4837 72.0783 50.5931 71.9372 49.709 71.5474L33.3078 64.3262C32.0201 63.7591 31.0483 62.7892 30.5727 61.5939C30.0607 60.3075 30.1358 58.8464 30.7909 57.3671L34.3348 49.3611C35.403 46.9473 37.0658 45.2295 39.143 44.3935C41.0694 43.618 43.2195 43.6708 45.1966 44.5413C47.29 45.4631 48.6916 47.0103 49.2519 48.9781C51.2217 47.6322 53.6633 47.4683 56.1433 48.5607C58.5512 49.6207 60.1691 51.3742 60.8214 53.6316C61.435 55.7545 61.1652 58.2212 60.0394 60.7634L56.5269 68.6994C55.6632 70.6513 54.0986 71.8186 52.3285 71.9948L52.3285 71.9942ZM41.3735 45.5614C40.8265 45.6159 40.289 45.7467 39.7728 45.9545C38.1117 46.6231 36.7648 48.0362 35.8776 50.0404L32.3337 58.0465C31.8663 59.1032 31.7991 60.1149 32.1408 60.9716C32.4524 61.7541 33.1093 62.3983 33.99 62.7858L50.3912 70.007C52.2785 70.8384 54.0814 70.0576 54.984 68.0188L58.4964 60.0827C59.4595 57.9067 59.7031 55.8367 59.2007 54.0981C58.6907 52.3349 57.398 50.9529 55.4617 50.1004C53.1335 49.0753 50.9583 49.4308 49.3377 51.101L48.9293 51.5221L47.8597 51.0534L47.8225 50.5488C47.7176 49.1296 47.0584 47.2021 44.5144 46.0816C43.4928 45.6315 42.4167 45.4575 41.3742 45.5614L41.3735 45.5614ZM51.7084 65.3481L45.3668 62.5561L48.1276 56.3193C48.6105 55.2279 49.2769 54.4896 50.1081 54.1257C50.9268 53.767 51.8665 53.8 52.8241 54.2221C54.8202 55.101 55.4466 56.902 54.4999 59.0407L51.7077 65.3481L51.7084 65.3481ZM47.5918 61.6951L50.8463 63.1278L52.957 58.3607C53.6928 56.6988 52.9081 56.0984 52.1425 55.7618C51.6219 55.5325 51.1657 55.5 50.786 55.6664C50.3594 55.853 49.9739 56.314 49.6712 56.9986L47.5924 61.695L47.5918 61.6951ZM42.5206 61.3028L36.5533 58.6755L39.1426 52.8264C40.0506 50.7766 41.7202 50.0495 43.6095 50.8813C44.4874 51.2672 45.095 51.8929 45.3675 52.689C45.6467 53.5058 45.5603 54.4357 45.1092 55.4538L42.5206 61.3028ZM38.779 57.815L41.6592 59.0831L43.5664 54.7745C43.8362 54.1646 43.9068 53.6317 43.7708 53.2336C43.6532 52.8889 43.3696 52.6159 42.928 52.4216C42.2413 52.1193 41.3667 51.9694 40.6862 53.5064L38.779 57.815Z" fill="white"/>
<path d="M61.5274 30.3976C62.4804 31.3356 62.994 33.1413 61.6365 34.5133C61.2564 34.8978 60.3934 35.3479 59.6331 36.1164C58.9278 36.83 58.8912 37.6062 59.8703 38.5702L66.8064 45.3984C68.0242 46.597 68.0266 48.549 66.7508 49.8395C65.5293 51.0745 63.5186 51.1533 62.3007 49.9541L54.4383 42.2145C51.5792 39.4003 51.4356 35.8471 54.7204 32.5258C55.6161 31.6199 56.8887 30.5978 57.7521 30.0938C59.3454 29.1164 60.5209 29.4071 61.5267 30.3977L61.5274 30.3976Z" fill="#F9AF42"/>
<path d="M64.8331 51.6371C63.7087 51.749 62.5583 51.3903 61.7083 50.553L53.8459 42.8134C52.2472 41.2398 51.4127 39.42 51.4322 37.5515C51.4522 35.6349 52.382 33.692 54.1202 31.9348C55.0797 30.9648 56.3984 29.909 57.3271 29.3672C59.1019 28.2783 60.7201 28.4204 62.1197 29.7983C62.7683 30.4362 63.1933 31.3132 63.2873 32.2043C63.3998 33.2754 63.0267 34.3058 62.2368 35.1045C62.0282 35.3161 61.7583 35.5073 61.4459 35.7286C61.0624 36.0012 60.6271 36.3094 60.2334 36.7076C60.0448 36.8984 59.9532 37.0627 59.962 37.1969C59.9685 37.3086 60.0434 37.5575 60.4633 37.9709L67.3994 44.799C68.1554 45.5424 68.5665 46.5344 68.5579 47.5909C68.5489 48.6442 68.1208 49.6522 67.3517 50.43C66.6476 51.1422 65.7487 51.5459 64.8331 51.6371ZM59.4177 30.3387C59.0678 30.3735 58.6691 30.5197 58.1944 30.8104C57.3894 31.2801 56.1608 32.2673 55.3213 33.1163C53.8764 34.5775 53.1353 36.0757 53.1199 37.5678C53.1053 38.9898 53.7484 40.3508 55.0319 41.6144L62.8943 49.354C63.7594 50.206 65.2513 50.1574 66.1517 49.2471C66.6105 48.7833 66.8664 48.1898 66.8711 47.5771C66.876 46.9793 66.6431 46.4182 66.2146 45.9973L59.2785 39.1691C58.6451 38.5453 58.3181 37.9345 58.2785 37.3015C58.239 36.6692 58.4931 36.0713 59.0335 35.5254C59.5301 35.0228 60.051 34.6534 60.4691 34.3566C60.7068 34.1882 60.9311 34.0289 61.0369 33.9222C61.478 33.4765 61.6711 32.958 61.6103 32.381C61.5576 31.8779 61.3051 31.3609 60.9357 30.9971C60.4892 30.5579 60.0299 30.2784 59.4184 30.3393L59.4177 30.3387Z" fill="white"/>
<path d="M85.4668 24.3786C86.1791 25.8067 85.9647 27.2811 84.1659 28.175L75.4996 32.523L75.5988 32.7222C76.394 34.3167 78.3308 34.3907 80.1984 33.4627C81.4441 32.8439 82.4737 31.7929 83.2091 30.9302C84.8897 28.9346 87.1908 29.7397 87.9201 31.2012C88.3177 31.9985 88.2643 33.1029 87.4197 34.3518C86.4517 35.7862 84.7479 37.1303 82.3606 38.3166C77.6215 40.6712 72.7221 39.4165 70.2853 35.5697C69.5185 34.2924 68.4752 32.1999 68.0479 31.0849C66.2926 26.5267 68.2048 22.0533 72.8744 19.7328C77.683 17.3434 82.6157 18.6648 85.0849 23.6148L85.4662 24.3786L85.4668 24.3786ZM79.5034 26.0975C79.7459 25.9773 79.7998 25.8258 79.6503 25.5271C78.8233 23.7825 77.085 23.1538 75.1827 24.0989C73.0032 25.182 72.749 27.0083 73.7263 28.9678L79.5034 26.0968L79.5034 26.0975Z" fill="#F9AF42"/>
<path d="M78.5853 40.2928C74.946 40.6552 71.5492 39.1399 69.5726 36.0191L69.5618 36.002C68.7762 34.6935 67.7005 32.5361 67.2605 31.3853C66.3205 28.9443 66.3256 26.4728 67.2759 24.2402C68.2179 22.028 70.0241 20.2088 72.4994 18.9788C75.0912 17.6904 77.7204 17.3922 80.1032 18.1152C82.5564 18.8597 84.5399 20.6313 85.8407 23.2383L86.2219 24.0021C87.2302 26.0241 86.5864 27.9112 84.5415 28.9277L76.7335 32.8448C76.9612 33.0403 77.2489 33.1584 77.6014 33.2025C78.2347 33.2816 79.0234 33.1057 79.8227 32.7086C80.7137 32.2661 81.6109 31.5061 82.5665 30.3845C83.4854 29.2938 84.6809 28.7723 85.9314 28.9204C87.1075 29.0598 88.1589 29.7893 88.6752 30.8254C89.0152 31.5076 89.396 32.9337 88.1185 34.8217C87.0587 36.3919 85.2475 37.8213 82.7362 39.0693C81.3603 39.7529 79.9551 40.1558 78.5846 40.2923L78.5853 40.2928ZM71.004 35.128C73.2474 38.6598 77.7617 39.6613 81.9849 37.5625C84.2314 36.4462 85.8247 35.2078 86.7195 33.8813C87.3117 33.0056 87.4691 32.1875 87.1648 31.5763C86.9023 31.0506 86.34 30.6645 85.7316 30.5926C85.0552 30.5119 84.4061 30.8161 83.8551 31.4715C82.7458 32.7734 81.6734 33.6696 80.5747 34.2159C79.4654 34.7672 78.3649 34.995 77.3917 34.8737C76.2491 34.731 75.3443 34.1005 74.8435 33.0973L74.3702 32.1472L83.7872 27.4232C85.0043 26.8183 85.3053 25.9457 84.7116 24.7537L84.3303 23.9899C83.2416 21.8071 81.6098 20.3329 79.6122 19.7267C77.6502 19.1313 75.4502 19.3939 73.2514 20.4861C68.9779 22.6093 67.2453 26.6513 68.8365 30.783C69.2489 31.8592 70.2602 33.8861 71.0047 35.1286L71.004 35.128ZM73.3474 30.0968L72.9718 29.3435C72.3693 28.1355 72.1947 27.0096 72.4537 25.997C72.7411 24.8705 73.5334 23.9781 74.807 23.3456C75.951 22.7772 77.1001 22.6647 78.1291 23.02C79.1198 23.3621 79.9095 24.1041 80.4129 25.1668C80.4722 25.2855 80.6762 25.6937 80.5196 26.1599C80.4191 26.4575 80.2041 26.6899 79.8791 26.8508L73.3468 30.0969L73.3474 30.0968ZM76.6693 24.5138C76.3149 24.5491 75.9409 24.6623 75.5583 24.8523C74.7435 25.2567 74.2492 25.7818 74.0881 26.4121C73.9846 26.8171 74.0122 27.2909 74.1666 27.8085L78.7042 25.5538C78.4083 25.0853 78.025 24.7651 77.5763 24.6104C77.2952 24.5131 76.9901 24.4812 76.6692 24.5131L76.6693 24.5138Z" fill="white"/>
<path d="M108.551 28.7058C108.632 29.7041 108.404 30.2441 107.638 30.8281C106.614 31.5819 104.104 33.1277 99.5214 33.5016C93.6293 33.9824 90.869 31.0429 90.5951 27.6773C90.3417 24.57 92.2593 21.4718 97.8435 21.0158C99.461 20.8833 100.824 20.9585 101.849 21.1726L101.746 19.9149C101.641 18.6205 100.917 17.8233 98.5676 18.015C97.4896 18.1028 96.2811 18.4997 95.4136 18.7939C92.8047 19.6029 91.058 18.6283 90.9131 16.8528C90.8409 15.9647 91.2092 14.7808 92.9264 13.9704C93.8592 13.5217 95.7035 12.8498 98.1299 12.6517C104.022 12.1702 107.379 14.3543 107.82 19.7542L108.551 28.7058ZM102.383 27.7202L102.159 24.9833C101.173 24.766 100.236 24.693 99.0419 24.7912C97.232 24.9389 96.4603 25.9331 96.5475 27.0054C96.6621 28.4113 97.9429 28.9025 99.4062 28.7827C100.985 28.6534 101.944 28.0541 102.382 27.7203L102.383 27.7202Z" fill="#F9AF42"/>
<path d="M100.022 34.3015C99.8797 34.3157 99.7359 34.3287 99.59 34.3406C92.7723 34.8974 90.0304 31.1361 89.754 27.746C89.5988 25.8469 90.1889 24.082 91.4145 22.777C92.8189 21.2816 94.962 20.4079 97.7749 20.1772C98.9136 20.0839 99.981 20.0867 100.922 20.182L100.905 19.9843C100.858 19.4053 100.673 19.2075 100.517 19.1004C100.281 18.9375 99.7639 18.7625 98.6356 18.8547C97.6093 18.9387 96.3573 19.3633 95.6843 19.5913L95.6629 19.598C93.9875 20.1174 92.4842 20.0113 91.4281 19.2997C90.635 18.7651 90.1526 17.9205 90.0714 16.9216C90.0113 16.1874 90.1349 14.3566 92.565 13.209C93.2748 12.8676 95.2431 12.0425 98.0606 11.8119C101.24 11.5525 103.746 12.0567 105.509 13.3115C107.362 14.6305 108.423 16.7752 108.66 19.6847L109.391 28.6363C109.496 29.9159 109.136 30.7445 108.15 31.4958C106.699 32.5641 104.135 33.8906 100.022 34.3002L100.022 34.3015ZM97.6424 21.879C95.3924 22.1031 93.7118 22.7917 92.6451 23.9276C91.4966 25.1502 91.3531 26.6045 91.4355 27.6085C91.659 30.35 93.8829 33.117 99.4528 32.6624C103.42 32.3368 105.824 31.1171 107.137 30.1501C107.659 29.7521 107.768 29.4933 107.709 28.7739L106.979 19.8223C106.588 15.0445 103.799 13.0324 98.1978 13.4902C95.6609 13.696 93.9224 14.4249 93.2921 14.7278C92.2157 15.2363 91.685 15.9461 91.7535 16.784C91.7935 17.2773 92.0022 17.6545 92.3733 17.9045C92.9857 18.3168 93.9982 18.3491 95.153 17.9932C96.1778 17.6458 97.3657 17.2698 98.499 17.1757C99.8223 17.0673 100.797 17.2443 101.479 17.7152C102.136 18.1692 102.509 18.8864 102.587 19.846L102.782 22.2268L101.676 21.9954C100.665 21.7839 99.363 21.735 97.9119 21.8535C97.8215 21.8605 97.7319 21.8688 97.643 21.8777L97.6424 21.879ZM99.6179 29.6082C99.5708 29.6128 99.5238 29.6175 99.476 29.621C98.5381 29.6975 97.7044 29.5533 97.0657 29.2033C96.266 28.7655 95.7839 28.0091 95.7077 27.0734C95.6416 26.2664 95.92 25.5129 96.492 24.9508C97.0711 24.3822 97.927 24.0373 98.9739 23.9512C100.193 23.8519 101.232 23.9159 102.342 24.1606L102.95 24.2948L103.261 28.1099L102.895 28.3892C102.274 28.8619 101.207 29.4506 99.6173 29.6089L99.6179 29.6082ZM99.0331 25.6366C98.4254 25.6971 97.957 25.8742 97.6761 26.1509C97.4609 26.3625 97.3642 26.6266 97.3899 26.9364C97.4211 27.3157 97.5716 27.5591 97.8793 27.7278C98.2221 27.9157 98.7405 27.9919 99.3395 27.9433C100.312 27.8666 101.02 27.5838 101.503 27.2988L101.371 25.6914C100.647 25.5798 99.9413 25.5624 99.1118 25.6301C99.0854 25.6327 99.0595 25.6346 99.0338 25.6372L99.0331 25.6366Z" fill="white"/>
<path d="M125.09 15.4498C126.267 15.8293 127.755 16.6219 128.61 17.3658L129.813 13.6577C130.352 11.9978 132.184 11.1064 133.838 11.6403C135.602 12.21 136.453 13.9665 135.915 15.6263L129.853 34.3078C129.544 35.2611 129.089 35.6609 128.194 35.9182C126.803 36.3274 123.466 36.8506 119.459 35.5577C114.238 33.8733 111.911 29.5338 112.894 25.1303C113.185 23.8586 113.961 21.3395 114.521 20.1152C116.335 15.9016 120.128 13.8482 125.09 15.4498ZM121.451 29.9193C122.481 30.2512 123.927 30.1721 124.532 29.9379L126.8 22.945C126.389 22.4614 125.277 21.6347 123.99 21.2194C122.115 20.6146 120.853 21.3773 120.228 23.0489C119.925 23.7315 119.456 25.1793 119.266 26.015C118.744 27.8751 119.539 29.3021 121.451 29.9188L121.451 29.9193Z" fill="#F9AF42"/>
<path d="M126.165 37.1467C124.465 37.3159 122.025 37.27 119.2 36.3587C113.802 34.6173 110.937 30.0314 112.071 24.948C112.352 23.7216 113.145 21.0975 113.754 19.7664C115.848 14.9022 120.186 12.9829 125.351 14.6487C126.275 14.9469 127.313 15.4506 128.168 15.9978L129.012 13.3987C129.341 12.3823 130.059 11.5563 131.033 11.0731C131.996 10.5948 133.085 10.5117 134.099 10.8398C136.26 11.5368 137.411 13.7537 136.719 15.8859L130.657 34.5673C130.271 35.7582 129.625 36.384 128.428 36.7279C128.042 36.8416 127.256 37.0387 126.166 37.1473L126.165 37.1467ZM121.113 15.7849C118.543 16.0408 116.506 17.6381 115.296 20.4477C114.777 21.5857 114.01 24.0362 113.716 25.3178C112.784 29.5028 115.195 33.2983 119.719 34.7579C124.005 36.1406 127.333 35.2956 127.956 35.1122C128.615 34.9232 128.839 34.7048 129.051 34.0507L135.113 15.3686C135.52 14.114 134.86 12.8559 133.578 12.4421C132.985 12.2505 132.348 12.3004 131.783 12.5806C131.219 12.8607 130.805 13.3351 130.616 13.9174L129.019 18.8398L128.056 18.0015C127.318 17.3589 125.931 16.6068 124.83 16.2516C123.503 15.8234 122.255 15.6718 121.112 15.7856L121.113 15.7849ZM123.773 30.9477C122.963 31.0283 121.977 30.9734 121.191 30.7205C118.867 29.9703 117.817 28.0901 118.448 25.8095C118.653 24.9191 119.124 23.4693 119.447 22.732C120.263 20.5758 122.056 19.711 124.25 20.4184C125.614 20.859 126.889 21.7488 127.444 22.4006L127.747 22.758L125.21 30.5774L124.836 30.7224C124.564 30.828 124.192 30.906 123.773 30.9477ZM121.711 29.1183C122.404 29.3421 123.324 29.3285 123.871 29.2395L125.836 23.1833C125.372 22.7945 124.584 22.2965 123.73 22.0205C122.38 21.5849 121.518 22.0051 121.019 23.3429L121 23.3902C120.718 24.024 120.267 25.4167 120.089 26.2019L120.078 26.2425C119.677 27.6719 120.227 28.6396 121.711 29.119L121.711 29.1183Z" fill="white"/>
<path d="M52.7108 76.0831C51.185 76.235 49.5896 75.9946 48.0419 75.3131L31.6407 68.092C29.3581 67.087 27.6164 65.3199 26.7391 63.1161C25.8221 60.8143 25.9213 58.1835 27.0172 55.7073L30.5611 47.7012C32.0725 44.287 34.5069 41.8236 37.6009 40.5787C40.5684 39.3847 43.8578 39.4551 46.8625 40.7777C48.5823 41.5349 50.0184 42.5995 51.1202 43.9012C53.281 43.5315 55.5857 43.8169 57.8098 44.7965C61.3196 46.3421 63.7964 49.0742 64.784 52.4901C65.6694 55.5527 65.3334 58.9881 63.8119 62.4248L60.2994 70.3608C58.8177 73.7078 55.9191 75.7642 52.7103 76.0838L52.7108 76.0831Z" fill="white"/>
<path d="M65.2445 55.7296C62.9403 55.959 60.5683 55.2136 58.8114 53.483L50.9491 45.744C48.5358 43.3686 47.2769 40.5217 47.3083 37.5107C47.3306 35.4147 48.0204 32.2453 51.1852 29.045C52.393 27.8236 53.9623 26.5727 55.1996 25.8425C58.6019 23.78 62.2684 24.1615 65.0178 26.8678C66.3532 28.1819 67.1956 29.9237 67.3901 31.7728C67.6055 33.8179 67.0184 35.7773 65.7293 37.3723L70.2976 41.8691C71.8537 43.4002 72.7008 45.4441 72.6828 47.6234C72.6651 49.7527 71.815 51.7759 70.2879 53.3199C68.8813 54.7416 67.0842 55.547 65.2445 55.7302L65.2445 55.7296Z" fill="white"/>
<path d="M78.9946 44.3972C77.4192 44.554 75.8474 44.4541 74.3154 44.0931C70.8969 43.2876 67.9743 41.2011 66.0857 38.2196L66.0229 38.1181C65.1077 36.5933 63.9343 34.2326 63.4068 32.8562C62.0974 29.4561 62.1214 25.8225 63.4796 22.6339C64.8114 19.507 67.295 16.9692 70.662 15.2966C74.1647 13.5558 77.9444 13.1594 81.3056 14.1796C84.8191 15.2464 87.7413 17.8121 89.5332 21.405L89.9145 22.1689C90.6892 23.7213 90.9448 25.3274 90.7353 26.8304C91.4015 27.4438 91.9597 28.1738 92.3678 28.9915C93.6272 31.5163 93.3249 34.4802 91.5376 37.1233C90.0756 39.2887 87.7323 41.1841 84.5737 42.7535C82.7501 43.6597 80.8697 44.2105 78.994 44.3972L78.9946 44.3972Z" fill="white"/>
<path d="M100.426 38.3968C100.26 38.4133 100.093 38.4286 99.9242 38.4422C94.9333 38.8496 91.7534 37.3367 89.9651 35.9956C87.4397 34.1019 85.9045 31.2911 85.6423 28.082C85.4347 25.5402 86.071 23.1272 87.4484 21.1443C86.6009 20.0445 86.0782 18.7033 85.9604 17.2582C85.6953 14.0079 87.5436 11.0367 90.7841 9.49864C91.9368 8.94628 94.3552 7.98742 97.7259 7.71152C101.903 7.37028 105.328 8.12712 107.905 9.96166C109.89 11.3747 112.347 14.151 112.771 19.35L113.502 28.3023C113.72 30.9846 112.761 33.1602 110.652 34.7674L110.586 34.8168C108.727 36.1854 105.472 37.895 100.425 38.3975L100.426 38.3968ZM107.456 28.7958L108.551 28.7057L107.456 28.7952L107.456 28.7965L107.456 28.7958Z" fill="white"/>
<path d="M126.598 41.2306C124.437 41.4458 121.388 41.3904 117.929 40.2747C110.513 37.8818 106.449 31.2125 108.045 24.0562L108.05 24.0296C108.374 22.6159 109.219 19.7912 109.978 18.1121C112.819 11.5693 118.975 8.64177 125.826 10.4975C126.613 9.17199 127.769 8.09725 129.195 7.38911C131.13 6.42843 133.322 6.26338 135.37 6.92366C139.73 8.33132 142.047 12.8232 140.642 17.1513L134.58 35.8327C133.773 38.3218 132.092 39.9519 129.583 40.677C129.066 40.8284 128.025 41.0885 126.598 41.2307L126.598 41.2306ZM121.736 29.0359L121.451 29.9193L121.738 29.0364L121.736 29.0366L121.736 29.0359ZM123.568 25.6826L123.286 25.9217C123.409 25.8919 123.533 25.8523 123.656 25.8037C123.628 25.7623 123.599 25.7218 123.568 25.6833L123.568 25.6826ZM122.843 25.5983L122.848 25.6121L122.97 25.2357C122.967 25.2367 122.963 25.2378 122.959 25.2394L122.843 25.5983Z" fill="white"/>
<path d="M59.2683 60.4234L55.7558 68.3594C54.585 71.0048 52.1599 71.7066 50.0502 70.7779L33.649 63.5568C31.5052 62.6133 30.3758 60.3878 31.5627 57.7078L35.1066 49.7017C37.1833 45.0107 41.3853 43.7847 44.8556 45.3128C47.4078 46.4363 48.5131 48.4402 48.6643 50.4878L48.7323 50.5173C50.4515 48.7458 52.9792 48.0883 55.803 49.3316C60.3288 51.324 61.345 55.733 59.2684 60.424L59.2683 60.4234ZM44.3381 55.1139C45.0877 53.4207 44.5621 52.22 43.269 51.6508C41.8057 51.0064 40.6326 51.5439 39.9143 53.1658L37.6661 58.2447L42.0898 60.1921L44.338 55.1132L44.3381 55.1139ZM51.277 64.2381L53.7282 58.7008C54.5245 56.9023 53.9802 55.6509 52.4829 54.9917C51.0197 54.3473 49.7111 54.8249 48.8987 56.6587L46.4789 62.1254L51.277 64.2381Z" fill="#F9AF42"/>
<path d="M61.5274 30.3976C62.4804 31.3356 62.994 33.1413 61.6365 34.5133C61.2564 34.8978 60.3934 35.3479 59.6331 36.1164C58.9278 36.83 58.8912 37.6062 59.8703 38.5702L66.8064 45.3984C68.0242 46.597 68.0266 48.549 66.7508 49.8395C65.5293 51.0745 63.5186 51.1533 62.3007 49.9541L54.4383 42.2145C51.5792 39.4003 51.4356 35.8471 54.7204 32.5258C55.6161 31.6199 56.8887 30.5978 57.7521 30.0938C59.3454 29.1164 60.521 29.4071 61.5267 30.3977L61.5274 30.3976Z" fill="#F9AF42"/>
<path d="M85.4668 24.3786C86.1791 25.8067 85.9647 27.2811 84.1659 28.175L75.4996 32.523L75.5988 32.7222C76.394 34.3167 78.3308 34.3907 80.1984 33.4627C81.4441 32.8439 82.4737 31.7929 83.2091 30.9302C84.8897 28.9346 87.1908 29.7397 87.9201 31.2012C88.3177 31.9985 88.2643 33.1029 87.4197 34.3518C86.4517 35.7862 84.7479 37.1303 82.3606 38.3166C77.6215 40.6712 72.7221 39.4165 70.2853 35.5697C69.5185 34.2924 68.4752 32.1999 68.0479 31.0849C66.2926 26.5267 68.2048 22.0533 72.8744 19.7328C77.683 17.3434 82.6157 18.6648 85.0849 23.6148L85.4662 24.3786L85.4668 24.3786ZM79.5034 26.0975C79.7459 25.9773 79.7998 25.8258 79.6503 25.5271C78.8233 23.7825 77.085 23.1538 75.1827 24.0989C73.0032 25.182 72.749 27.0083 73.7263 28.9678L79.5034 26.0968L79.5034 26.0975Z" fill="#F9AF42"/>
<path d="M108.551 28.7058C108.632 29.7041 108.404 30.2441 107.638 30.8281C106.614 31.5819 104.104 33.1277 99.5214 33.5016C93.6293 33.9824 90.869 31.0429 90.5951 27.6773C90.3417 24.57 92.2593 21.4718 97.8435 21.0158C99.461 20.8833 100.824 20.9585 101.849 21.1726L101.746 19.9149C101.641 18.6205 100.917 17.8233 98.5676 18.015C97.4896 18.1028 96.2811 18.4997 95.4136 18.7939C92.8047 19.6029 91.058 18.6283 90.9131 16.8528C90.8409 15.9647 91.2092 14.7808 92.9264 13.9704C93.8592 13.5217 95.7035 12.8498 98.1299 12.6517C104.022 12.1702 107.379 14.3543 107.82 19.7542L108.551 28.7058ZM102.383 27.7202L102.159 24.9833C101.173 24.766 100.236 24.693 99.0419 24.7912C97.232 24.9389 96.4603 25.9331 96.5475 27.0054C96.6621 28.4113 97.9429 28.9025 99.4062 28.7827C100.985 28.6534 101.944 28.0541 102.382 27.7203L102.383 27.7202Z" fill="#F9AF42"/>
<path d="M125.09 15.4498C126.267 15.8293 127.755 16.6219 128.61 17.3658L129.813 13.6577C130.352 11.9978 132.184 11.1064 133.838 11.6403C135.602 12.21 136.453 13.9665 135.915 15.6263L129.853 34.3078C129.544 35.2611 129.089 35.6609 128.194 35.9182C126.803 36.3274 123.466 36.8506 119.459 35.5577C114.238 33.8733 111.911 29.5338 112.894 25.1303C113.185 23.8586 113.961 21.3395 114.521 20.1152C116.335 15.9016 120.128 13.8482 125.09 15.4498ZM121.451 29.9193C122.481 30.2512 123.927 30.1721 124.532 29.9379L126.8 22.945C126.389 22.4614 125.277 21.6347 123.99 21.2194C122.115 20.6146 120.853 21.3773 120.228 23.0489C119.925 23.7315 119.456 25.1793 119.266 26.015C118.744 27.8751 119.539 29.3021 121.451 29.9188L121.451 29.9193Z" fill="#F9AF42"/>
<path d="M43.2775 93.1701C-62.4914 162.01 183.637 70.795 174.303 50.5555C172.654 46.9782 158.289 50.3342 152.833 47.3281C150.719 46.3349 149.719 43.6402 150.836 40.8373C151.397 39.3998 152.212 38.2968 153.297 37.1299C154.5 35.8356 158.091 35.7124 159.007 37.3942C160.825 40.6022 155.702 49.6511 158.087 51.9118C160.592 53.4465 165.027 47.8753 166.608 45.8241C167.04 45.2883 170.76 40.6297 171.604 39.6548C171.841 39.3813 168.922 45.2541 168.8 45.7421C165.928 51.3109 157.812 57.4525 155.645 55.17C154.992 54.5767 154.692 53.362 154.885 51.4639C155.022 49.7805 155.448 48.2429 156.163 46.7855C157.252 44.3405 158.231 39.662 156.228 39.6323C154.837 39.6812 154.355 41.2815 154.182 42.5226C152.742 53.3321 173.675 42.7584 178.073 48.8382C192.439 79.0884 -75.0534 164.395 42.8193 90.8889L43.2762 93.1703L43.2775 93.1701Z" fill="#8C6D5F"/>
</g>
<defs>
<clipPath id="clip0_99_345">
<rect width="176" height="143" fill="white" transform="translate(0 17.4385) rotate(-5.68635)"/>
</clipPath>
</defs>
</svg>
