<svg width="4687" height="4563" viewBox="0 0 4687 4563" fill="none" xmlns="http://www.w3.org/2000/svg">
<g clip-path="url(#clip0_214_1149)">
<path d="M3964.67 900.31L4037.12 631.393H4009.55C4009.55 631.393 3972.38 748.72 3930.28 814.084C3883.37 887.035 3778.55 976.168 3778.55 976.168C3778.55 976.168 3535.67 1168.6 3406.2 1317.53C3261.56 1483.79 3092.51 1786.46 3092.51 1786.46L2951.15 1403.76L2878.71 1227.89C2878.71 1227.89 2947.74 1066.06 2951.15 956.445C2953.43 881.472 2927 765.914 2927 765.914H2909.81C2909.81 765.914 2921.06 874.012 2909.81 941.779C2896.53 1021.18 2837.36 1134.84 2837.36 1134.84C2837.36 1134.84 2810.43 1065.05 2785.65 1024.46C2768.58 996.523 2751.51 945.319 2733.94 917.631C2699.29 863.139 2699.55 861.875 2665.03 807.257C2590.18 688.918 2517.73 642.771 2403.05 562.488C2298.49 489.285 2113.39 410.771 2113.39 410.771L2477.27 720.526C2477.27 720.526 2619.64 919.907 2665.03 1068.21C2716.74 1237.12 2737.48 1489.85 2737.48 1489.85L2468.55 1445.1L2392.68 1393.39C2392.68 1393.39 2313.79 1332.45 2292.67 1276.19C2279.27 1240.53 2278.89 1179.59 2278.89 1179.59L2251.33 1162.4C2251.33 1162.4 2242.1 1232.7 2251.33 1276.19C2259.93 1316.27 2292.67 1372.78 2292.67 1372.78C2292.67 1372.78 2238.94 1354.2 2204.8 1341.8C2100.74 1304.13 2042.45 1282.64 1941.05 1238.38C1718.02 1140.91 1392.82 941.906 1392.82 941.906V976.421C1392.82 976.421 1699.18 1202.86 1913.49 1317.78C2131.47 1434.73 2261.19 1488.59 2496.11 1565.97C2607.88 1602.76 2785.77 1648.65 2785.77 1648.65C2785.77 1648.65 2870.36 1899.74 2902.98 2065.87C2933.83 2222.9 2954.95 2312.79 2951.28 2472.72C2948.25 2606.61 2902.98 2812.32 2902.98 2812.32L2558.19 2376.26C2558.19 2376.26 2411.4 2272.96 2306.45 2227.96C2229.71 2195.08 2180.78 2192.81 2103.02 2162.46C2019.95 2130.1 1975.82 2105.95 1896.17 2066C1802.98 2019.22 1744.57 2001.65 1661.75 1938.43C1604.23 1894.56 1574.13 1865.99 1527.35 1810.86C1480.95 1756.24 1423.93 1659.15 1423.93 1659.15L1396.36 1672.93C1396.36 1672.93 1441 1813.01 1496.38 1886.72C1543.92 1949.94 1582.86 1975.35 1644.69 2024.66C1735.47 2097.1 1896.42 2183.2 1896.42 2183.2C1896.42 2183.2 2018.18 2266.9 2103.27 2307.35C2171.04 2339.59 2282.56 2376.26 2282.56 2376.26C2282.56 2376.26 2349.44 2404.07 2382.57 2434.92C2586.01 2624.57 2735.83 2838.49 2854.94 3152.04C3049.02 3663.07 2854.94 4551.75 2854.94 4551.75H3365.23C3365.23 4551.75 3100.48 3653.08 3192.9 3083C3216.42 2937.61 3279.13 2715.85 3279.13 2715.85C3279.13 2715.85 3424.15 2480.31 3561.84 2376.26C3761.61 2225.3 4172.15 2179.79 4172.15 2179.79L4589.39 1855.74L4572.2 1838.55L4130.93 2117.83L3899.93 2148.81L3799.92 2162.59L3879.2 2072.95L3868.83 2055.76L3786.14 2128.2L3668.93 2179.91C3668.93 2179.91 3499.76 2224.42 3406.96 2283.33C3322.5 2336.94 3217.3 2455.66 3217.3 2455.66L3193.15 2024.66C3193.15 2024.66 3343.61 1626.27 3496.6 1404.01C3648.83 1182.76 3965.55 900.689 3965.55 900.689L3964.67 900.31Z" fill="white"/>
<path d="M2645.43 2948.74C2615.97 2975.67 2601.3 3007.91 2612.94 3020.55C2624.44 3033.19 2657.82 3021.56 2687.28 2994.63C2716.74 2967.7 2719.52 2946.46 2719.78 2922.82C2696.26 2920.92 2674.89 2921.81 2645.43 2948.74Z" fill="white"/>
<path d="M2606.11 2857.07C2567.54 2867.69 2539.98 2889.69 2544.53 2906.26C2549.09 2922.82 2583.98 2927.5 2622.54 2917C2661.11 2906.38 2673.25 2888.81 2684.12 2867.82C2664.02 2855.43 2644.67 2846.45 2606.11 2857.07Z" fill="white"/>
<path d="M2011.35 2412.92C1993.27 2448.58 1991.12 2483.85 2006.42 2491.56C2021.72 2499.28 2048.78 2476.64 2066.73 2440.99C2084.81 2405.34 2079.88 2384.48 2071.66 2362.35C2049.03 2368.93 2029.31 2377.27 2011.35 2412.92Z" fill="white"/>
<path d="M1965.58 2318.1C1926.89 2328.09 1898.95 2349.58 1903.25 2366.27C1907.55 2382.83 1942.44 2388.27 1981.13 2378.28C2019.82 2368.29 2032.21 2350.85 2043.47 2330.11C2023.62 2317.47 2004.27 2308.11 1965.58 2318.1Z" fill="white"/>
<path d="M2542.01 2234.41C2570.96 2206.72 2603.96 2194.45 2615.72 2206.84C2627.6 2219.23 2613.69 2251.6 2584.87 2279.29C2555.91 2306.98 2534.67 2308.24 2511.03 2306.85C2510.78 2283.33 2513.05 2262.09 2541.88 2234.41H2542.01Z" fill="white"/>
<path d="M2453.12 2189.14C2466.27 2151.34 2490.04 2125.42 2506.22 2130.98C2522.41 2136.55 2524.81 2171.82 2511.66 2209.5C2498.51 2247.3 2480.05 2258.17 2458.56 2267.66C2447.56 2246.79 2439.97 2226.82 2453.12 2189.02V2189.14Z" fill="white"/>
<path d="M3041.56 1354.32C3078.35 1338.65 3113.62 1338.65 3120.33 1354.32C3127.03 1370.13 3102.75 1395.54 3065.96 1411.34C3029.16 1427.02 3008.81 1420.82 2987.19 1411.34C2995.15 1389.22 3004.76 1370.13 3041.56 1354.32Z" fill="white"/>
<path d="M2974.29 1280.74C2999.96 1250.02 3031.31 1233.96 3044.46 1244.96C3057.61 1255.96 3047.5 1289.72 3021.96 1320.44C2996.29 1351.16 2975.3 1354.83 2951.79 1356.22C2948.88 1332.83 2948.75 1311.46 2974.29 1280.74Z" fill="white"/>
<path d="M4033.2 952.021C4065.56 975.537 4083.52 1005.88 4073.4 1019.79C4063.29 1033.69 4028.9 1025.73 3996.66 1002.21C3964.29 978.697 3959.23 957.963 3956.45 934.447C3979.59 930.022 4000.96 928.505 4033.2 952.021Z" fill="white"/>
<path d="M4062.15 856.567C4101.6 862.889 4131.44 881.6 4128.78 898.542C4126.13 915.484 4091.86 924.081 4052.42 917.759C4012.97 911.438 3998.93 895.255 3985.78 875.784C4004.37 861.245 4022.7 850.245 4062.15 856.567Z" fill="white"/>
<path d="M3807.25 1166.57C3808.14 1206.52 3794.86 1239.27 3777.8 1239.65C3760.6 1240.03 3746.06 1207.92 3745.3 1167.96C3744.42 1128.01 3757.94 1111.32 3774.76 1094.89C3792.34 1110.56 3806.5 1126.62 3807.25 1166.57Z" fill="white"/>
<path d="M3873.76 1114.74C3899.17 1145.59 3909.16 1179.47 3895.89 1190.34C3882.61 1201.22 3851.38 1185.03 3825.84 1154.18C3800.3 1123.33 3800.68 1101.97 3803.72 1078.58C3827.23 1079.97 3848.22 1083.89 3873.76 1114.74Z" fill="white"/>
<path d="M3030.05 795.248C3070 793.604 3103 805.994 3103.76 823.189C3104.52 840.257 3072.66 855.555 3032.7 857.325C2992.75 858.969 2975.81 845.946 2958.99 829.384C2974.29 811.431 2990.1 797.018 3030.05 795.248Z" fill="white"/>
<path d="M2976.82 729.882C3007.17 703.838 3040.67 693.091 3051.92 706.113C3063.05 719.136 3047.62 750.743 3017.28 776.914C2986.94 802.959 2965.57 803.212 2942.18 800.683C2943.06 777.167 2946.48 756.053 2976.82 729.882Z" fill="white"/>
<path d="M1902.62 1420.83C1866.08 1437.01 1830.8 1437.51 1823.85 1421.84C1816.89 1406.16 1840.91 1380.37 1877.45 1364.06C1914 1347.88 1934.48 1353.82 1956.22 1363.05C1948.51 1385.3 1939.16 1404.52 1902.62 1420.83Z" fill="white"/>
<path d="M1976.08 1462.17C1957.49 1497.57 1930.05 1519.82 1914.88 1511.85C1899.71 1503.89 1902.49 1468.74 1921.08 1433.34C1939.66 1397.94 1959.51 1389.98 1982.27 1383.65C1989.98 1405.91 1994.66 1426.77 1976.08 1462.17Z" fill="white"/>
<path d="M4598.37 1970.8C4620.24 2004.18 4626.44 2038.94 4612.15 2048.3C4597.86 2057.66 4568.4 2038.19 4546.53 2004.68C4524.66 1971.3 4527.18 1950.06 4532.75 1927.18C4556.01 1931.23 4576.49 1937.29 4598.37 1970.8Z" fill="white"/>
<path d="M4627.32 1891.65C4665.25 1904.29 4691.55 1927.68 4686.24 1943.99C4680.81 1960.3 4645.66 1963.21 4607.72 1950.57C4569.79 1937.93 4558.67 1919.72 4548.93 1898.23C4569.67 1886.97 4589.52 1879.01 4627.45 1891.78L4627.32 1891.65Z" fill="white"/>
<path d="M1895.28 1966.25C1929.93 1946.14 1964.82 1941.85 1973.42 1956.76C1982.02 1971.56 1961.03 1999.88 1926.39 2019.98C1891.74 2040.08 1870.75 2036.29 1848.25 2029.46C1853.56 2006.45 1860.64 1986.35 1895.28 1966.25Z" fill="white"/>
<path d="M1817.78 1932.99C1832.44 1895.82 1857.22 1870.79 1873.28 1876.99C1889.21 1883.31 1890.22 1918.58 1875.56 1955.75C1860.89 1992.92 1842.05 2003.04 1820.18 2011.76C1810.06 1990.52 1803.24 1970.17 1817.9 1932.99H1817.78Z" fill="white"/>
<path d="M2442.88 850.877C2406.34 867.06 2371.06 867.566 2364.11 851.889C2357.15 836.211 2381.18 810.42 2417.72 794.11C2454.26 777.801 2474.74 783.869 2496.49 793.099C2488.77 815.35 2479.42 834.568 2442.88 850.877Z" fill="white"/>
<path d="M2516.34 892.22C2497.75 927.621 2470.32 949.873 2455.14 941.907C2439.97 933.942 2442.75 898.795 2461.34 863.394C2479.92 827.994 2499.78 820.029 2522.53 813.707C2530.37 835.959 2534.92 856.82 2516.34 892.22Z" fill="white"/>
<path d="M3964.16 564.639C3947.35 528.353 3946.34 493.079 3961.89 485.873C3977.44 478.666 4003.61 502.182 4020.43 538.468C4037.24 574.753 4031.55 595.361 4022.7 617.234C4000.32 609.901 3980.98 600.924 3964.16 564.639Z" fill="white"/>
<path d="M3892.47 634.048C3860.99 609.394 3844.05 578.418 3854.67 565.017C3865.29 551.489 3899.3 560.592 3930.78 585.246C3962.27 609.9 3966.56 630.887 3968.59 654.277C3945.32 657.943 3923.96 658.702 3892.47 634.048Z" fill="white"/>
<path d="M3507.98 2561.86C3526.57 2597.26 3529.35 2632.41 3514.18 2640.37C3499 2648.34 3471.69 2626.09 3453.11 2590.69C3434.52 2555.28 3439.2 2534.42 3446.91 2512.17C3469.67 2518.37 3489.39 2526.46 3507.98 2561.86Z" fill="white"/>
<path d="M3576 2488.91C3608.62 2512.05 3627.08 2542.14 3617.22 2556.04C3607.36 2570.08 3572.84 2562.62 3540.22 2539.61C3507.6 2516.47 3502.16 2495.86 3499 2472.47C3522.14 2467.67 3543.38 2465.9 3576 2488.91Z" fill="white"/>
<path d="M4218.05 2254.51C4237.52 2289.4 4241.18 2324.55 4226.27 2332.89C4211.35 2341.24 4183.4 2319.74 4163.93 2284.85C4144.46 2249.95 4148.51 2228.97 4155.71 2206.46C4178.6 2212.15 4198.58 2219.61 4218.05 2254.51Z" fill="white"/>
<path d="M4284.17 2179.91C4317.43 2202.17 4336.64 2231.75 4327.04 2245.91C4317.55 2260.2 4282.91 2253.75 4249.66 2231.5C4216.4 2209.25 4210.46 2188.76 4206.67 2165.5C4229.68 2160.06 4250.92 2157.79 4284.05 2179.91H4284.17Z" fill="white"/>
<path d="M4212.36 1952.59C4204.9 1913.27 4212.36 1878.88 4229.3 1875.6C4246.12 1872.43 4265.84 1901.64 4273.43 1940.96C4280.89 1980.28 4270.39 1998.87 4256.48 2017.83C4236.51 2005.31 4219.94 1991.78 4212.36 1952.59Z" fill="white"/>
<path d="M4126.13 2002.66C4101.6 1971.05 4092.62 1936.91 4106.15 1926.42C4119.68 1915.93 4150.53 1932.99 4175.06 1964.48C4199.59 1996.08 4198.7 2017.45 4195.04 2040.71C4171.52 2038.56 4150.66 2034.14 4126.13 2002.53V2002.66Z" fill="white"/>
<path d="M3777.54 1992.16C3760.35 1956.13 3758.83 1920.86 3774.38 1913.4C3789.81 1906.06 3816.36 1929.33 3833.55 1965.36C3850.75 2001.39 3845.31 2022.13 3836.71 2044.13C3814.21 2037.05 3794.74 2028.2 3777.54 1992.16Z" fill="white"/>
<path d="M3706.74 2062.46C3675 2038.18 3657.68 2007.46 3668.17 1993.81C3678.54 1980.15 3712.81 1988.88 3744.54 2013.15C3776.28 2037.43 3780.83 2058.29 3783.11 2081.8C3759.84 2085.72 3738.47 2086.73 3706.74 2062.46Z" fill="white"/>
<path d="M1604.23 1689.74C1633.18 1662.05 1666.18 1649.66 1677.94 1662.05C1689.82 1674.44 1675.92 1706.94 1647.09 1734.5C1618.26 1762.19 1596.89 1763.45 1573.38 1762.19C1573.12 1738.67 1575.4 1717.3 1604.23 1689.74Z" fill="white"/>
<path d="M1515.34 1644.48C1528.49 1606.68 1552.26 1580.63 1568.44 1586.32C1584.63 1592.01 1587.03 1627.16 1573.88 1664.96C1560.73 1702.77 1542.27 1713.64 1520.78 1723.12C1509.78 1702.26 1502.19 1682.28 1515.34 1644.61V1644.48Z" fill="white"/>
<path d="M1477.92 2001.65C1439.73 2013.53 1404.71 2009.86 1399.52 1993.56C1394.47 1977.25 1421.27 1954.24 1459.46 1942.35C1497.64 1930.47 1517.36 1938.81 1537.85 1950.44C1527.6 1971.68 1516.1 1989.76 1477.92 2001.65Z" fill="white"/>
<path d="M1537.34 2081.68C1508.77 2109.62 1475.89 2122.39 1463.88 2110.12C1451.87 2097.86 1465.4 2065.24 1493.97 2037.3C1522.55 2009.36 1543.92 2007.84 1567.43 2008.85C1567.94 2032.37 1565.92 2053.74 1537.34 2081.68Z" fill="white"/>
<path d="M2386.74 1249.39C2423.03 1232.44 2458.18 1231.31 2465.51 1246.86C2472.72 1262.41 2449.33 1288.71 2413.04 1305.65C2376.88 1322.59 2356.14 1317.03 2334.27 1308.18C2341.6 1285.67 2350.45 1266.33 2386.74 1249.39Z" fill="white"/>
<path d="M2317.08 1178.08C2341.6 1146.47 2372.45 1129.53 2385.98 1140.02C2399.51 1150.52 2390.53 1184.65 2366.01 1216.26C2341.48 1247.87 2320.49 1252.17 2297.1 1254.32C2293.43 1231.05 2292.55 1209.69 2317.08 1178.08Z" fill="white"/>
<path d="M1357.04 1054.68C1324.17 1077.57 1289.65 1084.65 1279.92 1070.49C1270.18 1056.45 1288.77 1026.49 1321.64 1003.73C1354.51 980.848 1375.76 982.87 1398.77 987.928C1395.35 1011.32 1389.92 1031.93 1357.04 1054.68Z" fill="white"/>
<path d="M1437.71 1113.22C1418.87 1148.49 1391.31 1170.49 1376.26 1162.4C1361.22 1154.31 1364.12 1119.16 1383.09 1083.89C1401.93 1048.61 1421.78 1040.78 1444.66 1034.71C1452.25 1057.09 1456.67 1077.95 1437.84 1113.22H1437.71Z" fill="white"/>
<path d="M1818.79 1084.02C1845.34 1054.05 1877.2 1039.01 1889.97 1050.38C1902.74 1061.76 1891.74 1095.27 1865.19 1125.1C1838.64 1155.07 1817.52 1158.1 1794.01 1158.74C1791.73 1135.22 1792.24 1113.85 1818.79 1084.02Z" fill="white"/>
<path d="M1726.49 1046.21C1736.48 1007.52 1758.1 979.583 1774.66 983.882C1791.23 988.18 1796.54 1023.08 1786.55 1061.76C1776.56 1100.45 1759.11 1112.84 1738.37 1124.09C1725.73 1104.24 1716.5 1084.9 1726.49 1046.21Z" fill="white"/>
<path d="M2673.88 642.773C2700.43 612.809 2732.29 597.764 2745.06 609.142C2757.83 620.521 2746.83 654.025 2720.28 683.863C2693.73 713.7 2672.61 716.861 2649.1 717.493C2646.82 693.977 2647.33 672.611 2673.88 642.773Z" fill="white"/>
<path d="M2363.73 439.724C2390.28 409.76 2422.14 394.715 2434.91 406.094C2447.68 417.472 2436.68 450.976 2410.13 480.814C2383.58 510.652 2362.47 513.812 2338.82 514.444C2336.55 490.928 2337.05 469.562 2363.6 439.724H2363.73Z" fill="white"/>
<path d="M2281.67 432.645C2282.05 392.693 2296.21 360.327 2313.41 360.58C2330.48 360.706 2344.13 393.325 2343.75 433.277C2343.37 473.229 2329.47 489.412 2312.02 505.342C2294.95 489.033 2281.29 472.597 2281.67 432.645Z" fill="white"/>
<path d="M2581.58 604.97C2591.57 566.282 2613.19 538.341 2629.75 542.64C2646.32 546.938 2651.63 581.833 2641.64 620.521C2631.65 659.208 2614.2 671.599 2593.46 682.851C2580.82 663.001 2571.59 643.657 2581.58 604.97Z" fill="white"/>
<path d="M2098.72 530.503C2060.79 543.146 2008.44 546.812 2003.01 530.503C1997.57 514.193 2041.06 484.356 2079 471.713C2116.93 459.07 2136.78 466.908 2157.51 478.161C2147.78 499.654 2136.65 517.86 2098.72 530.629V530.503Z" fill="white"/>
<path d="M2145.25 585.246C2117.3 613.82 2072.04 637.715 2059.9 625.704C2047.64 613.693 2072.93 570.327 2100.99 541.754C2128.94 513.181 2150.3 511.158 2173.82 511.79C2174.83 535.306 2173.32 556.673 2145.25 585.246Z" fill="white"/>
<path d="M2106.56 344.396C2099.73 304.949 2106.81 254.377 2123.63 251.469C2140.57 248.561 2160.93 294.456 2167.75 333.902C2174.58 373.348 2163.71 391.681 2149.42 410.519C2129.7 397.623 2113.39 383.842 2106.56 344.396Z" fill="white"/>
<path d="M2063.44 402.429C2037.65 390.039 2011.1 364.879 2016.41 353.88C2021.72 342.88 2056.87 349.96 2082.66 362.477C2108.45 374.867 2114.65 388.774 2119.71 404.957C2104.03 411.026 2089.24 414.945 2063.44 402.429Z" fill="white"/>
<path d="M1373.23 875.403C1366.4 835.957 1373.48 785.385 1390.29 782.477C1407.11 779.569 1427.59 825.464 1434.42 864.91C1441.25 904.356 1430.37 922.688 1416.09 941.527C1396.36 928.631 1380.05 914.85 1373.23 875.403Z" fill="white"/>
<path d="M1330.11 933.437C1304.32 921.046 1277.77 896.013 1283.08 884.887C1288.39 873.888 1323.54 880.968 1349.33 893.485C1375.12 905.875 1381.32 919.782 1386.38 935.965C1370.7 942.034 1355.9 945.953 1330.11 933.437Z" fill="white"/>
<path d="M3573.09 1449.15C3597.88 1480.5 3607.23 1514.51 3593.7 1525.13C3580.18 1535.75 3549.2 1518.94 3524.42 1487.71C3499.63 1456.35 3500.27 1434.99 3503.81 1411.72C3527.32 1413.62 3548.31 1417.92 3573.09 1449.15Z" fill="white"/>
<path d="M3626.45 1364.82C3662.86 1381.38 3686.51 1407.55 3679.43 1423.1C3672.35 1438.65 3637.07 1437.89 3600.66 1421.2C3564.24 1404.64 3555.14 1385.3 3547.68 1362.92C3569.43 1353.94 3590.04 1348.13 3626.45 1364.82Z" fill="white"/>
<path d="M2402.42 1636.14C2393.82 1675.2 2400.4 1709.84 2417.09 1713.51C2433.77 1717.18 2454.38 1688.48 2462.98 1649.54C2471.58 1610.47 2461.59 1591.63 2448.32 1572.16C2428.09 1584.17 2411.02 1597.2 2402.42 1636.14Z" fill="white"/>
<path d="M2317.58 1583.67C2292.17 1614.52 2282.3 1648.4 2295.45 1659.27C2308.73 1670.15 2339.96 1653.96 2365.37 1623.11C2390.79 1592.26 2390.53 1570.9 2387.5 1547.51C2363.98 1548.9 2342.99 1552.82 2317.45 1583.67H2317.58Z" fill="white"/>
<path d="M3615.32 971.112C3606.22 932.172 3612.42 897.403 3628.98 893.484C3645.67 889.565 3666.53 918.012 3675.63 956.952C3684.74 995.893 3675 1014.98 3661.98 1034.45C3641.5 1022.7 3624.43 1009.93 3615.32 970.986V971.112Z" fill="white"/>
<path d="M3531.24 1024.72C3505.45 994.122 3495.08 960.491 3508.23 949.365C3521.26 938.24 3552.86 954.043 3578.66 984.64C3604.45 1015.24 3604.45 1036.6 3601.67 1059.99C3578.15 1058.85 3557.04 1055.31 3531.24 1024.72Z" fill="white"/>
<path d="M3327.43 1207.28C3314.41 1151.78 3323.26 1102.22 3347.03 1096.66C3370.8 1091.09 3400.64 1131.55 3413.66 1187.18C3426.68 1242.69 3412.77 1269.87 3394.06 1297.81C3364.85 1281.12 3340.45 1262.91 3327.43 1207.28Z" fill="white"/>
<path d="M3257.64 1314.24C3206.18 1289.72 3172.8 1252.04 3183.29 1229.92C3193.78 1207.79 3244.11 1209.81 3295.57 1234.21C3347.03 1258.74 3359.67 1286.43 3369.91 1318.54C3338.68 1330.93 3309.09 1338.65 3257.64 1314.24Z" fill="white"/>
<path d="M2846.34 952.906C2839.26 925.47 2844.06 901.069 2856.96 898.288C2869.98 895.506 2886.17 915.482 2893.25 942.918C2900.33 970.353 2892.74 983.755 2882.63 997.536C2866.69 989.318 2853.42 980.341 2846.34 952.906Z" fill="white"/>
<path d="M2808.28 1005.75C2780.21 993.616 2762 975.031 2767.82 964.158C2773.51 953.285 2800.95 954.17 2829.02 966.307C2857.09 978.445 2863.91 992.099 2869.48 1007.9C2852.41 1013.97 2836.35 1017.89 2808.28 1005.75Z" fill="white"/>
<path d="M2825.35 2373.1C2783.25 2334.54 2762.64 2288.64 2779.07 2270.69C2795.64 2252.61 2843.05 2269.3 2885.15 2307.86C2927.26 2346.42 2931.05 2376.64 2931.43 2410.27C2897.92 2412.92 2867.45 2411.66 2825.35 2373.1Z" fill="white"/>
<path d="M2828.13 2500.79C2771.74 2509.64 2723.06 2497.25 2719.27 2473.1C2715.48 2448.96 2758.08 2422.28 2814.48 2413.43C2870.87 2404.58 2896.91 2420.38 2923.34 2441.12C2904.5 2468.93 2884.52 2492.07 2828.13 2500.79Z" fill="white"/>
<path d="M2577.15 1297.43C2535.05 1258.87 2514.44 1212.97 2530.88 1195.02C2547.44 1176.94 2594.86 1193.63 2636.96 1232.19C2679.06 1270.75 2682.86 1300.97 2683.24 1334.6C2649.73 1337.25 2619.26 1335.99 2577.15 1297.43Z" fill="white"/>
<path d="M2579.81 1425.12C2523.42 1433.97 2474.74 1421.58 2470.95 1397.43C2467.15 1373.29 2509.76 1346.48 2566.15 1337.76C2622.55 1328.91 2648.59 1344.71 2675.02 1365.45C2656.18 1393.26 2636.2 1416.4 2579.81 1425.12Z" fill="white"/>
<path d="M3837.85 2391.05C3840.76 2448.07 3823.44 2495.23 3799.04 2496.49C3774.63 2497.76 3752.38 2452.62 3749.47 2395.6C3746.44 2338.71 3764.9 2314.31 3788.29 2290.16C3814.08 2311.78 3834.95 2334.03 3837.85 2391.05Z" fill="white"/>
<path d="M3925.47 2298.12C3971.88 2331.38 3997.92 2374.36 3983.63 2394.21C3969.35 2414.06 3920.29 2403.32 3873.89 2370.06C3827.49 2336.81 3820.03 2307.23 3815.73 2273.98C3848.73 2267.4 3879.07 2264.87 3925.47 2298.12Z" fill="white"/>
<path d="M3394.69 2798.29C3437.93 2835.58 3459.93 2880.72 3444 2899.3C3428.07 2917.76 3380.03 2902.59 3336.91 2865.29C3293.67 2828 3288.99 2797.91 3287.6 2764.28C3320.98 2760.61 3351.58 2760.99 3394.69 2798.29Z" fill="white"/>
<path d="M3388.24 2670.72C3444.26 2660.22 3493.44 2671.22 3497.99 2695.12C3502.54 2719.14 3460.69 2747.21 3404.68 2757.7C3348.67 2768.19 3322.12 2753.15 3294.93 2733.3C3313.01 2704.85 3332.23 2681.21 3388.24 2670.72Z" fill="white"/>
<path d="M2677.29 1744.87C2627.35 1772.55 2577.28 1777.61 2565.52 1756.25C2553.64 1734.88 2584.49 1695.05 2634.43 1667.49C2684.37 1639.8 2714.21 1645.75 2746.2 1656.11C2737.98 1688.73 2727.24 1717.3 2677.29 1744.87Z" fill="white"/>
<path d="M2799.3 1782.92C2789.82 1839.18 2762.51 1881.41 2738.36 1877.36C2714.21 1873.32 2702.45 1824.39 2711.94 1768.13C2721.42 1711.87 2744.81 1692.14 2772.88 1673.69C2793.36 1700.36 2808.79 1726.66 2799.3 1782.92Z" fill="white"/>
<path d="M1277.26 1661.17C1226.81 1634.62 1195.08 1595.55 1206.46 1573.93C1217.84 1552.31 1268.03 1556.23 1318.48 1582.91C1368.93 1609.46 1380.43 1637.78 1389.28 1670.15C1357.55 1681.27 1327.71 1687.72 1277.26 1661.17Z" fill="white"/>
<path d="M1312.28 1783.93C1260.07 1806.82 1209.74 1807.2 1199.88 1784.82C1190.02 1762.44 1224.54 1725.65 1276.75 1702.76C1328.97 1679.88 1358.18 1688.6 1389.16 1701.88C1378.03 1733.61 1364.5 1761.05 1312.28 1783.93Z" fill="white"/>
<path d="M2343.25 2083.45C2382.7 2042.23 2429.1 2022.63 2446.67 2039.58C2464.37 2056.52 2446.67 2103.55 2407.1 2144.77C2367.65 2185.98 2337.3 2189.14 2303.67 2188.64C2301.78 2155.01 2303.67 2124.66 2343.25 2083.45Z" fill="white"/>
<path d="M2215.55 2083.19C2207.96 2026.68 2221.49 1978.26 2245.76 1974.97C2270.04 1971.68 2295.71 2014.92 2303.29 2071.43C2310.88 2127.95 2294.44 2153.61 2273.07 2179.66C2245.64 2160.19 2223.13 2139.71 2215.55 2083.19Z" fill="white"/>
<path d="M3317.19 2064.61C3359.29 2103.17 3379.9 2149.06 3363.46 2167.02C3346.9 2185.1 3299.49 2168.41 3257.38 2129.85C3215.28 2091.29 3211.49 2061.07 3211.11 2027.44C3244.61 2024.78 3275.08 2026.05 3317.19 2064.61Z" fill="white"/>
<path d="M3314.53 1936.79C3370.92 1927.94 3419.6 1940.33 3423.39 1964.48C3427.19 1988.62 3384.58 2015.3 3328.19 2024.15C3271.8 2033 3245.75 2017.2 3219.33 1996.46C3238.16 1968.65 3258.14 1945.51 3314.53 1936.79Z" fill="white"/>
<path d="M4064.68 2244.9C4064.68 2267.78 4080.1 2286.24 4099.2 2286.24C4118.29 2286.24 4133.71 2267.78 4133.71 2244.9C4133.71 2222.01 4118.29 2203.55 4099.2 2203.55C4080.1 2203.55 4064.68 2222.14 4064.68 2244.9Z" fill="white"/>
<path d="M3653.51 2108.35C3653.51 2131.24 3668.93 2149.7 3688.03 2149.7C3707.12 2149.7 3722.54 2131.11 3722.54 2108.35C3722.54 2085.6 3707.12 2067.01 3688.03 2067.01C3668.93 2067.01 3653.51 2085.47 3653.51 2108.35Z" fill="white"/>
<path d="M3666.15 2361.21C3666.15 2384.1 3681.58 2402.56 3700.67 2402.56C3719.76 2402.56 3735.19 2383.97 3735.19 2361.21C3735.19 2338.46 3719.76 2319.87 3700.67 2319.87C3681.58 2319.87 3666.15 2338.33 3666.15 2361.21Z" fill="white"/>
<path d="M3615.58 2373.86C3615.58 2396.74 3631 2415.2 3650.09 2415.2C3669.19 2415.2 3684.61 2396.62 3684.61 2373.86C3684.61 2351.1 3669.19 2332.52 3650.09 2332.52C3631 2332.52 3615.58 2350.97 3615.58 2373.86Z" fill="white"/>
<path d="M3223.62 2184.21C3223.62 2207.1 3239.05 2225.55 3258.14 2225.55C3277.23 2225.55 3292.66 2206.97 3292.66 2184.21C3292.66 2161.45 3277.23 2142.87 3258.14 2142.87C3239.05 2142.87 3223.62 2161.33 3223.62 2184.21Z" fill="white"/>
<path d="M2490.29 1653.2C2490.29 1676.09 2505.72 1694.55 2524.81 1694.55C2543.9 1694.55 2559.33 1675.96 2559.33 1653.2C2559.33 1630.45 2543.9 1611.86 2524.81 1611.86C2505.72 1611.86 2490.29 1630.32 2490.29 1653.2Z" fill="white"/>
<path d="M3236.27 1425.63C3236.27 1448.51 3251.69 1466.97 3270.78 1466.97C3289.88 1466.97 3305.3 1448.51 3305.3 1425.63C3305.3 1402.75 3289.88 1384.29 3270.78 1384.29C3251.69 1384.29 3236.27 1402.75 3236.27 1425.63Z" fill="white"/>
<path d="M3463.85 1160.13C3463.85 1183.01 3479.28 1201.47 3498.37 1201.47C3517.46 1201.47 3532.89 1182.88 3532.89 1160.13C3532.89 1137.37 3517.46 1118.78 3498.37 1118.78C3479.28 1118.78 3463.85 1137.24 3463.85 1160.13Z" fill="white"/>
<path d="M3451.21 1514.13C3451.21 1537.01 3466.64 1555.47 3485.73 1555.47C3504.82 1555.47 3520.24 1537.01 3520.24 1514.13C3520.24 1491.25 3504.82 1472.79 3485.73 1472.79C3466.64 1472.79 3451.21 1491.25 3451.21 1514.13Z" fill="white"/>
<path d="M2945.46 1084.27C2945.46 1107.15 2960.89 1125.61 2979.98 1125.61C2999.07 1125.61 3014.5 1107.02 3014.5 1084.27C3014.5 1061.51 2999.07 1042.92 2979.98 1042.92C2960.89 1042.92 2945.46 1061.51 2945.46 1084.27Z" fill="white"/>
<path d="M3010.2 1056.45C3016.9 1078.33 3037 1091.47 3055.21 1085.91C3073.42 1080.35 3082.77 1058.1 3076.07 1036.22C3069.37 1014.35 3049.27 1001.2 3031.06 1006.77C3012.85 1012.33 3003.5 1034.58 3010.2 1056.45Z" fill="white"/>
<path d="M4078.46 2058.79C4078.46 2081.68 4093.89 2100.13 4112.98 2100.13C4132.07 2100.13 4147.5 2081.68 4147.5 2058.79C4147.5 2035.91 4132.07 2017.45 4112.98 2017.45C4093.89 2017.45 4078.46 2035.91 4078.46 2058.79Z" fill="white"/>
<path d="M3182.03 2155.26C3182.03 2178.14 3197.45 2196.6 3216.54 2196.6C3235.64 2196.6 3251.06 2178.02 3251.06 2155.26C3251.06 2132.5 3235.64 2113.92 3216.54 2113.92C3197.45 2113.92 3182.03 2132.37 3182.03 2155.26Z" fill="white"/>
<path d="M2892.36 2513.82C2892.36 2536.7 2907.79 2555.16 2926.88 2555.16C2945.97 2555.16 2961.39 2536.57 2961.39 2513.82C2961.39 2491.06 2945.97 2472.47 2926.88 2472.47C2907.79 2472.47 2892.36 2491.06 2892.36 2513.82Z" fill="white"/>
<path d="M2361.45 2224.16C2361.45 2247.05 2376.88 2265.51 2395.97 2265.51C2415.06 2265.51 2430.49 2247.05 2430.49 2224.16C2430.49 2201.28 2415.06 2182.82 2395.97 2182.82C2376.88 2182.82 2361.45 2201.28 2361.45 2224.16Z" fill="white"/>
<path d="M1733.95 1955.25C1733.95 1978.13 1749.37 1996.59 1768.47 1996.59C1787.56 1996.59 1802.98 1978.13 1802.98 1955.25C1802.98 1932.36 1787.56 1913.9 1768.47 1913.9C1749.37 1913.9 1733.95 1932.36 1733.95 1955.25Z" fill="white"/>
<path d="M2251.07 1548.52C2251.07 1571.4 2266.5 1589.86 2285.59 1589.86C2304.68 1589.86 2320.11 1571.28 2320.11 1548.52C2320.11 1525.76 2304.68 1507.18 2285.59 1507.18C2266.5 1507.18 2251.07 1525.76 2251.07 1548.52Z" fill="white"/>
<path d="M2188.99 1603.64C2188.99 1626.53 2204.42 1644.99 2223.51 1644.99C2242.6 1644.99 2258.03 1626.53 2258.03 1603.64C2258.03 1580.76 2242.6 1562.3 2223.51 1562.3C2204.42 1562.3 2188.99 1580.76 2188.99 1603.64Z" fill="white"/>
<path d="M1402.94 1886.34C1402.94 1909.22 1418.36 1927.68 1437.46 1927.68C1456.55 1927.68 1471.97 1909.22 1471.97 1886.34C1471.97 1863.46 1456.55 1845 1437.46 1845C1418.36 1845 1402.94 1863.58 1402.94 1886.34Z" fill="white"/>
<path d="M1643.17 2108.35C1643.17 2131.24 1658.59 2149.7 1677.69 2149.7C1696.78 2149.7 1712.2 2131.11 1712.2 2108.35C1712.2 2085.6 1696.78 2067.01 1677.69 2067.01C1658.59 2067.01 1643.17 2085.47 1643.17 2108.35Z" fill="white"/>
<path d="M1707.14 2139.08C1702.34 2161.45 1713.59 2182.82 1732.18 2186.74C1750.77 2190.79 1769.73 2175.87 1774.54 2153.62C1779.34 2131.24 1768.09 2109.87 1749.5 2105.95C1730.91 2102.03 1711.95 2116.82 1707.14 2139.2V2139.08Z" fill="white"/>
<path d="M1437.46 1638.16C1437.46 1661.04 1452.88 1679.5 1471.97 1679.5C1491.07 1679.5 1506.49 1660.92 1506.49 1638.16C1506.49 1615.4 1491.07 1596.82 1471.97 1596.82C1452.88 1596.82 1437.46 1615.4 1437.46 1638.16Z" fill="white"/>
<path d="M2515.58 923.321C2515.58 946.205 2531.01 964.664 2550.1 964.664C2569.19 964.664 2584.61 946.079 2584.61 923.321C2584.61 900.564 2569.19 881.979 2550.1 881.979C2531.01 881.979 2515.58 900.564 2515.58 923.321Z" fill="white"/>
<path d="M3671.59 1238.13C3671.59 1261.02 3687.01 1279.48 3706.11 1279.48C3725.2 1279.48 3740.62 1260.89 3740.62 1238.13C3740.62 1215.38 3725.2 1196.79 3706.11 1196.79C3687.01 1196.79 3671.59 1215.25 3671.59 1238.13Z" fill="white"/>
<path d="M3740.62 1286.43C3740.62 1309.31 3756.05 1327.77 3775.14 1327.77C3794.23 1327.77 3809.66 1309.19 3809.66 1286.43C3809.66 1263.67 3794.23 1245.09 3775.14 1245.09C3756.05 1245.09 3740.62 1263.67 3740.62 1286.43Z" fill="white"/>
<path d="M3892.22 996.903C3892.22 1019.79 3907.65 1038.25 3926.74 1038.25C3945.83 1038.25 3961.25 1019.66 3961.25 996.903C3961.25 974.146 3945.83 955.561 3926.74 955.561C3907.65 955.561 3892.22 974.146 3892.22 996.903Z" fill="white"/>
<path d="M3519.87 1100.32C3519.87 1123.21 3535.29 1141.67 3554.38 1141.67C3573.47 1141.67 3588.9 1123.08 3588.9 1100.32C3588.9 1077.57 3573.47 1058.98 3554.38 1058.98C3535.29 1058.98 3519.87 1077.57 3519.87 1100.32Z" fill="white"/>
<path d="M3450.96 1052.03C3450.96 1074.91 3466.38 1093.37 3485.47 1093.37C3504.57 1093.37 3519.99 1074.79 3519.99 1052.03C3519.99 1029.27 3504.57 1010.69 3485.47 1010.69C3466.38 1010.69 3450.96 1029.27 3450.96 1052.03Z" fill="white"/>
<path d="M3271.67 1376.07C3271.67 1398.95 3287.09 1417.41 3306.19 1417.41C3325.28 1417.41 3340.7 1398.95 3340.7 1376.07C3340.7 1353.19 3325.28 1334.73 3306.19 1334.73C3287.09 1334.73 3271.67 1353.19 3271.67 1376.07Z" fill="white"/>
<path d="M2988.96 1479.49C2988.96 1502.37 3004.38 1520.83 3023.48 1520.83C3042.57 1520.83 3057.99 1502.37 3057.99 1479.49C3057.99 1456.61 3042.57 1438.15 3023.48 1438.15C3004.38 1438.15 2988.96 1456.61 2988.96 1479.49Z" fill="white"/>
<path d="M2961.39 907.265C2961.39 930.149 2976.82 948.607 2995.91 948.607C3015 948.607 3030.43 930.022 3030.43 907.265C3030.43 884.507 3015 865.922 2995.91 865.922C2976.82 865.922 2961.39 884.507 2961.39 907.265Z" fill="white"/>
<path d="M2830.28 783.11C2830.28 805.994 2845.71 824.453 2864.8 824.453C2883.89 824.453 2899.31 805.868 2899.31 783.11C2899.31 760.353 2883.89 741.768 2864.8 741.768C2845.71 741.768 2830.28 760.353 2830.28 783.11Z" fill="white"/>
<path d="M2499.4 596.878C2499.4 619.762 2514.82 638.221 2533.91 638.221C2553.01 638.221 2568.43 619.635 2568.43 596.878C2568.43 574.12 2553.01 555.535 2533.91 555.535C2514.82 555.535 2499.4 574.12 2499.4 596.878Z" fill="white"/>
<path d="M2212.13 426.829C2212.13 449.713 2227.56 468.172 2246.65 468.172C2265.74 468.172 2281.17 449.587 2281.17 426.829C2281.17 404.072 2265.74 385.486 2246.65 385.486C2227.56 385.486 2212.13 404.072 2212.13 426.829Z" fill="white"/>
<path d="M2175.21 576.27C2175.21 599.154 2190.64 617.613 2209.73 617.613C2228.82 617.613 2244.25 599.028 2244.25 576.27C2244.25 553.513 2228.82 534.928 2209.73 534.928C2190.64 534.928 2175.21 553.513 2175.21 576.27Z" fill="white"/>
<path d="M1644.31 1052.03C1644.31 1074.91 1659.73 1093.37 1678.82 1093.37C1697.92 1093.37 1713.34 1074.79 1713.34 1052.03C1713.34 1029.27 1697.92 1010.69 1678.82 1010.69C1659.73 1010.69 1644.31 1029.27 1644.31 1052.03Z" fill="white"/>
<path d="M1458.06 1107.15C1458.06 1130.04 1473.49 1148.49 1492.58 1148.49C1511.67 1148.49 1527.1 1130.04 1527.1 1107.15C1527.1 1084.27 1511.67 1065.81 1492.58 1065.81C1473.49 1065.81 1458.06 1084.39 1458.06 1107.15Z" fill="white"/>
<path d="M1440.87 919.907C1440.87 942.791 1456.29 961.25 1475.39 961.25C1494.48 961.25 1509.9 942.665 1509.9 919.907C1509.9 897.15 1494.48 878.564 1475.39 878.564C1456.29 878.564 1440.87 897.15 1440.87 919.907Z" fill="white"/>
<path d="M2039.17 2352.62C2046.63 2374.24 2067.11 2386.75 2085.19 2380.56C2103.27 2374.36 2111.87 2351.86 2104.41 2330.24C2097.07 2308.62 2076.47 2296.1 2058.39 2302.3C2040.43 2308.49 2031.83 2331 2039.17 2352.62Z" fill="white"/>
<path d="M552.907 3308.68C558.976 3308.68 563.654 3309.19 566.688 3310.2C569.723 3310.2 572.251 3309.19 574.401 3307.17C582.619 3310.2 591.723 3311.72 601.964 3311.72H634.079C641.286 3314.75 646.343 3316.78 649.378 3317.79H657.09C664.297 3319.81 669.355 3320.82 672.389 3320.82C675.424 3320.82 677.952 3321.83 680.102 3323.85C686.171 3326.89 693.883 3329.42 703.113 3331.57C708.171 3332.58 714.366 3333.59 721.446 3334.6C728.653 3335.61 734.722 3336.12 739.78 3336.12C742.814 3339.15 746.354 3341.18 750.527 3342.19C754.573 3342.19 758.745 3343.2 762.791 3345.22C764.814 3347.24 767.343 3348.76 770.504 3349.77C773.538 3350.78 776.067 3352.3 778.216 3354.32C783.274 3354.32 787.952 3356.35 791.998 3360.39C796.044 3363.43 799.711 3366.46 802.745 3369.62C812.986 3372.66 820.067 3375.19 824.239 3377.34C837.515 3382.39 845.101 3385.05 847.251 3385.05C849.4 3385.05 851.297 3385.55 853.32 3386.56C862.549 3394.78 867.101 3399.33 867.101 3400.35C868.113 3400.35 869.63 3401.36 871.653 3403.38C882.906 3410.59 889.48 3415.14 891.503 3417.16C893.526 3418.17 896.561 3418.17 900.733 3417.16C909.963 3424.37 915.526 3427.91 917.549 3427.91C919.572 3427.91 921.595 3428.41 923.618 3429.42C926.653 3432.46 929.182 3434.99 931.331 3437.14C933.354 3439.16 935.377 3441.18 937.4 3443.21C942.457 3447.25 946.124 3450.92 948.147 3453.95C950.17 3456.99 952.193 3459.51 954.216 3461.66C961.423 3464.7 964.963 3467.23 964.963 3469.38C965.974 3470.39 967.492 3470.39 969.515 3469.38L981.779 3481.64C988.986 3492.89 993.032 3498.46 994.043 3498.46C995.055 3498.46 996.066 3499.47 997.078 3501.49C1002.14 3507.56 1005.3 3511.73 1006.31 3513.75C1008.33 3515.78 1010.35 3517.8 1012.38 3519.82C1019.58 3530.06 1023.63 3535.12 1024.64 3535.12C1026.66 3535.12 1028.18 3535.63 1029.19 3536.64C1036.4 3543.84 1040.45 3548.9 1041.46 3551.94C1042.47 3553.96 1042.97 3556.49 1042.97 3559.65C1046.01 3562.68 1049.04 3565.21 1052.2 3567.36C1055.24 3568.37 1057.77 3570.9 1059.92 3575.07C1060.93 3579.12 1061.94 3582.28 1062.95 3584.3C1063.96 3586.32 1064.97 3588.85 1065.99 3592.01C1071.04 3597.07 1074.2 3600.74 1075.22 3602.76C1076.23 3604.78 1077.74 3606.3 1079.77 3607.31C1081.79 3614.52 1084.32 3621.09 1087.48 3627.16C1091.53 3632.22 1095.19 3637.91 1098.23 3643.98C1102.27 3657.25 1105.43 3665.98 1107.46 3670.02C1108.47 3672.04 1108.97 3674.57 1108.97 3677.73C1109.99 3680.77 1111 3683.8 1112.01 3686.96C1118.08 3696.19 1121.24 3702.77 1121.24 3706.81C1121.24 3710.86 1122.25 3715.54 1124.27 3720.59C1127.31 3729.82 1129.33 3735.89 1130.34 3738.93C1131.35 3740.95 1131.86 3742.97 1131.86 3744.99C1134.89 3760.29 1135.91 3771.04 1134.89 3777.11C1134.89 3782.17 1135.4 3787.85 1136.41 3793.92C1138.43 3803.15 1139.45 3808.72 1139.45 3810.74C1140.46 3811.75 1141.47 3813.27 1142.48 3815.29C1143.49 3825.53 1144 3830.59 1144 3830.59C1145.01 3830.59 1145.51 3831.6 1145.51 3833.62C1146.53 3837.67 1147.03 3842.35 1147.03 3847.4C1148.04 3852.46 1149.56 3857.14 1151.58 3861.18C1151.58 3866.24 1151.08 3870.41 1150.07 3873.45C1150.07 3876.48 1150.57 3879.52 1151.58 3882.68V3899.49C1152.59 3907.71 1152.59 3912.26 1151.58 3913.27V3917.83C1150.57 3921.87 1150.07 3926.04 1150.07 3930.09C1151.08 3934.13 1151.58 3938.31 1151.58 3942.35C1151.58 3949.56 1151.08 3956.13 1150.07 3962.2C1149.05 3968.27 1148.55 3974.97 1148.55 3982.05V3997.35C1149.56 3997.35 1150.07 3997.86 1150.07 3998.87C1148.04 4014.17 1145.01 4026.43 1140.84 4035.66C1141.85 4040.72 1141.85 4045.9 1140.84 4050.96C1139.82 4055 1138.81 4059.68 1137.8 4064.74C1135.78 4069.79 1134.26 4074.47 1133.25 4078.52C1133.25 4081.55 1132.24 4085.09 1130.22 4089.26C1125.16 4099.51 1122 4106.59 1120.99 4110.76C1119.97 4113.79 1119.47 4117.96 1119.47 4123.02C1114.41 4128.08 1110.74 4134.27 1108.72 4141.35C1107.71 4147.42 1104.17 4152.61 1097.97 4156.65C1090.77 4166.89 1087.23 4172.96 1087.23 4174.98C1087.23 4177.01 1086.72 4179.03 1085.71 4181.05C1083.69 4185.1 1080.65 4189.78 1076.48 4194.83C1073.45 4198.88 1070.92 4203.56 1068.77 4208.62C1063.71 4215.82 1060.04 4220.37 1058.02 4222.4C1053.97 4229.6 1050.31 4234.66 1047.27 4237.69C1045.25 4239.72 1043.23 4242.75 1041.2 4246.92C1039.18 4249.96 1036.65 4252.99 1033.49 4256.15C1031.47 4259.19 1029.95 4263.36 1028.94 4268.42C1021.73 4274.49 1017.69 4278.66 1016.68 4280.68C1016.68 4282.7 1016.17 4284.73 1015.16 4286.75C1010.1 4293.96 1006.94 4298 1005.93 4299.01C1005.93 4300.02 1004.92 4301.04 1002.89 4302.05C995.687 4308.12 990.63 4312.79 987.595 4315.83C985.572 4318.86 983.549 4321.39 981.526 4323.54C971.285 4331.76 964.71 4336.82 961.676 4338.84C958.641 4340.86 956.112 4343.39 953.963 4346.55C945.745 4354.77 941.699 4358.81 941.699 4358.81C941.699 4357.8 940.687 4357.3 938.664 4357.3C929.434 4366.53 923.365 4372.6 920.331 4375.63C918.308 4378.66 915.779 4381.19 912.618 4383.34C909.584 4385.36 906.044 4387.89 901.871 4391.05C898.837 4394.09 895.802 4396.62 892.641 4398.77C890.618 4400.79 888.09 4402.81 884.929 4404.83C881.894 4406.86 879.365 4408.88 877.216 4410.9C867.986 4418.11 862.423 4422.16 860.4 4423.17C859.389 4423.17 858.377 4424.18 857.366 4426.2C850.159 4428.22 843.078 4431.26 835.871 4435.43C829.802 4439.48 823.101 4442.64 816.021 4444.66C804.768 4449.72 798.193 4453.38 796.17 4455.41C794.147 4456.42 792.124 4457.43 790.101 4458.44C779.86 4461.48 774.297 4462.99 773.285 4462.99C773.285 4461.98 772.274 4461.98 770.251 4462.99C758.998 4467.04 751.412 4469.06 747.239 4469.06C744.205 4468.05 740.033 4468.56 734.975 4470.58C723.722 4473.61 718.159 4475.13 718.159 4475.13C701.849 4478.16 690.09 4480.69 682.883 4482.84C675.676 4484.87 668.596 4486.38 661.389 4487.39C657.343 4488.41 650.136 4488.91 639.895 4488.91C634.837 4490.93 630.665 4491.95 627.63 4491.95C625.608 4492.96 623.585 4493.97 621.562 4494.98C611.32 4495.99 603.228 4495.99 597.033 4494.98C590.964 4493.97 582.746 4494.98 572.504 4498.01C568.458 4495.99 563.78 4495.49 558.723 4496.5C554.677 4497.51 551.516 4497 549.493 4494.98C539.251 4494.98 532.171 4495.49 527.999 4496.5C523.953 4497.51 520.286 4498.01 517.251 4498.01C507.01 4497 499.93 4495.99 495.757 4494.98C492.723 4494.98 490.194 4495.49 488.045 4496.5C480.838 4493.46 476.286 4491.44 474.263 4490.43C473.252 4490.43 471.734 4490.93 469.711 4491.95L452.895 4488.91C442.654 4484.87 436.079 4482.84 433.045 4482.84C430.01 4483.85 426.976 4483.85 423.815 4482.84C418.757 4481.83 414.079 4480.31 410.033 4478.29C405.987 4476.27 401.815 4476.27 397.769 4478.29C388.539 4472.22 381.964 4468.56 377.918 4467.54C374.884 4465.52 371.344 4464 367.171 4462.99C357.942 4455.79 352.378 4451.74 350.355 4450.73C349.344 4449.72 347.827 4448.71 345.804 4447.69C334.551 4443.65 328.482 4441.12 327.47 4439.98C326.459 4438.97 324.942 4438.47 322.919 4438.47C314.7 4432.4 310.149 4429.74 309.137 4430.75C309.137 4430.75 308.126 4430.25 306.103 4429.24C295.861 4420.01 290.804 4415.45 290.804 4415.45C291.815 4414.44 291.31 4412.93 289.287 4410.9C280.057 4406.86 275.505 4404.83 275.505 4404.83C275.505 4403.82 274.999 4403.32 273.988 4403.32L257.172 4389.54L241.873 4380.31C233.654 4371.08 229.609 4366.02 229.609 4365.01L215.827 4354.26C204.574 4345.03 196.988 4339.47 192.815 4337.45C189.781 4334.41 185.609 4331.38 180.551 4328.22C176.505 4321.01 173.976 4316.97 172.839 4315.95C172.839 4314.94 171.827 4313.93 169.804 4312.92C162.597 4301.67 158.045 4295.09 156.022 4293.07C153.999 4290.04 151.471 4287.51 148.31 4285.36C145.275 4276.13 139.586 4268.04 131.494 4260.83C124.287 4250.59 119.735 4244.52 117.712 4242.5C115.689 4238.45 113.161 4234.79 110 4231.75C107.977 4227.71 105.954 4223.03 103.931 4217.97C98.8732 4211.9 94.7008 4207.22 91.6663 4204.19C86.6089 4194.96 83.9537 4189.9 83.9537 4188.89C81.9307 4186.87 79.402 4181.18 76.2411 4172.08C69.0342 4158.8 64.9882 4150.58 63.9767 4147.55C57.9078 4136.3 54.7469 4129.72 54.7469 4127.7C54.7469 4125.68 53.7354 4123.65 51.7124 4121.63C47.6664 4110.38 45.1377 4103.8 43.9998 4101.78L37.9308 4080.29C33.8848 4071.06 31.3561 4062.97 30.2182 4055.76C29.2067 4048.55 27.1837 4041.98 24.1492 4035.91C23.1377 4029.84 22.1263 4025.67 21.1148 4023.65C21.1148 4020.61 20.1033 4017.07 18.0803 4012.9C12.0113 3993.56 9.35617 3976.62 10.3677 3962.33V3951.58C11.3792 3948.55 11.8849 3945.01 11.8849 3940.84C10.8734 3936.79 9.86192 3932.62 8.85043 3928.57C8.85043 3924.53 8.34468 3919.85 7.33319 3914.79C8.34468 3904.55 7.83894 3897.98 5.81595 3894.94C4.80446 3891.91 4.80446 3888.37 5.81595 3884.19C3.79297 3878.13 3.28722 3873.95 4.29871 3871.93C5.31021 3868.9 5.81595 3864.72 5.81595 3859.67V3847.4C6.82744 3846.39 7.33319 3844.87 7.33319 3842.85C8.34468 3838.81 8.85043 3834.63 8.85043 3830.59C8.85043 3826.54 9.35617 3822.37 10.3677 3818.32C11.3792 3809.1 11.8849 3803.03 11.8849 3799.99C11.8849 3796.96 12.3906 3792.79 13.4021 3787.73C15.4251 3774.45 16.9424 3767.37 17.9539 3766.24C19.9768 3754.98 20.9883 3747.9 20.9883 3744.74C20.9883 3741.58 21.4941 3738.67 22.5056 3735.51C26.5515 3728.31 28.5745 3724.26 28.5745 3723.25C28.5745 3721.23 29.586 3719.71 31.609 3718.7C32.6205 3706.43 34.1377 3697.2 36.1607 3691.14C43.3676 3679.88 46.9078 3673.81 46.9078 3672.8C46.9078 3670.78 47.4136 3668.76 48.425 3666.73C49.4365 3664.71 50.9538 3662.69 52.9768 3660.67C54.9997 3657.63 57.0227 3654.6 59.0457 3651.44C62.0802 3646.38 64.6089 3641.2 66.7583 3636.14C69.7928 3630.07 73.333 3624.38 77.5054 3619.32C75.4824 3616.29 75.9882 3613.25 79.0227 3610.09C82.0571 3607.06 82.5629 3604.02 80.5399 3600.86C84.5859 3596.82 87.7468 3592.14 89.7698 3587.08C92.8042 3582.03 96.3445 3577.85 100.517 3574.82C100.517 3569.76 101.528 3565.59 103.551 3562.56C106.586 3559.52 109.115 3556.49 111.264 3553.33C113.287 3549.28 115.816 3546.12 118.977 3544.1C123.023 3541.06 126.689 3538.03 129.724 3534.87C136.931 3526.65 140.471 3522.1 140.471 3521.09C140.471 3520.07 140.977 3519.06 141.988 3518.05C147.045 3510.85 150.206 3506.8 151.218 3505.79C153.241 3504.78 154.758 3502.75 155.77 3499.72C159.816 3498.71 162.976 3496.69 164.999 3493.65C168.034 3490.62 171.068 3488.09 174.229 3485.94C179.287 3481.89 182.448 3479.87 183.459 3479.87C185.482 3478.86 187.505 3477.34 189.528 3475.32C195.597 3468.11 200.275 3463.06 203.31 3460.02C205.333 3458 207.356 3455.97 209.379 3453.95C211.402 3451.93 213.425 3449.91 215.448 3447.88C223.666 3439.67 228.218 3435.62 229.229 3435.62C236.436 3431.57 240.482 3429.05 241.494 3427.91C243.517 3425.88 246.551 3424.37 250.723 3423.36L262.988 3411.09C270.195 3403.89 274.241 3399.84 275.252 3398.83C276.264 3397.82 277.275 3396.3 278.287 3394.28L295.103 3383.53C302.309 3376.32 307.873 3372.78 311.919 3372.78C322.16 3366.71 328.229 3363.55 330.252 3363.55C333.286 3363.55 336.321 3362.54 339.482 3360.52C348.712 3358.5 355.286 3356.98 359.332 3355.97C365.401 3351.92 369.574 3349.9 371.597 3349.9C373.62 3348.89 375.643 3347.88 377.666 3346.87C390.941 3347.88 400.677 3346.87 406.746 3343.83C412.815 3340.8 418.505 3338.27 423.562 3336.12C430.769 3332.07 436.332 3328.91 440.378 3326.89C444.424 3323.86 449.102 3321.83 454.16 3320.82C466.424 3319.81 474.01 3318.8 477.171 3317.79C480.206 3316.78 484.378 3316.27 489.435 3316.27L512.447 3311.72C522.688 3309.69 528.757 3309.19 530.78 3310.2C533.815 3311.21 536.343 3311.72 538.493 3311.72L552.274 3308.68H552.907ZM823.86 3674.57C823.86 3669.52 822.343 3665.34 819.308 3662.31C817.285 3658.26 815.262 3653.59 813.239 3648.53C804.009 3639.3 797.94 3633.74 794.906 3631.71C792.883 3629.69 790.354 3627.67 787.193 3625.64C779.986 3617.43 773.918 3611.86 768.86 3608.83C762.791 3601.62 758.619 3598.08 756.596 3598.08C755.584 3598.08 755.078 3597.07 755.078 3595.05L739.78 3585.82C730.55 3578.61 720.435 3572.54 709.182 3567.49L692.366 3562.93C680.102 3557.88 673.021 3554.21 670.872 3552.19C663.665 3548.14 658.607 3546.12 655.573 3546.12C652.539 3546.12 650.01 3545.61 647.86 3544.6C636.608 3540.56 630.033 3538.03 628.01 3536.89C617.768 3535.88 611.7 3534.87 609.677 3533.86C607.654 3531.83 605.631 3531.83 603.608 3533.86H580.596C571.366 3534.87 564.286 3535.88 559.102 3536.89C554.044 3536.89 549.366 3537.9 545.32 3539.92C532.045 3542.96 523.32 3544.48 519.274 3544.48C515.229 3544.48 510.55 3545.49 505.493 3547.51C497.275 3550.54 492.217 3552.57 490.194 3553.58C488.171 3554.59 486.654 3554.59 485.642 3553.58C476.413 3555.6 471.355 3557.12 470.344 3558.13C469.332 3558.13 468.321 3558.64 467.309 3559.65L452.01 3567.36C447.964 3569.38 444.298 3571.41 441.263 3573.43C439.24 3574.44 437.217 3575.96 435.194 3577.98C422.93 3587.21 415.849 3592.27 413.7 3593.28C404.47 3601.5 399.918 3605.04 399.918 3604.02C389.677 3618.31 382.091 3628.05 376.907 3633.1C372.861 3637.15 369.194 3641.83 366.16 3646.88C361.102 3647.9 357.436 3650.42 355.413 3654.6C353.39 3658.64 350.355 3661.8 346.183 3663.83C344.16 3669.9 341.631 3675.08 338.47 3679.12C335.436 3683.17 332.907 3688.35 330.758 3694.42C325.7 3702.64 321.022 3709.72 316.976 3715.92C313.942 3720.97 311.413 3726.16 309.263 3731.21C307.241 3738.42 306.229 3743.98 306.229 3748.03C301.172 3756.25 298.516 3761.3 298.516 3763.33C299.528 3764.34 300.034 3765.35 300.034 3766.36C300.034 3773.57 299.528 3778.12 298.516 3780.14V3786.21C296.493 3797.46 294.976 3803.53 293.965 3804.54V3806.06C290.93 3817.31 289.413 3823.38 289.413 3824.39C290.424 3825.4 290.424 3826.92 289.413 3828.94C285.367 3841.21 283.344 3850.94 283.344 3858.02C284.355 3864.09 284.861 3869.78 284.861 3874.84C283.85 3882.05 283.344 3887.61 283.344 3891.65C284.355 3894.69 284.861 3897.72 284.861 3900.88C282.838 3914.16 281.827 3922.88 281.827 3926.93C282.838 3929.96 283.344 3933.5 283.344 3937.67C283.344 3940.71 282.838 3943.74 281.827 3946.9C281.827 3949.94 282.333 3952.97 283.344 3956.13C284.355 3958.16 285.367 3960.68 286.378 3963.85C287.39 3967.01 287.896 3969.91 287.896 3973.08C288.907 3984.33 289.413 3990.4 289.413 3991.41C290.424 3992.42 290.93 3993.94 290.93 3995.96C292.953 4004.18 293.459 4011.26 292.447 4017.45C292.447 4022.51 294.47 4027.69 298.516 4032.75V4045.01C299.528 4050.07 300.539 4053.74 301.551 4055.76C305.597 4061.83 308.126 4067.01 309.263 4071.06L318.493 4087.87C319.505 4092.93 321.022 4097.1 323.045 4100.14C325.068 4103.17 326.585 4106.71 327.597 4110.88C332.654 4115.94 337.332 4121.63 341.378 4127.7C345.424 4132.76 348.585 4139.46 350.608 4147.55C352.631 4149.57 355.16 4151.59 358.321 4153.62C361.355 4155.64 363.884 4158.68 366.033 4162.85C377.286 4173.09 383.861 4179.66 385.884 4182.7C390.941 4184.72 395.62 4187.75 399.666 4191.93C404.723 4194.96 409.907 4198.5 414.964 4202.67C417.999 4204.7 421.033 4207.22 424.194 4210.38C427.229 4212.41 429.757 4213.93 431.907 4214.94C439.114 4221.01 444.171 4224.17 447.206 4224.17C450.24 4224.17 452.769 4224.67 454.918 4225.68C466.171 4229.73 472.24 4232.26 473.252 4233.4C484.504 4237.44 490.068 4239.46 490.068 4239.46C502.332 4244.52 510.424 4247.68 514.596 4248.69C518.642 4249.7 521.803 4250.72 523.826 4251.73C535.079 4253.75 541.654 4254.26 543.677 4253.24C546.711 4252.23 549.24 4251.73 551.389 4251.73H568.205C569.217 4250.72 570.734 4250.21 572.757 4250.21C586.033 4253.25 593.619 4254.76 595.769 4254.76C598.803 4253.75 601.837 4252.74 604.998 4251.73C613.217 4248.69 622.826 4248.19 634.079 4250.21C639.136 4248.19 643.814 4246.67 647.86 4245.66C652.918 4243.64 657.596 4241.61 661.642 4239.59C666.699 4236.56 670.366 4235.54 672.389 4236.56C675.424 4236.56 677.952 4236.05 680.102 4235.04C690.343 4230.99 695.906 4228.46 696.918 4227.33C704.125 4222.27 709.182 4220.12 712.217 4221.26H721.446C726.504 4220.25 730.171 4218.73 732.193 4216.71C734.216 4213.67 737.251 4211.65 741.423 4210.64C749.642 4208.62 755.205 4206.09 758.239 4202.93C770.504 4197.87 777.078 4194.71 778.09 4193.7C779.101 4191.67 780.619 4190.66 782.642 4190.66C794.906 4178.4 801.986 4170.31 804.136 4166.13C811.343 4160.07 815.894 4155.89 817.917 4153.87C819.94 4144.64 822.469 4138.57 825.63 4135.54C831.699 4133.52 835.366 4131.49 836.377 4129.47C838.4 4126.44 839.917 4123.91 840.929 4121.76C845.986 4112.53 849.147 4107.47 850.159 4106.46C851.17 4105.45 851.676 4104.44 851.676 4103.42C853.699 4095.21 854.205 4090.66 853.193 4089.64V4085.09C859.262 4076.87 863.434 4068.28 865.457 4059.05C866.469 4053.99 867.481 4048.3 868.492 4042.23C870.515 4035.03 872.538 4030.47 874.561 4028.45C878.607 4017.2 881.136 4010.12 882.273 4006.96C883.285 4002.91 884.297 3998.74 885.308 3994.69C886.319 3987.49 887.331 3982.94 888.343 3980.91C889.354 3977.88 889.86 3975.35 889.86 3973.2C888.848 3961.95 888.848 3955.88 889.86 3954.87C890.871 3952.85 890.365 3950.82 888.343 3948.8C891.377 3935.53 892.894 3927.31 892.894 3924.27C891.883 3915.04 891.377 3908.97 891.377 3905.94C892.388 3901.89 891.883 3898.73 889.86 3896.71C891.883 3884.45 891.377 3872.18 888.343 3859.92L883.791 3841.59C880.756 3832.36 879.239 3826.29 879.239 3823.26C878.228 3812 876.205 3804.42 873.17 3800.24C869.124 3792.03 867.101 3786.46 867.101 3783.43C868.113 3780.4 868.618 3777.87 868.618 3775.72C867.607 3772.68 866.09 3769.65 864.067 3766.49C863.055 3763.45 862.044 3760.42 861.032 3757.26C860.021 3746.01 859.009 3739.43 857.998 3737.41C852.94 3727.17 850.285 3721.1 850.285 3719.08C845.228 3707.82 842.572 3700.74 842.572 3697.58C842.572 3693.54 841.561 3688.86 839.538 3683.8C834.481 3683.8 830.814 3682.29 828.791 3679.25C827.779 3676.22 826.262 3674.7 824.239 3674.7L823.86 3674.57Z" fill="white"/>
<path d="M1921.58 4222.65C1911.34 4225.68 1905.78 4227.71 1904.76 4228.72C1904.76 4229.73 1903.75 4230.74 1901.73 4231.75L1887.95 4244.02C1877.71 4251.22 1872.65 4254.76 1872.65 4254.76C1865.57 4259.82 1860.39 4263.49 1857.35 4265.51C1855.33 4267.53 1853.3 4269.56 1851.28 4271.58C1849.26 4273.6 1847.24 4275.62 1845.21 4277.65C1835.98 4286.88 1830.93 4291.93 1829.91 4292.94C1828.9 4293.96 1827.39 4294.97 1825.36 4295.98C1819.29 4299.01 1814.62 4303.19 1811.58 4308.24C1799.32 4316.46 1791.6 4321.01 1788.57 4322.02C1777.32 4329.23 1771.25 4333.28 1770.24 4334.29C1770.24 4335.3 1769.22 4336.31 1767.2 4337.32C1755.95 4341.37 1748.87 4343.39 1745.83 4343.39C1743.81 4343.39 1741.79 4343.9 1739.64 4344.91C1723.33 4353.13 1710.05 4356.16 1699.81 4354.14C1691.59 4352.11 1684.51 4349.08 1678.32 4344.91C1670.22 4340.86 1664.03 4338.33 1659.98 4337.2C1656.95 4336.18 1653.91 4334.67 1650.75 4332.64C1644.56 4326.58 1640.51 4322.91 1638.49 4321.9C1636.47 4319.87 1634.44 4317.85 1632.42 4315.83C1627.36 4310.77 1620.66 4308.12 1612.44 4308.12C1603.21 4298.89 1597.14 4294.34 1594.11 4294.34C1592.09 4293.32 1589.56 4291.81 1586.4 4289.78C1580.33 4284.73 1575.65 4280.55 1572.62 4277.52C1565.41 4270.31 1560.35 4265.26 1557.32 4262.22C1551.25 4252.99 1547.08 4247.43 1545.05 4245.41C1543.03 4243.38 1541.01 4241.36 1538.98 4239.34C1527.73 4237.32 1522.17 4237.82 1522.17 4240.86C1523.18 4242.88 1523.18 4244.9 1522.17 4246.92C1521.16 4248.95 1520.14 4251.48 1519.13 4254.64L1516.1 4263.87C1513.06 4275.12 1511.55 4281.19 1511.55 4282.2C1507.5 4293.45 1504.85 4299.52 1503.96 4300.53V4303.57L1499.41 4321.9C1498.4 4334.16 1497.39 4341.75 1496.37 4344.91C1495.36 4358.18 1492.83 4368.42 1488.66 4375.5C1484.62 4388.78 1482.09 4395.86 1480.95 4397L1477.91 4413.81C1476.9 4422.03 1475.89 4427.59 1474.88 4430.63V4441.37C1471.85 4450.6 1468.18 4457.18 1464.13 4461.22C1461.1 4469.44 1459.58 4473.99 1459.58 4475C1460.59 4476.02 1460.59 4477.03 1459.58 4478.04C1454.52 4482.08 1450.86 4485.25 1448.83 4487.27C1446.81 4490.3 1444.79 4492.83 1442.77 4494.98C1435.56 4497 1428.98 4497.51 1422.92 4496.5C1407.62 4495.49 1394.85 4493.97 1384.6 4491.95C1379.55 4489.92 1373.86 4487.39 1367.79 4484.23C1362.73 4482.21 1357.04 4480.19 1350.97 4478.17C1336.69 4472.1 1328.97 4468.94 1327.96 4468.94C1318.73 4466.91 1313.17 4465.4 1311.15 4464.38C1310.13 4463.37 1308.62 4462.36 1306.59 4461.35C1296.35 4458.32 1290.79 4456.29 1289.78 4455.28C1288.77 4453.26 1287.75 4453.26 1286.74 4455.28C1273.47 4451.24 1264.74 4449.72 1260.7 4450.73C1257.66 4450.73 1255.13 4449.72 1252.98 4447.7C1244.77 4440.49 1239.71 4436.44 1237.69 4435.43C1236.67 4433.41 1234.15 4432.4 1229.97 4432.4C1221.75 4425.19 1215.18 4420.13 1210.12 4417.1C1205.06 4408.88 1199.88 4403.32 1194.82 4400.28C1188.75 4396.24 1185.59 4389.54 1185.59 4380.43C1185.59 4375.38 1186.1 4371.21 1187.11 4368.17C1188.12 4365.14 1189.64 4361.6 1191.66 4357.42C1195.71 4348.19 1198.24 4342.63 1199.38 4340.61C1200.39 4337.57 1201.9 4334.54 1203.93 4331.38C1207.97 4323.16 1211.13 4317.6 1213.16 4314.56C1215.18 4311.53 1216.7 4308.5 1217.71 4305.34C1218.72 4301.29 1220.24 4298.13 1222.26 4296.11C1224.28 4291.05 1225.8 4285.86 1226.81 4280.81C1227.82 4274.74 1230.86 4270.06 1236.04 4267.03C1239.08 4254.76 1242.11 4247.18 1245.27 4244.02C1244.26 4240.98 1244.77 4236.81 1246.79 4231.75C1249.82 4225.68 1251.85 4221.51 1252.86 4219.49C1258.93 4205.2 1263.61 4194.96 1266.64 4188.89C1270.69 4181.69 1274.35 4174.1 1277.39 4165.88C1282.44 4154.63 1285.61 4148.06 1286.62 4146.03C1287.63 4144.01 1288.64 4141.99 1289.65 4139.96C1293.7 4129.72 1295.72 4124.67 1295.72 4124.67C1295.72 4123.65 1296.23 4122.64 1297.24 4121.63C1300.27 4116.57 1302.29 4111.9 1303.31 4107.85C1304.32 4103.81 1305.83 4100.14 1307.86 4097.1C1309.88 4092.05 1312.41 4085.85 1315.44 4078.77C1318.48 4071.57 1321.64 4064.99 1324.67 4058.92C1328.72 4047.67 1331.75 4042.11 1333.9 4042.11C1335.93 4032.88 1337.44 4028.33 1338.46 4028.33C1339.47 4027.31 1340.48 4025.8 1341.49 4023.77C1344.52 4012.52 1346.04 4005.95 1346.04 4003.93C1347.05 4001.9 1348.06 3999.88 1349.08 3997.86C1350.09 3992.8 1351.1 3988.12 1352.11 3984.08C1353.12 3979.02 1354.13 3974.34 1355.15 3970.29C1358.18 3961.07 1361.72 3952.47 1365.89 3944.25C1367.92 3941.22 1369.43 3937.68 1370.44 3933.5C1372.47 3929.46 1375 3926.3 1378.16 3924.27C1380.18 3916.06 1381.19 3911.5 1381.19 3910.49C1381.19 3908.47 1381.7 3906.45 1382.71 3904.42C1387.77 3892.16 1390.42 3886.09 1390.42 3886.09C1391.43 3885.08 1392.44 3883.56 1393.46 3881.54C1399.52 3868.27 1402.69 3859.54 1402.69 3855.5C1403.7 3851.45 1405.21 3846.77 1407.24 3841.71C1409.26 3836.66 1411.28 3831.47 1413.31 3826.42C1416.34 3821.36 1417.86 3815.67 1417.86 3809.6C1419.88 3807.58 1421.9 3805.05 1424.05 3801.89C1426.08 3798.85 1428.1 3795.31 1430.12 3791.14C1433.16 3783.94 1434.67 3779.38 1434.67 3777.36C1434.67 3774.33 1435.18 3771.8 1436.19 3769.65C1438.21 3764.59 1440.24 3760.42 1442.26 3757.39C1444.28 3753.34 1445.8 3748.66 1446.81 3743.6C1451.87 3730.33 1456.55 3719.58 1460.59 3711.49C1464.64 3703.27 1467.67 3695.18 1469.82 3686.96C1471.85 3681.91 1472.86 3677.23 1472.86 3673.18C1473.87 3669.14 1475.39 3664.46 1477.41 3659.4C1479.43 3653.33 1481.96 3647.14 1485.12 3641.07L1488.16 3621.22C1489.17 3619.2 1490.18 3617.17 1491.19 3615.15C1492.2 3612.12 1493.72 3609.08 1495.74 3605.92C1498.78 3596.69 1500.29 3589.61 1500.29 3584.43C1501.31 3578.36 1502.82 3572.67 1504.85 3567.61C1507.88 3557.37 1509.9 3551.81 1510.91 3550.8C1514.96 3534.49 1518.63 3521.21 1521.66 3510.97C1525.71 3494.66 1528.87 3483.41 1530.89 3477.34C1532.91 3471.27 1534.94 3464.07 1536.96 3455.85C1537.97 3449.78 1538.98 3445.61 1540 3443.59C1541.01 3441.56 1542.02 3439.03 1543.03 3435.87C1546.06 3423.61 1548.09 3416.02 1549.23 3412.86C1551.25 3408.82 1553.27 3405.66 1555.29 3403.63L1566.04 3380.62C1570.09 3376.58 1572.62 3371.9 1573.75 3366.84C1575.78 3361.78 1579.82 3358.12 1586.02 3356.1C1590.06 3346.87 1592.72 3342.31 1593.73 3342.31C1594.74 3341.3 1595.75 3339.79 1596.77 3337.76C1600.81 3331.69 1604.98 3326.51 1609.03 3322.47C1613.08 3318.42 1616.74 3315.89 1619.78 3314.75C1622.81 3313.74 1625.85 3313.74 1629.01 3314.75C1633.05 3314.75 1636.72 3315.26 1639.75 3316.27C1647.97 3314.25 1652.02 3314.75 1652.02 3317.79C1653.03 3319.81 1655.05 3320.32 1658.09 3319.3C1669.34 3320.32 1676.93 3320.82 1681.1 3320.82C1685.14 3319.81 1689.82 3320.32 1694.88 3322.34C1707.14 3320.32 1714.73 3321.83 1717.89 3326.89C1728.13 3322.84 1733.19 3321.33 1733.19 3322.34H1736.22C1747.48 3321.33 1754.56 3320.82 1757.59 3320.82C1760.63 3319.81 1763.79 3319.3 1766.82 3319.3H1780.6C1785.66 3318.29 1790.85 3317.79 1795.9 3317.79C1803.11 3317.79 1809.68 3319.3 1815.75 3322.34C1821.82 3324.36 1827.51 3326.89 1832.57 3330.05C1842.81 3338.27 1847.36 3342.82 1846.35 3343.83C1845.34 3344.84 1845.84 3345.85 1847.87 3346.87C1849.89 3348.89 1851.91 3351.42 1853.94 3354.58C1855.96 3356.6 1857.48 3358.62 1858.49 3360.65C1859.5 3362.67 1859.5 3365.2 1858.49 3368.36V3377.59C1860.51 3386.82 1863.55 3394.91 1867.72 3402.12C1872.78 3411.35 1875.43 3417.41 1875.43 3420.45C1875.43 3422.47 1876.44 3425 1878.47 3428.16C1879.48 3435.37 1884.03 3441.94 1892.25 3448.01C1893.26 3459.26 1897.3 3471.02 1904.51 3483.28C1907.55 3487.33 1909.57 3493.53 1910.71 3501.62C1911.72 3506.67 1912.73 3510.85 1913.74 3513.88C1915.76 3516.91 1917.79 3521.09 1919.81 3526.14C1923.86 3536.39 1926.89 3544.48 1929.04 3550.67C1931.06 3556.74 1933.09 3562.43 1935.11 3567.49C1936.12 3570.52 1937.13 3574.06 1938.14 3578.23C1940.17 3582.28 1941.68 3586.96 1942.7 3592.01C1944.72 3597.07 1946.24 3601.75 1947.25 3605.8C1948.26 3608.83 1950.28 3612.37 1953.32 3616.54C1957.36 3623.75 1959.51 3629.31 1959.51 3633.36C1959.51 3636.39 1960.52 3639.93 1962.55 3644.1C1964.57 3648.15 1966.09 3652.32 1967.1 3656.37C1969.12 3659.4 1971.65 3662.44 1974.81 3665.6C1974.81 3670.65 1975.32 3675.33 1976.33 3679.38C1978.35 3683.42 1980.37 3687.6 1982.4 3691.64C1986.44 3703.91 1988.47 3711.49 1988.47 3714.65C1990.49 3717.69 1991.5 3720.72 1991.5 3723.88C1992.51 3725.9 1994.03 3727.93 1996.05 3729.95C1997.06 3736.02 1999.09 3741.71 2002.12 3746.77C2004.14 3749.8 2005.66 3752.83 2006.67 3755.99C2008.7 3759.03 2010.72 3762.06 2012.74 3765.22C2016.79 3774.45 2018.3 3781.03 2017.29 3785.07C2017.29 3788.11 2017.8 3791.14 2018.81 3794.3C2019.82 3804.54 2023.87 3814.66 2031.07 3824.9C2035.12 3842.22 2038.79 3852.97 2041.82 3857.01C2043.84 3862.07 2045.87 3868.27 2047.89 3875.35C2049.91 3882.55 2051.94 3888.62 2053.96 3893.68C2055.98 3896.71 2057.5 3899.24 2058.51 3901.39C2059.52 3903.41 2060.53 3906.95 2061.55 3912.14C2063.57 3922.38 2065.59 3929.46 2067.61 3933.63C2069.64 3936.66 2071.15 3939.7 2072.17 3942.86C2073.18 3944.88 2074.19 3947.92 2075.2 3952.09C2077.22 3957.15 2078.74 3961.32 2079.75 3964.35C2080.76 3967.39 2082.28 3970.42 2084.3 3973.58C2086.33 3977.63 2087.34 3981.29 2087.34 3984.33C2088.35 3987.36 2089.87 3990.9 2091.89 3995.07C2094.92 4005.32 2097.45 4011.89 2099.48 4014.92C2101.5 4016.95 2103.52 4019.98 2105.67 4024.15C2107.69 4028.2 2108.71 4032.37 2108.71 4036.42C2109.72 4040.46 2111.24 4045.14 2113.26 4050.2C2115.28 4053.23 2117.3 4056.27 2119.45 4059.43C2121.48 4061.45 2123.5 4064.49 2125.52 4068.66C2128.56 4076.88 2130.07 4081.93 2130.07 4083.96C2130.07 4085.98 2131.09 4088 2133.11 4090.02C2140.32 4100.27 2143.86 4106.33 2143.86 4108.36V4114.43C2145.88 4119.48 2147.9 4124.16 2149.92 4128.21C2152.96 4131.24 2155.49 4134.78 2157.64 4138.95C2162.69 4149.19 2165.86 4156.27 2166.87 4160.45C2168.89 4164.49 2170.91 4168.16 2173.06 4171.19C2176.1 4174.23 2179.76 4178.9 2183.81 4184.97C2186.84 4193.19 2188.36 4197.74 2188.36 4198.75C2188.36 4199.77 2189.37 4201.28 2191.4 4203.31C2195.44 4215.57 2197.97 4222.14 2198.98 4223.16C2199.99 4224.17 2200.5 4225.18 2200.5 4226.19C2202.52 4228.21 2203.53 4230.74 2203.53 4233.9C2203.53 4237.06 2204.55 4239.97 2206.57 4243.13C2207.58 4246.17 2208.59 4249.2 2209.6 4252.36C2211.63 4254.38 2213.14 4256.91 2214.15 4260.07C2220.35 4271.33 2223.38 4277.9 2223.38 4279.92C2230.59 4288.14 2234.13 4293.7 2234.13 4296.74C2235.14 4299.77 2236.66 4302.3 2238.68 4304.45C2240.71 4308.5 2243.74 4313.68 2247.91 4319.75C2255.12 4332.01 2260.18 4339.09 2263.21 4341.24C2267.26 4343.26 2270.42 4346.3 2272.44 4350.47C2276.49 4360.71 2279.02 4368.3 2280.03 4373.48C2281.04 4378.54 2282.56 4383.22 2284.58 4387.26C2280.53 4398.51 2278.51 4404.58 2278.51 4405.59L2264.73 4416.34C2257.52 4424.56 2252.97 4428.6 2250.95 4428.6C2248.92 4428.6 2246.9 4429.11 2244.75 4430.12C2228.44 4434.17 2214.66 4440.36 2203.41 4448.45C2193.17 4450.48 2187.1 4451.99 2185.07 4453.01C2184.06 4453.01 2183.05 4454.02 2182.04 4456.04C2177.99 4456.04 2174.45 4456.55 2171.29 4457.56C2168.26 4458.57 2165.1 4459.58 2162.06 4460.59C2160.04 4461.6 2157.51 4462.11 2154.35 4462.11C2152.33 4462.11 2149.29 4462.61 2145.12 4463.63C2142.09 4464.64 2138.42 4466.15 2134.37 4468.18C2131.34 4470.2 2127.8 4472.22 2123.63 4474.25C2121.6 4475.26 2119.07 4476.27 2115.91 4477.28C2112.88 4479.3 2110.35 4480.82 2108.33 4481.83C2103.27 4482.84 2097.58 4483.35 2091.51 4483.35C2085.32 4484.36 2079.25 4485.37 2073.18 4486.38C2068.12 4487.4 2063.44 4487.9 2059.4 4487.9C2055.35 4487.9 2050.67 4488.41 2045.61 4489.42C2038.41 4489.42 2033.35 4488.91 2030.32 4487.9C2027.28 4487.9 2023.61 4487.4 2019.57 4486.38C2015.52 4484.36 2011.98 4483.35 2008.82 4483.35C2005.79 4484.36 2003.26 4484.36 2001.11 4483.35C1989.86 4468.05 1982.27 4457.81 1978.1 4452.75C1975.06 4446.68 1973.04 4437.96 1972.03 4426.71L1964.32 4408.38C1963.3 4404.33 1962.8 4398.64 1962.8 4391.56C1957.74 4380.31 1955.09 4373.23 1955.09 4370.07C1952.05 4364 1950.53 4357.3 1950.53 4350.22C1950.53 4343.14 1949.52 4336.44 1947.5 4330.37C1945.48 4325.31 1943.96 4319.62 1942.95 4313.55C1942.95 4307.48 1941.94 4300.78 1939.91 4293.7C1938.9 4289.66 1937.89 4285.49 1936.88 4281.44C1935.87 4276.38 1934.86 4271.2 1933.84 4266.14C1930.81 4253.88 1929.29 4247.81 1929.29 4247.81C1925.25 4237.57 1922.09 4229.48 1920.06 4223.28L1921.58 4222.65ZM1719.53 3686.84C1708.28 3694.04 1701.71 3702.64 1699.68 3712.88C1698.67 3722.11 1696.14 3729.7 1691.97 3735.89C1686.91 3748.16 1683.25 3757.39 1681.22 3763.45C1679.2 3765.48 1678.19 3768.01 1678.19 3771.17C1678.19 3774.33 1677.68 3777.24 1676.67 3780.4C1671.62 3791.65 1668.45 3799.23 1667.44 3803.41C1667.44 3806.44 1666.43 3810.61 1664.41 3815.67C1661.37 3817.69 1659.35 3821.23 1658.21 3826.42C1657.2 3830.46 1655.18 3834.13 1652.14 3837.16C1650.12 3851.45 1647.09 3863.71 1642.91 3873.95C1637.86 3887.23 1634.7 3895.45 1633.68 3898.48V3907.71C1628.63 3917.95 1625.97 3924.02 1625.97 3926.04C1625.97 3927.06 1624.96 3928.57 1622.94 3930.6C1619.9 3937.8 1617.37 3942.86 1615.35 3945.89C1614.34 3948.93 1613.33 3951.46 1612.32 3953.61C1609.28 3964.86 1607.26 3972.44 1606.25 3976.62C1605.24 3980.79 1604.22 3984.33 1603.21 3987.36C1601.19 4001.65 1599.67 4009.87 1598.66 4011.89C1598.66 4013.91 1597.65 4016.44 1595.63 4019.6C1593.6 4024.66 1592.09 4029.34 1591.08 4033.38C1591.08 4036.42 1590.06 4039.96 1588.04 4044.13C1586.02 4054.37 1584.5 4061.45 1583.49 4065.62C1581.47 4072.83 1579.95 4077.38 1578.94 4079.4C1577.93 4081.43 1576.91 4083.45 1575.9 4085.47C1571.86 4095.71 1569.83 4101.78 1569.83 4103.8C1568.82 4108.86 1567.31 4113.54 1565.28 4117.59C1564.27 4120.62 1563.26 4123.65 1562.25 4126.82C1566.29 4128.84 1569.96 4129.85 1573 4129.85C1576.03 4128.84 1580.2 4127.83 1585.26 4126.82C1593.48 4130.86 1602.58 4131.87 1612.82 4129.85C1624.08 4126.82 1632.17 4126.82 1637.35 4129.85C1639.37 4127.83 1641.9 4126.82 1644.94 4126.82H1655.68C1658.72 4125.8 1664.41 4125.3 1672.5 4125.3C1675.54 4125.3 1678.57 4125.8 1681.73 4126.82H1729.14C1737.24 4125.8 1741.91 4125.8 1742.93 4126.82H1747.48C1749.5 4127.83 1752.03 4128.33 1755.19 4128.33C1758.22 4127.32 1761.26 4126.82 1764.42 4126.82H1825.62C1830.67 4126.82 1835.35 4126.31 1839.4 4125.3C1844.45 4124.29 1848.63 4124.79 1851.66 4126.82C1854.7 4125.8 1861.4 4125.3 1871.51 4125.3C1876.57 4112.02 1879.22 4105.45 1879.22 4105.45C1875.18 4096.22 1872.14 4088.63 1869.99 4082.44C1868.98 4076.37 1866.96 4070.17 1863.93 4064.11C1863.93 4059.05 1862.91 4053.86 1860.89 4048.81C1859.88 4043.75 1858.87 4038.57 1857.86 4033.51C1854.82 4021.25 1852.8 4013.15 1851.79 4008.98C1850.78 4003.92 1849.26 3999.25 1847.24 3995.2C1843.19 3986.98 1841.04 3981.93 1841.04 3979.9C1841.04 3976.87 1840.53 3974.34 1839.52 3972.19C1834.47 3961.95 1831.81 3954.87 1831.81 3950.7C1829.79 3946.65 1827.76 3940.46 1825.62 3932.37C1820.56 3922.12 1818.03 3915.55 1818.03 3912.52C1818.03 3908.47 1817.52 3905.31 1816.51 3903.29C1812.47 3891.02 1809.94 3883.44 1808.8 3880.28C1808.8 3877.24 1808.29 3874.71 1807.28 3872.56C1806.27 3869.53 1805.26 3867 1804.25 3864.85C1804.25 3861.82 1803.74 3858.78 1802.73 3855.62C1797.67 3847.4 1794.51 3841.34 1793.5 3837.29C1792.49 3833.24 1790.97 3829.58 1788.95 3826.54C1786.93 3821.49 1785.41 3816.3 1784.4 3811.25C1783.39 3806.19 1781.87 3802.02 1779.85 3798.98L1772.13 3779.13C1766.06 3764.85 1761.39 3755.62 1758.35 3751.57C1755.32 3747.52 1753.8 3742.85 1753.8 3737.79C1748.74 3731.72 1746.21 3726.54 1746.21 3722.49C1743.18 3717.43 1741.66 3713.77 1741.66 3711.74C1741.66 3708.71 1740.65 3706.18 1738.63 3704.03C1733.57 3692.78 1727.37 3687.22 1720.29 3687.22L1719.53 3686.84Z" fill="white"/>
<path d="M2638.22 3299.45C2640.25 3296.42 2642.78 3295.91 2645.94 3297.94C2649.98 3299.96 2653.14 3299.96 2655.17 3297.94C2662.25 3302.99 2668.44 3306.16 2673.5 3307.17C2676.53 3311.21 2681.72 3314.37 2688.8 3316.4C2697.02 3323.6 2701.57 3327.65 2702.58 3328.66C2712.82 3339.91 2720.41 3346.99 2725.59 3350.15C2731.66 3353.19 2737.35 3356.22 2742.41 3359.38C2753.66 3363.43 2759.73 3366.59 2760.74 3368.61C2761.75 3370.64 2763.77 3372.66 2766.81 3374.68L2782.11 3388.46C2788.18 3392.51 2792.86 3396.17 2795.89 3399.21C2799.94 3400.22 2804.11 3401.74 2808.15 3403.76C2813.21 3404.77 2816.88 3406.29 2818.9 3408.31C2821.94 3419.56 2822.95 3426.64 2821.94 3429.8V3439.03C2818.9 3443.08 2816.88 3446.75 2815.87 3449.78C2815.87 3451.8 2814.86 3453.83 2812.83 3455.85C2807.77 3464.07 2804.11 3469.12 2802.09 3471.15C2794.88 3477.22 2789.82 3481.39 2786.79 3483.41C2784.76 3484.42 2782.74 3485.94 2780.72 3487.96C2771.49 3497.19 2765.92 3502.25 2763.9 3503.26C2762.89 3503.26 2761.88 3503.77 2760.87 3504.78C2755.81 3508.82 2752.14 3513.5 2750.12 3518.56C2746.07 3518.56 2742.91 3520.08 2740.89 3523.11C2739.88 3525.13 2737.86 3526.65 2734.82 3527.66C2726.6 3533.73 2722.05 3537.4 2721.04 3538.41C2721.04 3538.41 2720.03 3539.42 2718 3541.44C2711.94 3546.5 2707.26 3550.67 2704.22 3553.71C2702.2 3555.73 2700.18 3557.75 2698.15 3559.77C2689.94 3569 2685.38 3574.57 2684.37 3576.59C2683.36 3577.6 2681.84 3579.12 2679.82 3581.14C2673.63 3590.37 2670.09 3595.43 2669.07 3596.44C2668.06 3596.44 2667.05 3597.45 2666.04 3599.47C2659.97 3607.69 2655.29 3613.26 2652.26 3616.29C2649.22 3619.32 2646.69 3622.86 2644.67 3627.04C2639.61 3636.27 2636.45 3641.83 2635.44 3643.85C2634.43 3644.86 2634.43 3646.38 2635.44 3648.4C2632.41 3655.61 2629.37 3660.16 2626.21 3662.18C2624.19 3664.21 2622.67 3666.74 2621.66 3669.9C2622.67 3675.96 2622.17 3681.65 2620.14 3686.71C2618.12 3691.77 2617.11 3696.95 2617.11 3702.01C2617.11 3713.26 2618.12 3719.84 2620.14 3721.86C2622.17 3734.12 2624.69 3743.35 2627.86 3749.42C2630.89 3754.48 2633.42 3760.17 2635.44 3766.24C2637.46 3770.28 2638.98 3774.96 2639.99 3780.02C2642.02 3784.06 2644.04 3788.23 2646.19 3792.28C2650.23 3802.52 2653.4 3809.1 2655.42 3812.13C2657.44 3814.15 2659.46 3816.68 2661.61 3819.84C2668.69 3828.06 2672.87 3832.61 2673.88 3833.62C2675.9 3833.62 2677.42 3834.63 2678.43 3836.66C2680.45 3842.73 2681.97 3846.9 2682.98 3848.92C2685 3849.93 2686.52 3851.45 2687.53 3853.47C2691.58 3859.54 2694.61 3865.23 2696.76 3870.29C2699.8 3874.33 2702.83 3878.51 2705.99 3882.55C2710.04 3890.77 2712.19 3895.83 2712.19 3897.85C2713.2 3898.86 2714.72 3900.38 2716.74 3902.4C2721.8 3911.63 2724.96 3916.69 2725.97 3917.7C2733.05 3928.95 2736.72 3934.51 2736.72 3934.51C2737.73 3933.5 2738.23 3934.01 2738.23 3936.03C2741.27 3948.3 2743.29 3957.53 2744.43 3963.59C2746.45 3969.66 2748.48 3975.86 2750.5 3981.93C2752.52 3986.98 2754.04 3991.16 2755.05 3994.19C2757.07 3996.21 2759.1 3998.24 2761.25 4000.26L2767.32 4020.11C2772.37 4030.35 2775.53 4035.91 2776.55 4036.92C2777.56 4037.93 2778.06 4038.95 2778.06 4039.96C2780.09 4049.19 2781.1 4055.76 2781.1 4059.81C2781.1 4063.85 2782.11 4068.03 2784.13 4072.07C2785.14 4076.12 2786.15 4080.29 2787.17 4084.33C2788.18 4087.37 2788.68 4091.54 2788.68 4096.6C2788.68 4105.83 2789.19 4111.39 2790.2 4113.41C2791.21 4115.44 2791.72 4117.46 2791.72 4119.48C2791.72 4122.52 2791.21 4127.19 2790.2 4133.26C2789.19 4138.32 2788.68 4143 2788.68 4147.04C2789.69 4153.11 2789.69 4157.29 2788.68 4159.31V4163.86C2786.66 4176.12 2784.64 4183.71 2782.61 4186.87C2781.6 4189.9 2781.1 4192.94 2781.1 4196.1C2775.03 4208.36 2771.36 4215.95 2770.35 4219.11C2770.35 4221.13 2769.34 4223.16 2767.32 4225.18C2764.28 4232.38 2762.26 4236.94 2761.25 4238.96C2761.25 4240.98 2760.23 4243.01 2758.21 4245.03C2756.19 4250.09 2752.02 4255.77 2745.95 4261.84C2740.89 4272.08 2735.71 4278.15 2730.65 4280.18C2730.65 4284.22 2729.64 4287.89 2727.61 4290.92C2725.59 4292.95 2723.57 4295.47 2721.55 4298.63C2717.5 4302.68 2715.48 4305.84 2715.48 4307.86C2715.48 4309.89 2714.97 4311.91 2713.96 4313.93C2704.73 4323.16 2699.17 4329.23 2697.14 4332.26C2696.13 4334.29 2693.6 4336.31 2689.43 4338.33C2684.37 4343.39 2679.19 4349.59 2674.13 4356.67C2669.07 4362.73 2664.9 4369.94 2661.87 4378.16C2654.66 4382.21 2650.11 4386.38 2648.09 4390.42C2643.03 4398.64 2639.87 4403.19 2638.86 4404.2C2637.84 4404.2 2636.83 4405.22 2635.82 4407.24C2632.79 4412.3 2630.26 4416.47 2628.23 4419.5C2627.22 4421.52 2626.21 4423.55 2625.2 4425.57C2614.96 4431.64 2609.9 4435.31 2609.9 4436.32C2604.84 4441.37 2601.18 4444.54 2599.15 4445.55C2598.14 4446.56 2596.63 4447.57 2594.6 4448.58C2587.4 4454.65 2583.86 4458.32 2583.86 4459.33C2583.86 4460.34 2583.35 4461.35 2582.34 4462.36C2576.14 4472.6 2571.59 4478.67 2568.56 4480.69C2566.53 4483.73 2564.01 4486.76 2560.84 4489.92C2554.78 4492.96 2551.11 4497.64 2550.1 4503.7C2540.87 4510.91 2535.3 4514.96 2533.28 4515.97C2532.27 4516.98 2529.24 4518.5 2524.05 4520.52C2512.8 4522.54 2506.22 4522.54 2504.2 4520.52C2503.19 4518.5 2500.15 4517.99 2494.97 4519C2485.74 4511.8 2480.68 4508.26 2479.67 4508.26C2479.67 4509.27 2479.17 4509.27 2478.15 4508.26C2476.13 4506.23 2474.11 4503.7 2472.09 4500.54C2471.07 4497.51 2469.56 4494.98 2467.53 4492.83C2458.3 4484.61 2453.25 4480.06 2452.24 4479.05C2452.24 4478.04 2451.22 4478.04 2449.2 4479.05C2437.95 4469.82 2429.22 4461.22 2423.16 4453.01C2415.95 4447.95 2411.4 4445.29 2409.37 4445.29C2407.35 4444.28 2404.82 4443.27 2401.66 4442.26C2395.47 4430 2391.42 4421.9 2389.4 4417.73C2379.16 4408.5 2373.59 4403.45 2372.58 4402.43C2372.58 4400.41 2371.57 4398.89 2369.55 4397.88L2348.05 4376.39C2340.85 4363.11 2335.28 4354.39 2331.24 4350.34C2331.24 4344.28 2329.72 4340.1 2326.68 4338.08C2323.65 4335.05 2321.63 4330.87 2320.62 4325.82C2320.62 4322.78 2321.12 4319.75 2322.13 4316.59C2324.16 4312.54 2326.18 4308.88 2328.2 4305.84C2332.25 4296.61 2335.91 4290.54 2338.95 4287.51C2342.99 4283.46 2346.53 4280.3 2349.7 4278.28C2356.9 4273.22 2361.96 4268.04 2364.99 4262.98C2377.26 4249.71 2385.48 4241.49 2389.52 4238.45C2391.55 4235.42 2393.06 4232.39 2394.07 4229.22C2396.1 4225.18 2399.13 4222.02 2403.3 4219.99C2412.53 4209.75 2419.61 4202.17 2424.8 4196.98C2429.86 4191.93 2435.04 4186.74 2440.1 4181.69C2445.16 4175.62 2450.34 4168.92 2455.4 4161.84C2463.61 4151.6 2468.17 4146.03 2469.18 4145.02C2471.2 4143 2472.72 4140.98 2473.73 4138.95C2481.95 4127.7 2485.99 4121.13 2485.99 4119.1C2487.01 4116.07 2488.02 4113.54 2489.03 4111.39C2497.25 4099.13 2502.3 4089.39 2504.33 4082.31C2507.36 4075.11 2507.36 4067.01 2504.33 4057.78L2502.81 4040.97C2497.75 4031.74 2494.59 4025.67 2493.58 4022.64C2492.57 4018.59 2491.05 4014.92 2489.03 4011.89C2481.82 4002.66 2476.76 3997.6 2473.73 3996.59C2472.72 3991.53 2470.7 3987.87 2467.66 3985.85C2464.63 3982.81 2462.1 3978.64 2459.95 3973.58C2456.91 3970.55 2454.89 3967.51 2453.88 3964.35C2453.88 3961.32 2452.87 3958.79 2450.84 3956.64C2444.65 3948.42 2440.6 3942.35 2438.58 3938.31C2436.56 3934.26 2434.53 3930.09 2432.51 3926.04C2428.47 3918.84 2425.81 3915.3 2424.8 3915.3C2423.79 3914.29 2422.78 3912.77 2421.76 3910.75L2407.98 3895.45C2405.96 3890.39 2403.43 3885.71 2400.4 3881.67C2398.37 3876.61 2395.84 3871.43 2392.68 3866.37C2390.66 3862.32 2388.13 3858.15 2384.97 3854.1C2382.95 3850.06 2380.93 3845.38 2378.9 3840.32C2374.86 3833.12 2372.83 3829.07 2372.83 3828.06C2372.83 3827.05 2372.33 3826.04 2371.32 3825.03C2364.11 3814.79 2360.57 3809.22 2360.57 3808.21L2349.82 3789.88C2345.78 3780.65 2343.25 3776.1 2342.24 3776.1V3773.06C2338.19 3768.01 2335.66 3764.85 2334.65 3763.83C2333.64 3761.81 2332.63 3759.79 2331.62 3757.77C2328.58 3747.52 2327.06 3741.46 2327.06 3739.43C2324.03 3727.17 2321.5 3719.58 2319.48 3716.42C2318.47 3713.39 2317.96 3709.85 2317.96 3705.68C2319.98 3695.43 2322.01 3686.33 2324.03 3678.11C2326.05 3668.88 2327.57 3663.83 2328.58 3662.82C2329.59 3660.79 2330.6 3658.77 2331.62 3656.75C2333.64 3645.49 2334.14 3636.39 2333.13 3629.19C2333.13 3620.97 2334.14 3614.39 2336.17 3609.34C2341.22 3600.11 2345.4 3591.51 2348.43 3583.29C2353.49 3572.04 2356.65 3564.96 2357.66 3561.8C2358.67 3557.75 2359.68 3554.59 2360.7 3552.57C2362.72 3545.36 2366.26 3538.79 2371.44 3532.72C2377.51 3524.5 2381.18 3519.95 2382.19 3518.94C2383.2 3516.91 2384.21 3514.89 2385.22 3512.87C2395.47 3503.64 2402.04 3496.56 2405.07 3491.38C2410.13 3484.17 2414.3 3479.11 2417.34 3476.08C2421.39 3473.04 2424.93 3468.87 2428.09 3463.81C2430.11 3459.77 2431.63 3456.61 2432.64 3454.58C2434.66 3452.56 2436.68 3450.54 2438.71 3448.52C2445.91 3443.46 2449.96 3439.79 2450.97 3437.77C2451.98 3434.74 2453.5 3432.21 2455.52 3430.06C2458.56 3427.02 2461.59 3424.49 2464.75 3422.35C2468.8 3419.31 2471.96 3416.28 2473.98 3413.12C2476.01 3411.09 2477.52 3409.07 2478.53 3407.05C2480.56 3405.02 2482.58 3402.5 2484.73 3399.33C2498.01 3392.13 2506.22 3387.07 2509.26 3384.04C2512.29 3381 2515.83 3378.47 2520.01 3376.32C2530.25 3369.12 2538.34 3362.54 2544.53 3356.48C2551.74 3350.41 2555.28 3347.25 2555.28 3347.25C2556.29 3347.25 2557.3 3346.23 2558.32 3344.21L2570.58 3334.98C2574.63 3330.94 2579.3 3326.76 2584.36 3322.72C2590.43 3313.49 2594.1 3308.94 2595.11 3308.94C2596.12 3308.94 2596.63 3308.43 2596.63 3307.42C2607.88 3298.19 2616.98 3293.13 2624.19 3292.12C2632.41 3291.11 2637.46 3293.13 2639.49 3298.19L2638.22 3299.45Z" fill="white"/>
<path d="M3742.01 3299.45C3744.04 3296.42 3746.57 3295.91 3749.73 3297.94C3753.77 3299.96 3756.93 3299.96 3758.96 3297.94C3766.16 3302.99 3772.23 3306.16 3777.29 3307.17C3780.32 3311.21 3785.51 3314.37 3792.59 3316.4C3800.81 3323.6 3805.36 3327.65 3806.37 3328.66C3816.61 3339.91 3824.2 3346.99 3829.38 3350.15C3835.45 3353.19 3841.14 3356.22 3846.2 3359.38C3857.45 3363.43 3863.52 3366.59 3864.53 3368.61C3865.54 3370.64 3867.57 3372.66 3870.6 3374.68L3885.9 3388.46C3891.97 3392.51 3896.65 3396.17 3899.68 3399.21C3903.73 3400.22 3907.9 3401.74 3911.94 3403.76C3917 3404.77 3920.67 3406.29 3922.69 3408.31C3925.73 3419.56 3926.74 3426.64 3925.73 3429.8V3439.03C3922.69 3443.08 3920.67 3446.75 3919.66 3449.78C3919.66 3451.8 3918.65 3453.83 3916.62 3455.85C3911.57 3464.07 3907.9 3469.12 3905.88 3471.15C3898.67 3477.22 3893.61 3481.39 3890.58 3483.41C3888.55 3484.42 3886.53 3485.94 3884.51 3487.96C3875.28 3497.19 3869.72 3502.25 3867.69 3503.26C3866.68 3503.26 3865.67 3503.77 3864.66 3504.78C3859.6 3508.82 3855.93 3513.5 3853.91 3518.56C3849.86 3518.56 3846.7 3520.08 3844.68 3523.11C3843.67 3525.13 3841.65 3526.65 3838.61 3527.66C3830.39 3533.73 3825.84 3537.4 3824.83 3538.41L3821.8 3541.44C3815.73 3546.5 3811.05 3550.67 3808.01 3553.71C3805.99 3555.73 3803.97 3557.75 3801.95 3559.77C3793.73 3569 3789.17 3574.57 3788.16 3576.59L3783.61 3581.14C3777.54 3590.37 3773.88 3595.43 3772.86 3596.44C3771.85 3596.44 3770.84 3597.45 3769.83 3599.47C3763.76 3607.69 3759.08 3613.26 3756.05 3616.29C3753.01 3619.32 3750.49 3622.86 3748.34 3627.04C3743.28 3636.27 3740.12 3641.83 3739.11 3643.85C3738.09 3644.86 3738.09 3646.38 3739.11 3648.4C3736.07 3655.61 3733.04 3660.16 3729.88 3662.18C3727.85 3664.21 3726.34 3666.74 3725.32 3669.9C3726.34 3675.96 3725.83 3681.65 3723.81 3686.71C3721.78 3691.77 3720.77 3696.95 3720.77 3702.01C3720.77 3713.26 3721.78 3719.84 3723.81 3721.86C3725.83 3734.12 3728.36 3743.35 3731.52 3749.42C3734.55 3754.48 3737.08 3760.17 3739.23 3766.24C3741.26 3770.28 3742.77 3774.96 3743.78 3780.02C3745.81 3784.06 3747.83 3788.23 3749.85 3792.28C3753.9 3802.52 3757.06 3809.1 3759.08 3812.13C3761.11 3814.15 3763.13 3816.68 3765.15 3819.84C3772.36 3828.06 3776.41 3832.61 3777.42 3833.62C3779.44 3833.62 3780.96 3834.63 3781.97 3836.66C3783.99 3842.73 3785.51 3846.9 3786.52 3848.92C3788.54 3849.93 3790.06 3851.45 3791.07 3853.47C3795.12 3859.54 3798.28 3865.23 3800.3 3870.29C3803.34 3874.33 3806.37 3878.51 3809.53 3882.55C3813.58 3890.77 3815.6 3895.83 3815.6 3897.85C3816.61 3898.86 3818.13 3900.38 3820.15 3902.4C3825.21 3911.63 3828.37 3916.69 3829.38 3917.7C3836.59 3928.95 3840.13 3934.51 3840.13 3934.51C3841.14 3933.5 3841.65 3934.01 3841.65 3936.03C3844.68 3948.3 3846.7 3957.53 3847.72 3963.59C3849.74 3969.66 3851.76 3975.86 3853.78 3981.93C3855.81 3986.98 3857.32 3991.16 3858.34 3994.19L3864.4 4000.26L3870.47 4020.11C3875.53 4030.35 3878.69 4035.91 3879.7 4036.92C3880.72 4037.93 3881.22 4038.95 3881.22 4039.96C3883.24 4049.19 3884.26 4055.76 3884.26 4059.81C3884.26 4063.85 3885.27 4068.03 3887.29 4072.07C3888.3 4076.12 3889.31 4080.29 3890.32 4084.33C3891.34 4087.37 3891.84 4091.54 3891.84 4096.6C3891.84 4105.83 3892.35 4111.39 3893.36 4113.41C3894.37 4115.44 3894.88 4117.46 3894.88 4119.48C3894.88 4122.52 3894.37 4127.19 3893.36 4133.26C3892.35 4138.32 3891.84 4143 3891.84 4147.04C3892.85 4153.11 3892.85 4157.29 3891.84 4159.31V4163.86C3889.82 4176.12 3887.8 4183.71 3885.77 4186.87C3884.76 4189.9 3884.26 4192.94 3884.26 4196.1C3878.19 4208.36 3874.52 4215.95 3873.51 4219.11C3873.51 4221.13 3872.5 4223.16 3870.47 4225.18C3867.44 4232.38 3865.42 4236.94 3864.4 4238.96C3864.4 4240.98 3863.39 4243.01 3861.37 4245.03C3859.35 4250.09 3855.3 4255.77 3849.11 4261.84C3844.05 4272.08 3838.86 4278.15 3833.81 4280.18C3833.81 4284.22 3832.8 4287.89 3830.77 4290.92C3828.75 4292.95 3826.73 4295.47 3824.7 4298.63C3820.66 4302.68 3818.63 4305.84 3818.63 4307.86C3818.63 4309.89 3818.13 4311.91 3817.12 4313.93C3807.89 4323.16 3802.32 4329.23 3800.3 4332.26C3799.29 4334.29 3796.76 4336.31 3792.59 4338.33C3787.53 4343.39 3782.35 4349.59 3777.29 4356.67C3772.23 4362.73 3768.06 4369.94 3765.03 4378.16C3757.82 4382.21 3753.27 4386.38 3751.24 4390.42C3746.19 4398.64 3743.03 4403.19 3742.01 4404.2C3741 4404.2 3739.99 4405.22 3738.98 4407.24C3735.95 4412.3 3733.42 4416.47 3731.27 4419.5C3730.26 4421.52 3729.24 4423.55 3728.23 4425.57C3717.99 4431.64 3712.93 4435.31 3712.93 4436.32C3707.88 4441.37 3704.21 4444.54 3702.19 4445.55C3701.18 4446.56 3699.66 4447.57 3697.64 4448.58C3690.43 4454.65 3686.89 4458.32 3686.89 4459.33C3686.89 4460.34 3686.38 4461.35 3685.37 4462.36C3679.3 4472.6 3674.62 4478.67 3671.59 4480.69C3669.57 4483.73 3667.04 4486.76 3663.88 4489.92C3657.81 4492.96 3654.14 4497.64 3653.13 4503.7C3643.9 4510.91 3638.34 4514.96 3636.31 4515.97C3635.3 4516.98 3632.27 4518.5 3627.08 4520.52C3615.83 4522.54 3609.26 4522.54 3607.23 4520.52C3606.22 4518.5 3603.19 4517.99 3598 4519C3588.77 4511.8 3583.72 4508.26 3582.7 4508.26C3582.7 4509.27 3582.2 4509.27 3581.19 4508.26C3579.16 4506.23 3577.14 4503.7 3575.12 4500.54C3574.11 4497.51 3572.59 4494.98 3570.57 4492.83C3561.34 4484.61 3556.28 4480.06 3555.27 4479.05C3555.27 4478.04 3554.26 4478.04 3552.23 4479.05C3540.98 4469.82 3532.38 4461.22 3526.19 4453.01C3518.98 4447.95 3514.43 4445.29 3512.41 4445.29C3510.38 4444.28 3507.85 4443.27 3504.69 4442.26C3498.62 4430 3494.45 4421.9 3492.43 4417.73C3482.19 4408.5 3476.62 4403.45 3475.61 4402.43C3475.61 4400.41 3474.6 4398.89 3472.58 4397.88L3451.08 4376.39C3443.88 4363.11 3438.31 4354.39 3434.27 4350.34C3434.27 4344.28 3432.75 4340.1 3429.72 4338.08C3426.68 4335.05 3424.66 4330.87 3423.65 4325.82C3423.65 4322.78 3424.15 4319.75 3425.16 4316.59C3427.19 4312.54 3429.21 4308.88 3431.23 4305.84C3435.28 4296.61 3438.95 4290.54 3441.98 4287.51C3446.03 4283.46 3449.69 4280.3 3452.73 4278.28C3459.93 4273.22 3464.99 4268.04 3468.03 4262.98C3480.29 4249.71 3488.38 4241.49 3492.56 4238.45C3494.58 4235.42 3496.1 4232.39 3497.11 4229.22C3499.13 4225.18 3502.16 4222.02 3506.34 4219.99C3515.57 4209.75 3522.65 4202.17 3527.83 4196.98C3533.01 4191.8 3538.07 4186.74 3543.13 4181.69C3548.19 4175.62 3553.37 4168.92 3558.43 4161.84C3566.65 4151.6 3571.2 4146.03 3572.21 4145.02C3574.23 4143 3575.75 4140.98 3576.76 4138.95C3584.98 4127.7 3589.03 4121.13 3589.03 4119.1C3590.04 4116.07 3591.05 4113.54 3592.06 4111.39C3600.28 4099.13 3605.34 4089.39 3607.36 4082.31C3610.39 4075.11 3610.39 4067.01 3607.36 4057.78L3605.84 4040.97C3600.78 4031.74 3597.62 4025.67 3596.61 4022.64C3595.6 4018.59 3594.08 4014.92 3592.06 4011.89C3584.85 4002.66 3579.8 3997.6 3576.76 3996.59C3575.75 3991.53 3573.73 3987.87 3570.69 3985.85C3567.66 3982.81 3565.13 3978.64 3562.98 3973.58C3559.95 3970.55 3557.92 3967.51 3556.91 3964.35C3556.91 3961.32 3555.9 3958.79 3553.88 3956.64C3547.81 3948.42 3543.64 3942.35 3541.61 3938.31C3539.59 3934.26 3537.57 3930.09 3535.54 3926.04C3531.5 3918.84 3528.97 3915.3 3527.83 3915.3C3526.82 3914.29 3525.81 3912.77 3524.8 3910.75L3511.01 3895.45C3508.99 3890.39 3506.46 3885.71 3503.3 3881.67C3501.28 3876.61 3498.75 3871.43 3495.59 3866.37C3493.57 3862.32 3491.04 3858.15 3487.88 3854.1C3485.85 3850.06 3483.83 3845.38 3481.81 3840.32C3477.76 3833.12 3475.74 3829.07 3475.74 3828.06C3475.74 3827.05 3475.23 3826.04 3474.22 3825.03C3467.01 3814.79 3463.47 3809.22 3463.47 3808.21L3452.73 3789.88C3448.68 3780.65 3446.15 3776.1 3445.02 3776.1V3773.06C3440.97 3768.01 3438.44 3764.85 3437.3 3763.83C3436.29 3761.81 3435.28 3759.79 3434.27 3757.77C3431.23 3747.52 3429.72 3741.46 3429.72 3739.43C3426.68 3727.17 3424.15 3719.58 3422 3716.42C3420.99 3713.39 3420.49 3709.85 3420.49 3705.68C3422.51 3695.43 3424.53 3686.33 3426.56 3678.11C3428.58 3668.88 3430.1 3663.83 3431.11 3662.82C3432.12 3660.79 3433.13 3658.77 3434.14 3656.75C3436.16 3645.49 3436.67 3636.39 3435.66 3629.19C3435.66 3620.97 3436.67 3614.39 3438.69 3609.34C3443.75 3600.11 3447.92 3591.51 3450.96 3583.29C3456.02 3572.04 3459.18 3564.96 3460.19 3561.8C3461.2 3557.75 3462.21 3554.59 3463.22 3552.57C3465.24 3545.36 3468.79 3538.79 3473.97 3532.72C3480.04 3524.5 3483.7 3519.95 3484.72 3518.94C3485.73 3516.91 3486.74 3514.89 3487.75 3512.87C3497.99 3503.64 3504.57 3496.56 3507.6 3491.38C3512.66 3484.17 3516.83 3479.11 3519.87 3476.08C3523.91 3473.04 3527.58 3468.87 3530.61 3463.81C3532.64 3459.77 3534.15 3456.61 3535.16 3454.58C3537.19 3452.56 3539.21 3450.54 3541.23 3448.52C3548.44 3443.46 3552.49 3439.79 3553.5 3437.77C3554.51 3434.74 3556.03 3432.21 3558.05 3430.06C3561.08 3427.02 3564.12 3424.49 3567.28 3422.35C3571.33 3419.31 3574.49 3416.28 3576.51 3413.12C3578.53 3411.09 3580.05 3409.07 3581.06 3407.05C3583.08 3405.02 3585.11 3402.5 3587.13 3399.33C3600.41 3392.13 3608.62 3387.07 3611.66 3384.04C3614.69 3381 3618.23 3378.47 3622.41 3376.32C3632.65 3369.12 3640.74 3362.54 3646.93 3356.48C3654.14 3350.41 3657.68 3347.25 3657.68 3347.25C3658.69 3347.25 3659.7 3346.23 3660.72 3344.21L3672.98 3334.98C3677.03 3330.94 3681.7 3326.76 3686.76 3322.72C3692.83 3313.49 3696.5 3308.94 3697.51 3308.94C3698.52 3308.94 3699.03 3308.43 3699.03 3307.42C3710.28 3298.19 3719.38 3293.13 3726.59 3292.12C3734.81 3291.11 3739.86 3293.13 3741.89 3298.19L3742.01 3299.45Z" fill="white"/>
<path d="M3887.92 4563H120.115C53.8619 4563 0 4509.14 0 4442.89V1420.95C0 1381.38 19.4712 1344.46 51.9654 1321.96L1942.06 20.9879C1982.9 -7.07964 2037.78 -7.07964 2078.62 21.2408L3956.32 1322.08C3988.69 1344.46 4008.04 1381.38 4008.04 1420.83V4442.89C4008.04 4509.14 3954.17 4563 3887.92 4563ZM2010.21 113.661C2008.95 113.661 2007.68 114.041 2006.67 114.799L116.574 1415.77C114.804 1416.91 113.793 1418.93 113.793 1420.95V4442.89C113.793 4446.43 116.574 4449.21 120.115 4449.21H3887.92C3891.46 4449.21 3894.24 4446.43 3894.24 4442.89V1420.83C3894.24 1418.8 3893.23 1416.78 3891.59 1415.64L2013.88 114.799C2012.74 114.041 2011.48 113.661 2010.34 113.661H2010.21Z" fill="white"/>
</g>
<defs>
<clipPath id="clip0_214_1149">
<rect width="4687" height="4563" fill="white"/>
</clipPath>
</defs>
</svg>
