<svg width="10634" height="3922" viewBox="0 0 10634 3922" fill="none" xmlns="http://www.w3.org/2000/svg">
<path d="M4448.65 3072.14C4519.33 3072.14 4576.63 3014.84 4576.63 2944.16C4576.63 2873.47 4519.33 2816.17 4448.65 2816.17C4377.97 2816.17 4320.67 2873.47 4320.67 2944.16C4320.67 3014.84 4377.97 3072.14 4448.65 3072.14Z" fill="white"/>
<path d="M9466.84 3080.15C9537.52 3080.15 9594.82 3022.85 9594.82 2952.17C9594.82 2881.48 9537.52 2824.18 9466.84 2824.18C9396.16 2824.18 9338.86 2881.48 9338.86 2952.17C9338.86 3022.85 9396.16 3080.15 9466.84 3080.15Z" fill="white"/>
<path d="M3592.42 3846.19C3449.84 3846.19 3368.02 3763.8 3368.02 3620.12C3368.02 3469.02 3450.42 3382.36 3594.1 3382.36H3628.32C3447.4 3332.84 3349.67 3181.99 3349.67 2945.47C3349.67 2647.92 3504.63 2490.62 3797.85 2490.62H4173.61C4316.19 2490.62 4398.01 2573.02 4398.01 2716.7C4398.01 2860.38 4324.89 2944.23 4196.25 2953.59C4379.29 3002.19 4478.18 3153.41 4478.18 3391.35C4478.18 3688.9 4324.35 3846.19 4033.35 3846.19H3592.49H3592.42Z" fill="#42408C"/>
<path d="M4173.57 2551.39C4283.79 2551.39 4337.24 2606.52 4337.24 2716.73C4337.24 2833.65 4282.11 2893.76 4171.9 2893.76H3774.44C3729.36 2893.76 3705.99 2910.48 3705.99 2945.54C3705.99 2980.6 3729.36 2997.31 3774.44 2997.31H4054.98C4295.44 2997.31 4417.38 3135.93 4417.38 3391.42C4417.38 3646.92 4290.45 3785.53 4033.28 3785.53H3592.42C3480.53 3785.53 3428.75 3728.77 3428.75 3620.19C3428.75 3501.64 3483.84 3443.16 3594.1 3443.16H4051.67C4098.42 3443.16 4120.16 3426.45 4120.16 3391.39C4120.16 3356.32 4098.42 3339.61 4051.67 3339.61H3772.8C3530.67 3339.61 3410.4 3201 3410.4 2945.5C3410.4 2690.01 3539.01 2551.39 3797.85 2551.39H4173.61M4173.57 2429.93H3797.81C3474.41 2429.93 3288.9 2617.84 3288.9 2945.5C3288.9 3128.54 3343.95 3267.99 3446.12 3355.41C3358.05 3402.09 3307.25 3495.01 3307.25 3620.16C3307.25 3797.04 3416.52 3906.96 3592.38 3906.96H4033.24C4354.53 3906.96 4538.81 3719.05 4538.81 3391.39C4538.81 3192.37 4473.74 3044.94 4353.77 2959.81C4420.8 2908.84 4458.67 2824.8 4458.67 2716.73C4458.67 2539.85 4349.4 2429.93 4173.53 2429.93H4173.57Z" fill="white"/>
<path d="M4099.88 3350.17C4113.02 3358.66 4119.57 3372.05 4119.57 3390.95C4119.57 3426.05 4097.84 3442.73 4051.08 3442.73H3593.51C3483.3 3442.73 3428.17 3501.17 3428.17 3619.76C3428.17 3728.3 3479.95 3785.1 3591.84 3785.1H4032.7C4289.87 3785.1 4416.79 3653.18 4416.79 3390.99C4416.79 3377.01 4416.28 3363.5 4415.56 3350.21H4099.84L4099.88 3350.17Z" fill="#2E2E61"/>
<path d="M4719.77 3856.24C4572.92 3856.24 4492.05 3772.42 4492.05 3620.15V3206.02C4492.05 3040.75 4567.75 2972.37 4653.9 2948.09C4550.38 2925.59 4490.38 2844.5 4490.38 2721.72C4490.38 2530.75 4612.39 2490.66 4714.78 2490.66H5155.64C5446.63 2490.66 5600.47 2647.95 5600.47 2945.5C5600.47 3243.05 5447.22 3400.34 5157.31 3400.34H4952.5V3620.15C4952.5 3770.17 4867.67 3856.24 4719.77 3856.24Z" fill="#42408C"/>
<path d="M5155.64 2551.39C5412.81 2551.39 5539.73 2683.35 5539.73 2945.5C5539.73 3207.66 5412.84 3339.61 5157.31 3339.61H4891.77V3620.16C4891.77 3737.07 4833.33 3795.51 4719.77 3795.51C4606.2 3795.51 4552.79 3737.07 4552.79 3620.16V3206.02C4552.79 3065.77 4611.23 2997.28 4744.82 2997.28H5173.99C5220.74 2997.28 5244.12 2980.57 5244.12 2945.5C5244.12 2910.44 5220.74 2893.73 5173.99 2893.73H4716.42C4609.55 2893.73 4551.08 2835.29 4551.08 2721.72C4551.08 2608.16 4599.5 2551.39 4714.74 2551.39H5155.6M5155.64 2429.93H4714.78C4536.26 2429.93 4429.65 2539.01 4429.65 2721.72C4429.65 2820.47 4464.2 2899.88 4524.64 2951.07C4463.91 3007.4 4431.32 3093.95 4431.32 3206.02V3620.16C4431.32 3806.03 4539.17 3916.97 4719.77 3916.97C4900.36 3916.97 5013.24 3803.23 5013.24 3620.16V3461.08H5157.31C5477.55 3461.08 5661.2 3273.16 5661.2 2945.5C5661.2 2617.84 5476.93 2429.93 5155.64 2429.93Z" fill="white"/>
<path d="M4552.79 3350.17V3619.76C4552.79 3736.67 4602.89 3795.11 4719.77 3795.11C4836.65 3795.11 4891.77 3736.67 4891.77 3619.76V3350.17H4552.79Z" fill="#2E2E61"/>
<path d="M8552.75 3846.19C8406.96 3846.19 8323.36 3761.97 8323.36 3615.13V2721.72C8323.36 2574.88 8406.96 2490.66 8552.75 2490.66H9230.75C9364.63 2490.66 9461.81 2587.84 9461.81 2721.72C9461.81 2838.75 9384.55 2930.39 9275.94 2950.38C9385.35 2964.36 9451.8 3044.9 9451.8 3167.61C9451.8 3290.31 9385.39 3369.14 9282.6 3386.87C9391.76 3407.37 9466.8 3497.09 9466.8 3615.17C9466.8 3746.9 9366.75 3846.23 9234.07 3846.23H8552.71L8552.75 3846.19Z" fill="#42408C"/>
<path d="M9230.75 2551.39C9337.62 2551.39 9401.08 2628.22 9401.08 2721.72C9401.08 2815.23 9337.62 2893.73 9230.75 2893.73H8721.4V3008.97H9240.77C9332.59 3008.97 9391.07 3062.42 9391.07 3167.61C9391.07 3272.8 9332.63 3329.6 9240.77 3329.6H8721.4V3443.16H9234.07C9340.93 3443.16 9406.07 3521.63 9406.07 3615.17C9406.07 3708.71 9340.93 3785.5 9234.07 3785.5H8552.71C8439.15 3785.5 8384.06 3727.06 8384.06 3615.17V2721.76C8384.06 2608.19 8439.19 2551.43 8552.71 2551.43H9230.72M9230.75 2429.93H8552.75C8373.79 2429.93 8262.63 2541.74 8262.63 2721.72V3615.13C8262.63 3795.11 8373.79 3906.93 8552.75 3906.93H9234.1C9401.41 3906.93 9527.57 3781.49 9527.57 3615.13C9527.57 3520.5 9487.19 3439.05 9421.87 3386.11C9478.82 3335.79 9512.57 3259.29 9512.57 3167.57C9512.57 3075.85 9478.56 2997.68 9420.23 2948.45C9483.59 2895.47 9522.58 2814.97 9522.58 2721.72C9522.58 2555.36 9397.15 2429.93 9230.79 2429.93H9230.75Z" fill="white"/>
<path d="M9233.56 3442.73H8720.9V3350.17H8384.13L8383.55 3614.73C8383.55 3726.62 8438.68 3785.06 8552.21 3785.06H9233.56C9340.42 3785.06 9405.56 3706.6 9405.56 3614.73C9405.56 3522.87 9340.42 3442.73 9233.56 3442.73Z" fill="#2E2E61"/>
<path d="M10164.4 3856.24C10100.6 3856.24 10039.8 3831.45 9978.55 3780.4L9975.42 3777.6L9579.64 3398.52C9526.84 3349.04 9465.75 3277.6 9465.75 3167.61C9465.75 3057.61 9525.68 2976.78 9627.19 2948.27C9522.87 2925.84 9462.4 2843.41 9462.4 2718.37C9462.4 2573.64 9544.17 2490.62 9686.79 2490.62H10129.3C10419.3 2490.62 10572.5 2648.47 10572.5 2947.14C10572.5 3287.4 10371.4 3357.23 10236.2 3371.58L10303.3 3436.06C10348.1 3480.85 10388.8 3533.21 10388.8 3618.48C10388.8 3756.22 10294.4 3856.24 10164.4 3856.24Z" fill="#42408C"/>
<path d="M10129.3 2551.39C10384.8 2551.39 10511.8 2683.35 10511.8 2947.18C10511.8 3264.46 10328.1 3314.56 10149.4 3314.56H10089.2L10261.2 3479.9C10306.3 3524.98 10328.1 3561.72 10328.1 3618.52C10328.1 3718.72 10262.9 3795.55 10164.4 3795.55C10114.3 3795.55 10067.5 3775.48 10017.4 3733.76L9621.66 3354.69C9568.21 3304.58 9526.48 3249.46 9526.48 3167.64C9526.48 3065.77 9589.94 2997.31 9718.51 2997.31H10147.7C10192.8 2997.31 10216.2 2980.6 10216.2 2945.54C10216.2 2910.48 10192.8 2893.76 10147.7 2893.76H9688.43C9584.92 2893.76 9523.13 2837 9523.13 2718.41C9523.13 2608.19 9574.91 2551.39 9686.8 2551.39H10129.3ZM10129.3 2429.93H9686.8C9510.93 2429.93 9401.67 2540.47 9401.67 2718.41C9401.67 2818.68 9436.47 2899.19 9497.31 2950.96C9438.73 3002.3 9404.98 3077.31 9404.98 3167.64C9404.98 3302.47 9481.22 3389.53 9538.53 3443.31L9933.37 3821.51L9936.39 3824.42L9939.63 3827.11C10012.3 3887.63 10085.8 3917.05 10164.4 3917.05C10326.9 3917.05 10449.5 3788.74 10449.5 3618.55C10449.5 3518.57 10404.8 3454.27 10357.9 3405.08C10580.2 3328.62 10633.2 3124.42 10633.2 2947.21C10633.2 2618.5 10449.5 2429.96 10129.3 2429.96L10129.3 2429.93Z" fill="white"/>
<path d="M10126.2 3350.17H9616.96C9618.38 3351.52 9619.69 3352.9 9621.11 3354.21L10016.9 3733.28C10067 3775.01 10113.7 3795.07 10163.8 3795.07C10262.4 3795.07 10327.5 3718.25 10327.5 3618.04C10327.5 3561.24 10305.8 3524.51 10260.7 3479.43L10126.2 3350.13V3350.17Z" fill="#2E2E61"/>
<path d="M5820.39 2541.35C5726.88 2541.35 5650.06 2599.78 5650.06 2710.04V3350.17H5988.49V3442.25C5988.68 3442.14 5988.86 3442.07 5989.08 3441.96V2710.04C5989.08 2599.82 5910.58 2541.35 5820.42 2541.35H5820.39Z" fill="#FECB40"/>
<path d="M5589.32 3609.74V2710.04C5589.32 2574.95 5684.36 2480.61 5820.39 2480.61C5925.65 2480.61 6007.83 2541.24 6037.58 2632.41C6044.53 2604.37 6055.24 2578.41 6069.25 2554.89C6019.92 2472.06 5930.09 2419.88 5820.39 2419.88C5651.3 2419.88 5528.59 2541.89 5528.59 2710.04V3626.86C5528.59 3665.12 5535.22 3700.81 5547.05 3733.43C5552.4 3722.18 5558.41 3711.29 5565.51 3701.21C5566.5 3668.29 5575.12 3637.34 5589.32 3609.78V3609.74Z" fill="white"/>
<path d="M5649.51 3537.69L5650.09 3350.21V2710.07C5650.09 2599.86 5726.92 2541.38 5820.42 2541.38C5913.93 2541.38 5989.08 2599.82 5989.08 2710.07V3442C6001.42 3435.26 6014.35 3429.51 6028 3425.29V2710.07C6028 2682.84 6031.53 2656.95 6037.61 2632.45C6007.87 2541.27 5925.69 2480.65 5820.42 2480.65C5684.36 2480.65 5589.36 2574.99 5589.36 2710.07V3609.78C5603.93 3581.49 5624.5 3556.91 5649.55 3537.69H5649.51Z" fill="white"/>
<path d="M5779.42 3493.48C5824.54 3493.48 5866.37 3507.5 5900.89 3531.35C5920.52 3493.56 5951.25 3462.72 5988.49 3442.29V3350.21H5650.06V3537.28C5685.99 3509.9 5730.71 3493.48 5779.42 3493.48Z" fill="#C19731"/>
<path d="M7105.76 3350.17V3626.42C7105.76 3734.96 7028.93 3795.07 6935.43 3795.07C6889.62 3795.07 6857.11 3784.66 6832.06 3768.24C6857.14 3784.88 6889.81 3795.48 6935.97 3795.48C7029.48 3795.48 7106.3 3735.36 7106.3 3626.82V3345.55C7104.37 3347.08 7102.33 3348.64 7100.29 3350.14H7105.72L7105.76 3350.17Z" fill="white"/>
<path d="M6363.67 3220.84C6446.98 3220.84 6518.96 3268.47 6554.43 3337.9C6555.77 3337.9 6557.08 3337.68 6558.43 3337.68C6583.55 3337.68 6607.59 3342.24 6629.98 3350.17H6654.19C6665.55 3339.21 6675.27 3330.77 6675.27 3330.77C6675.27 3330.77 6669.01 3322.39 6665.77 3316.53C6660.93 3307.79 6658.27 3302.58 6656.27 3292.79C6654.05 3281.9 6654.88 3275.35 6656.27 3264.32C6657.98 3250.92 6665.77 3231.07 6665.77 3231.07C6665.77 3231.07 6610.72 3233.66 6575.58 3231.07C6547.62 3229 6531.56 3228.49 6504.4 3221.57C6487.36 3217.24 6461.69 3207.33 6461.69 3207.33C6461.69 3207.33 6477.49 3180.14 6490.16 3164.62C6503.42 3148.39 6512.23 3140.34 6528.14 3126.65C6550.35 3107.53 6589.85 3079.17 6589.85 3079.17C6589.85 3079.17 6619.71 3061.73 6642.07 3055.43C6652.92 3052.37 6659.29 3051.13 6670.54 3050.7C6685.47 3050.08 6694.1 3051.46 6708.52 3055.43C6722.13 3059.18 6728.76 3064.09 6741.76 3069.67C6744.34 3070.76 6747.22 3072 6750.17 3073.27L6463.44 2628.15C6428.34 2573.02 6393.27 2541.31 6318.16 2541.31C6226.33 2541.31 6149.5 2599.75 6149.5 2710V3350.14H6167.45C6200.3 3274.11 6275.63 3220.77 6363.71 3220.77L6363.67 3220.84Z" fill="#FECB40"/>
<path d="M6827.14 3031.76C6849.97 3011.66 6863.77 3001.5 6888.86 2984.28C6912.16 2968.26 6925.05 2958.5 6950.57 2946.31C6975.44 2934.44 6990.7 2930.72 7017.02 2922.57C7037.23 2916.34 7048.59 2912.88 7069.24 2908.33C7083.87 2905.09 7094.39 2902.76 7106.34 2901.05V2710C7106.34 2599.79 7029.51 2541.31 6936.01 2541.31C6842.51 2541.31 6765.68 2599.75 6765.68 2710V3079.97C6771.03 3082.26 6774.96 3083.94 6774.96 3083.94C6774.96 3083.94 6805.55 3050.8 6827.18 3031.73L6827.14 3031.76Z" fill="#FECB40"/>
<path d="M6318.12 2480.61C6426.51 2480.61 6476.65 2535.88 6514.63 2595.6L6704.91 2891V2710.04C6704.91 2577.1 6802.09 2480.61 6935.97 2480.61C7043.78 2480.61 7125.64 2540 7155.06 2631.83C7162.01 2604.12 7172.61 2578.45 7186.44 2555.14C7136.85 2472.16 7046.44 2419.88 6936.01 2419.88C6775.15 2419.88 6656.23 2530.35 6645.09 2685.9L6565.57 2562.43C6523.51 2496.38 6457.03 2419.88 6318.16 2419.88C6208.45 2419.88 6118.66 2472.06 6069.29 2554.89C6083.16 2578.16 6093.79 2603.83 6100.75 2631.53C6130.02 2539.89 6211.22 2480.61 6318.12 2480.61Z" fill="white"/>
<path d="M6935.97 3856.25C6816.4 3856.25 6761.31 3796.79 6723.19 3738.6L6703.96 3708.82C6689.11 3722.58 6672.36 3734.34 6654.05 3743.48L6671.92 3771.19C6713.18 3834.18 6784.91 3916.98 6935.97 3916.98C7046.44 3916.98 7136.81 3864.69 7186.41 3781.71C7172.57 3758.41 7161.97 3732.74 7155.02 3705.07C7125.6 3796.86 7043.79 3856.25 6935.94 3856.25H6935.97Z" fill="white"/>
<path d="M6576.6 3767.77C6577.07 3766.89 6577.44 3765.94 6577.87 3765.07C6577.55 3765.07 6577.25 3765.18 6576.93 3765.18C6576.85 3766.05 6576.67 3766.89 6576.56 3767.77H6576.6Z" fill="#1F3854"/>
<path d="M6049.81 2710.04V3420.04C6062.44 3417.57 6075.37 3415.89 6088.73 3415.75V2710.04C6088.73 2681.89 6093.03 2655.64 6100.75 2631.53C6093.79 2603.83 6083.16 2578.16 6069.29 2554.89C6055.27 2578.41 6044.57 2604.41 6037.61 2632.41C6045.44 2656.37 6049.85 2682.36 6049.85 2710.04H6049.81Z" fill="white"/>
<path d="M6027.97 3425.25C6035.07 3423.07 6042.38 3421.5 6049.78 3420.04V2710.04C6049.78 2682.36 6045.37 2656.4 6037.54 2632.41C6031.46 2656.91 6027.93 2682.8 6027.93 2710.04V3425.25H6027.97Z" fill="white"/>
<path d="M7145.3 3311.65C7145.3 3311.65 7145.19 3311.76 7145.15 3311.79C7130.3 3325.48 7118.79 3335.72 7106.34 3345.58V3626.86C7106.34 3735.4 7029.51 3795.51 6936.01 3795.51C6889.84 3795.51 6857.18 3784.91 6832.09 3768.27C6806.97 3751.78 6789.38 3729.21 6773.47 3704.92L6743.76 3658.9C6732.98 3677.47 6719.66 3694.32 6704 3708.82L6723.22 3738.6C6761.35 3796.78 6816.4 3856.24 6936.01 3856.24C7043.82 3856.24 7125.67 3796.86 7155.09 3705.07C7148.9 3680.38 7145.33 3654.31 7145.33 3626.86V3311.65H7145.3Z" fill="white"/>
<path d="M6110.54 3416.99C6123.65 3418.22 6136.54 3420.26 6148.88 3423.72V3350.17H6149.47V2710.04C6149.47 2599.82 6226.29 2541.35 6318.12 2541.35C6393.27 2541.35 6428.34 2573.06 6463.4 2628.19L6750.13 3073.31C6755.56 3075.64 6761.13 3078 6765.64 3079.97V2710C6765.64 2599.78 6845.78 2541.31 6935.97 2541.31C7026.16 2541.31 7106.3 2599.75 7106.3 2710V2901.05C7112.31 2900.17 7118.61 2899.41 7126.15 2898.83C7133.5 2898.28 7139.47 2897.41 7145.3 2896.57V2710C7145.3 2682.55 7148.87 2656.44 7155.06 2631.79C7125.64 2539.96 7043.82 2480.58 6935.97 2480.58C6802.09 2480.58 6704.91 2577.06 6704.91 2710V2890.96L6514.63 2595.56C6476.62 2535.85 6426.52 2480.58 6318.12 2480.58C6209.73 2480.58 6130.02 2539.82 6100.75 2631.5C6106.98 2656.26 6110.58 2682.44 6110.58 2710V3416.95L6110.54 3416.99Z" fill="white"/>
<path d="M6110.54 3416.98V2710.03C6110.54 2682.47 6106.98 2656.29 6100.71 2631.53C6092.99 2655.64 6088.7 2681.89 6088.7 2710.03V3415.75C6089.5 3415.75 6090.23 3415.6 6091.03 3415.6C6097.65 3415.6 6104.06 3416.4 6110.54 3417.02V3416.98Z" fill="white"/>
<path d="M6150.01 3423.98C6151.36 3397.83 6157.55 3373 6167.42 3350.17H6149.47V3423.87C6149.47 3423.87 6149.83 3423.94 6150.01 3423.98Z" fill="#FECB40"/>
<path d="M6149.43 3350.17H6148.85V3423.72C6149.03 3423.76 6149.21 3423.79 6149.43 3423.83V3350.13V3350.17Z" fill="#666A90"/>
<path d="M7105.76 3626.45V3350.21H7100.33C7092.5 3356.14 7084.2 3362.11 7073.93 3368.78C7047.53 3385.96 7002.75 3406.75 7002.75 3406.75L7007.48 3449.46C7007.48 3449.46 7009.63 3479.61 7002.75 3496.94C6998.74 3506.95 6995.07 3512.09 6988.51 3520.68C6980.58 3531.1 6974.53 3535.68 6964.77 3544.42C6942.93 3563.97 6928.36 3572.35 6903.06 3587.13C6881.58 3599.69 6869.41 3606.94 6846.11 3615.6C6826.3 3623 6793.9 3629.84 6793.9 3629.84C6793.9 3629.84 6799 3597.87 6803.4 3577.63C6809.52 3549.52 6822.41 3506.44 6822.41 3506.44L6841.38 3440C6841.38 3440 6812.21 3448.22 6793.93 3444.73C6780.06 3442.07 6772.74 3437.85 6760.69 3430.49C6748.35 3422.96 6732.22 3406.75 6732.22 3406.75C6732.22 3406.75 6727.67 3409.16 6720.97 3412.61C6753.12 3450.08 6772.63 3498.69 6772.63 3551.92C6772.63 3590.85 6762.04 3627.22 6743.91 3658.68L6774.02 3705.36C6789.78 3729.42 6807.26 3751.85 6832.06 3768.31C6857.07 3784.73 6889.59 3795.14 6935.43 3795.14C7028.93 3795.14 7105.76 3735.03 7105.76 3626.49V3626.45Z" fill="#C19731"/>
<path d="M6647.13 3357.09C6649.53 3354.69 6651.82 3352.43 6654.15 3350.17H6629.94C6635.77 3352.25 6641.52 3354.54 6647.13 3357.09Z" fill="#666A90"/>
<path d="M6774.02 3705.32L6743.91 3658.64C6743.91 3658.64 6743.8 3658.83 6743.76 3658.9L6773.47 3704.92C6789.38 3729.17 6806.97 3751.78 6832.09 3768.28C6807.26 3751.82 6789.82 3729.39 6774.06 3705.32H6774.02Z" fill="#666A90"/>
<path d="M7330.26 2922.6C7330.26 2922.6 7326.26 2963.42 7320.76 2989.05C7316.36 3009.73 7313.26 3021.24 7306.52 3041.26C7300.15 3060.2 7295.31 3070.35 7287.52 3088.74C7280.42 3105.56 7276.01 3114.81 7268.55 3131.45C7267.89 3132.94 7267.38 3134.11 7266.76 3135.53V3350.21H7605.2V3626.45C7605.2 3734.99 7526.7 3795.11 7434.87 3795.11C7394.89 3795.11 7357.79 3783.71 7328.59 3761.87C7357.86 3783.97 7395.18 3795.47 7435.42 3795.47C7527.25 3795.47 7605.75 3735.36 7605.75 3626.82V3262.75L7662.15 3350.13H8223.05V3626.38C8223.05 3734.92 8146.23 3795.04 8052.72 3795.04C8006.92 3795.04 7974.4 3784.62 7949.35 3768.2C7974.44 3784.84 8007.1 3795.44 8053.27 3795.44C8146.77 3795.44 8223.6 3735.32 8223.6 3626.78V2709.96C8223.6 2599.75 8146.77 2541.27 8053.27 2541.27C7959.77 2541.27 7882.94 2599.71 7882.94 2709.96V3097.37L7580.66 2628.11C7545.6 2572.99 7510.53 2541.27 7435.38 2541.27C7343.55 2541.27 7266.73 2599.71 7266.73 2709.96V2905.81C7270.3 2906.58 7273.86 2907.38 7277.98 2908.29C7298.62 2912.84 7330.19 2922.53 7330.19 2922.53L7330.26 2922.6Z" fill="#FECB40"/>
<path d="M8053.31 2419.88C7892.41 2419.88 7773.53 2530.35 7762.38 2685.9L7682.83 2562.39C7640.81 2496.34 7574.32 2419.84 7435.42 2419.84C7325.6 2419.84 7235.74 2472.13 7186.4 2555.11C7200.31 2578.38 7210.98 2604.05 7217.94 2631.72C7247.14 2539.93 7328.37 2480.58 7435.38 2480.58C7542.39 2480.58 7593.91 2535.85 7631.89 2595.56L7822.17 2891V2710C7822.17 2577.06 7919.35 2480.58 8053.23 2480.58C8187.12 2480.58 8284.3 2574.92 8284.3 2710V3626.82C8284.3 3761.87 8189.26 3856.21 8053.23 3856.21C7933.66 3856.21 7878.57 3796.75 7840.45 3738.56L7666.41 3468.87V3626.82C7666.41 3759.72 7569.23 3856.21 7435.34 3856.21C7330.01 3856.21 7247.79 3795.51 7218.08 3704.23C7211.09 3732.23 7200.39 3758.19 7186.33 3781.67C7235.63 3864.65 7325.53 3916.94 7435.34 3916.94C7589.36 3916.94 7704.93 3815.68 7724.3 3670.59L7789.18 3771.15C7830.44 3834.14 7902.17 3916.94 8053.23 3916.94C8222.32 3916.94 8345.03 3794.93 8345.03 3626.82V2710C8345.03 2541.89 8222.32 2419.84 8053.23 2419.84L8053.31 2419.88Z" fill="white"/>
<path d="M7167.07 2710.04V2894.42C7169.26 2894.31 7171.22 2894.13 7173.66 2894.13C7186.59 2894.13 7195.62 2895.77 7206.07 2897.22V2710.07C7206.07 2682.04 7210.36 2655.86 7218.01 2631.79C7211.02 2604.12 7200.39 2578.45 7186.48 2555.18C7172.64 2578.48 7162.05 2604.15 7155.09 2631.86C7162.81 2655.89 7167.11 2682.04 7167.11 2710.07L7167.07 2710.04Z" fill="white"/>
<path d="M7206.03 3626.86V3245.64C7199.11 3255.07 7192.67 3263 7183.09 3273.82C7177.08 3280.63 7172.06 3285.91 7167.03 3290.97V3626.86C7167.03 3654.89 7162.74 3681 7155.02 3705.07C7161.97 3732.77 7172.57 3758.44 7186.4 3781.71C7200.46 3758.19 7211.2 3732.23 7218.15 3704.27C7210.36 3680.34 7205.99 3654.46 7205.99 3626.86H7206.03Z" fill="white"/>
<path d="M7145.3 3311.65V3626.86C7145.3 3654.31 7148.87 3680.38 7155.06 3705.07C7162.74 3681.04 7167.07 3654.89 7167.07 3626.86V3290.97C7160.55 3297.52 7153.96 3303.68 7145.33 3311.65H7145.3Z" fill="white"/>
<path d="M7145.3 2896.6C7152.21 2895.62 7159.13 2894.75 7167.03 2894.38V2710C7167.03 2681.96 7162.74 2655.82 7155.02 2631.79C7148.83 2656.48 7145.26 2682.55 7145.26 2710V2896.57L7145.3 2896.6Z" fill="white"/>
<path d="M7227.8 2899.52C7242.22 2900.9 7253.36 2902.94 7266.8 2905.89V2710.04C7266.8 2599.82 7343.63 2541.35 7435.45 2541.35C7510.6 2541.35 7545.67 2573.06 7580.73 2628.19L7883.01 3097.45V2710.04C7883.01 2599.82 7963.15 2541.35 8053.34 2541.35C8143.53 2541.35 8223.67 2599.79 8223.67 2710.04V3626.86C8223.67 3735.4 8146.84 3795.51 8053.34 3795.51C8007.17 3795.51 7974.51 3784.92 7949.43 3768.28C7924.3 3751.78 7906.72 3729.21 7890.8 3704.92L7661.89 3350.17H7662.22L7605.82 3262.79V3626.86C7605.82 3735.4 7527.32 3795.51 7435.49 3795.51C7395.26 3795.51 7357.94 3783.97 7328.66 3761.91C7290.79 3733.61 7266.25 3687.77 7266.25 3626.46V3350.21H7266.84V3135.53C7258.97 3153.41 7254.57 3165.28 7244.88 3183.67C7238.51 3195.76 7233.59 3204.46 7227.84 3213.67V3626.86C7227.84 3654.02 7224.31 3679.84 7218.23 3704.27C7247.9 3795.55 7330.15 3856.25 7435.49 3856.25C7569.37 3856.25 7666.55 3759.79 7666.55 3626.86V3468.91L7840.59 3738.6C7878.72 3796.79 7933.77 3856.25 8053.38 3856.25C8189.45 3856.25 8284.44 3761.91 8284.44 3626.86V2710.04C8284.44 2574.96 8189.41 2480.62 8053.38 2480.62C7917.35 2480.62 7822.32 2577.1 7822.32 2710.04V2891.04L7632.03 2595.6C7594.02 2535.89 7543.92 2480.62 7435.53 2480.62C7327.13 2480.62 7247.28 2539.96 7218.08 2631.76C7224.31 2656.44 7227.91 2682.55 7227.91 2710.04V2899.52H7227.8Z" fill="white"/>
<path d="M7206.03 2897.19C7210.62 2897.84 7215.42 2898.43 7221.07 2898.86C7223.54 2899.04 7225.51 2899.3 7227.77 2899.52V2710.04C7227.77 2682.55 7224.16 2656.44 7217.94 2631.75C7210.29 2655.82 7205.99 2681.96 7205.99 2710.04V2897.19H7206.03Z" fill="white"/>
<path d="M7227.8 3213.63C7224.45 3219.02 7220.85 3224.52 7216.37 3231.11C7212.58 3236.64 7209.27 3241.27 7206.07 3245.64V3626.86C7206.07 3654.45 7210.44 3680.34 7218.23 3704.26C7224.31 3679.83 7227.84 3654.02 7227.84 3626.86V3213.67L7227.8 3213.63Z" fill="white"/>
<path d="M8223.09 3626.45V3350.21H7662.18L7891.35 3705.36C7907.12 3729.42 7924.59 3751.85 7949.39 3768.31C7974.4 3784.73 8006.92 3795.14 8052.76 3795.14C8146.26 3795.14 8223.09 3735.03 8223.09 3626.49V3626.45Z" fill="#C19731"/>
<path d="M7891.35 3705.32L7662.18 3350.17H7661.86L7890.77 3704.92C7906.68 3729.17 7924.27 3751.78 7949.39 3768.28C7924.56 3751.82 7907.12 3729.39 7891.35 3705.32Z" fill="#666A90"/>
<path d="M7605.2 3626.45V3350.21H7266.76V3626.86C7266.76 3687.84 7291.05 3733.57 7328.59 3761.9C7357.79 3783.71 7394.89 3795.14 7434.87 3795.14C7526.7 3795.14 7605.2 3735.03 7605.2 3626.49V3626.45Z" fill="#C19731"/>
<path d="M7266.76 3626.82V3350.17H7266.18V3626.42C7266.18 3687.73 7290.72 3733.54 7328.59 3761.87C7291.01 3733.54 7266.76 3687.81 7266.76 3626.82Z" fill="#C19730"/>
<path d="M6938.96 3135.78C6938.96 3192.77 6985.16 3238.97 7042.11 3238.97C7066.51 3238.97 7088.64 3230.16 7106.3 3216V3055.65C7088.64 3041.48 7066.51 3032.67 7042.11 3032.67C6985.13 3032.67 6938.96 3078.88 6938.96 3135.86V3135.78Z" fill="white"/>
<path d="M7106.34 3055.57V3215.92C7129.93 3197.03 7145.33 3168.34 7145.33 3135.75C7145.33 3103.16 7129.93 3074.47 7106.34 3055.57Z" fill="white"/>
<path d="M8118.33 1145.87C8022.47 1217.85 7919.31 1285.36 7815.47 1347.66C7668.3 1436.79 7016.91 1739.04 7264.36 1614.58C7373.37 1559.75 7780.99 1256.38 7868.34 1041.19C7966.25 838.892 7817.29 666.087 7595.11 621.921C7265.85 560.642 6922.1 623.232 6576.78 671.986C6399.9 700.495 6227.06 735.413 6053.38 777.868C5785.83 843.444 5514.35 919.251 5249.58 998.881C4611.15 1187.82 3986.05 1467.09 3386.08 1713.91C3089.77 1838 2810.03 1957.65 2513.94 2101.94C2288.63 2217.62 2071.69 2305.84 1902.02 2482.94C1619.98 2792 1782.99 3334.59 2201.97 3358.87C2373.14 3369.43 2563.53 3317.36 2778.6 3266.28C3116.09 3182.9 3450.6 3092.75 3790.38 3000.23C4388.28 2839.44 5333.72 2519.53 5807.35 2388.27C5723.32 2424.39 5231.77 2599.2 4592.11 2830.81C3768.76 3125.74 3007.08 3535.65 2311.53 3692.98C2036.7 3755.13 1620.24 3780.62 1324.8 3780.62C1166.38 3780.62 375.684 3746.86 364.324 3328.87C393.016 2929.99 1117.95 2457.31 1449.65 2263.75C2033.46 1925.46 2634.31 1597.91 3256.71 1329.42C3820.13 1077.67 4371.57 840.422 4944.78 655.091C5656.32 425.85 6384.9 220.785 7125.02 109.441C7541.34 54.3886 7941.56 -27.7538 8355.22 9.27582C8635.33 42.7372 8743.76 259.817 8650.77 501.256C8548.85 764.432 8365.6 953.076 8124.45 1141.28L8118.33 1145.91V1145.87Z" fill="#F39204"/>
<path d="M1168.2 1565.43C1238.88 1565.43 1296.18 1508.13 1296.18 1437.45C1296.18 1366.76 1238.88 1309.46 1168.2 1309.46C1097.51 1309.46 1040.21 1366.76 1040.21 1437.45C1040.21 1508.13 1097.51 1565.43 1168.2 1565.43Z" fill="white"/>
<path d="M6271.44 2184.55C6294.23 2207.35 6311.31 2253.08 6318.37 2274.23C6319.43 2277.44 6324.34 2277.44 6325.44 2274.23C6332.46 2253.08 6349.54 2207.35 6372.37 2184.55C6395.16 2161.76 6440.89 2144.68 6462.05 2137.62C6465.25 2136.56 6465.25 2131.65 6462.05 2130.56C6440.89 2123.53 6395.16 2106.45 6372.37 2083.62C6349.58 2060.83 6332.5 2015.1 6325.44 1993.94C6324.38 1990.74 6319.47 1990.74 6318.37 1993.94C6311.35 2015.1 6294.27 2060.83 6271.44 2083.62C6248.65 2106.42 6202.92 2123.49 6181.76 2130.56C6178.56 2131.61 6178.56 2136.53 6181.76 2137.62C6202.92 2144.65 6248.65 2161.72 6271.44 2184.55Z" fill="white"/>
<path d="M6321.91 2286.18C6316.15 2286.18 6311.09 2282.57 6309.34 2277.26C6303.15 2258.65 6286.41 2212.99 6264.74 2191.29C6243.04 2169.59 6197.42 2152.88 6178.78 2146.69C6173.42 2144.9 6169.86 2139.84 6169.86 2134.13C6169.86 2128.41 6173.46 2123.31 6178.78 2121.57C6197.38 2115.38 6243.04 2098.63 6264.74 2076.96C6286.44 2055.26 6303.15 2009.64 6309.34 1991C6311.13 1985.64 6316.19 1982.08 6321.91 1982.08C6327.62 1982.08 6332.72 1985.68 6334.47 1991C6340.66 2009.6 6357.41 2055.26 6379.07 2076.96C6400.77 2098.66 6446.39 2115.38 6465.04 2121.57C6470.39 2123.35 6473.96 2128.41 6473.96 2134.13C6473.96 2139.84 6470.35 2144.94 6465.04 2146.69C6446.43 2152.88 6400.77 2169.63 6379.07 2191.29C6357.41 2212.96 6340.66 2258.62 6334.47 2277.26C6332.68 2282.61 6327.62 2286.18 6321.91 2286.18ZM6278.18 2177.78C6297.44 2197.04 6312.51 2230.47 6321.87 2255.56C6331.23 2230.47 6346.3 2197.04 6365.56 2177.78C6384.82 2158.52 6418.25 2143.45 6443.34 2134.09C6418.25 2124.73 6384.82 2109.66 6365.56 2090.4C6346.3 2071.14 6331.23 2037.71 6321.87 2012.62C6312.51 2037.71 6297.44 2071.14 6278.14 2090.4C6258.88 2109.66 6225.45 2124.73 6200.37 2134.09C6225.45 2143.45 6258.88 2158.52 6278.14 2177.78H6278.18Z" fill="#F39200"/>
<path d="M6107.16 1994.79C6116.33 2003.96 6123.22 2022.38 6126.06 2030.9C6126.49 2032.22 6128.46 2032.22 6128.9 2030.9C6131.74 2022.38 6138.62 2003.96 6147.79 1994.79C6156.97 1985.61 6175.39 1978.73 6183.91 1975.89C6185.22 1975.45 6185.22 1973.49 6183.91 1973.05C6175.39 1970.21 6156.97 1963.33 6147.79 1954.15C6138.62 1944.98 6131.74 1926.55 6128.9 1918.03C6128.46 1916.72 6126.49 1916.72 6126.06 1918.03C6123.22 1926.55 6116.33 1944.98 6107.16 1954.15C6097.98 1963.33 6079.56 1970.21 6071.04 1973.05C6069.73 1973.49 6069.73 1975.45 6071.04 1975.89C6079.56 1978.73 6097.98 1985.61 6107.16 1994.79Z" fill="white"/>
<path d="M6127.47 2041.43C6122.71 2041.43 6118.52 2038.41 6117.03 2033.93C6112.11 2019.11 6105.88 2007.02 6100.42 2001.52C6094.96 1996.06 6082.84 1989.87 6068.02 1984.92C6063.54 1983.43 6060.52 1979.24 6060.52 1974.47C6060.52 1969.7 6063.54 1965.48 6068.02 1963.98C6082.84 1959.07 6094.96 1952.84 6100.42 1947.38C6105.88 1941.92 6112.07 1929.79 6117.03 1914.98C6118.52 1910.5 6122.71 1907.47 6127.47 1907.47C6132.24 1907.47 6136.43 1910.5 6137.92 1914.98C6142.84 1929.79 6149.07 1941.92 6154.53 1947.38C6159.99 1952.84 6172.11 1959.03 6186.9 1963.98C6191.38 1965.48 6194.4 1969.7 6194.4 1974.47C6194.4 1979.24 6191.38 1983.46 6186.9 1984.92C6172.08 1989.84 6159.99 1996.06 6154.53 2001.52C6149.07 2006.98 6142.88 2019.11 6137.92 2033.93C6136.43 2038.41 6132.21 2041.43 6127.44 2041.43H6127.47ZM6093.18 1974.47C6100.82 1978.11 6108.5 1982.66 6113.89 1988.05C6119.28 1993.44 6123.83 2001.12 6127.47 2008.77C6131.12 2001.16 6135.67 1993.44 6141.06 1988.05C6146.44 1982.7 6154.13 1978.11 6161.77 1974.47C6154.13 1970.83 6146.44 1966.28 6141.06 1960.89C6135.67 1955.5 6131.12 1947.82 6127.47 1940.17C6123.83 1947.82 6119.28 1955.5 6113.89 1960.89C6108.5 1966.28 6100.82 1970.83 6093.18 1974.47Z" fill="#F39200"/>
<path d="M5822.5 3861.23C5686.43 3861.23 5591.44 3766.89 5591.44 3631.84V2715.02C5591.44 2579.94 5686.47 2485.6 5822.5 2485.6C5958.53 2485.6 6051.89 2582.05 6051.89 2715.02V3631.84C6051.89 3764.74 5955.4 3861.23 5822.5 3861.23Z" fill="#42408C"/>
<path d="M5822.5 2546.37C5912.65 2546.37 5991.15 2604.81 5991.15 2715.06V3631.88C5991.15 3740.42 5912.65 3800.53 5822.5 3800.53C5732.35 3800.53 5652.17 3740.42 5652.17 3631.88V2715.06C5652.17 2604.84 5729 2546.37 5822.5 2546.37ZM5822.5 2424.9C5653.41 2424.9 5530.7 2546.91 5530.7 2715.06V3631.88C5530.7 3799.99 5653.44 3922 5822.5 3922C5991.55 3922 6112.62 3797.26 6112.62 3631.88V2715.06C6112.62 2546.95 5990.61 2424.9 5822.5 2424.9Z" fill="white"/>
<path d="M6938.08 3861.23C6818.51 3861.23 6763.42 3801.77 6725.3 3743.59L6551.26 3473.89V3631.84C6551.26 3764.74 6454.08 3861.23 6320.2 3861.23C6186.31 3861.23 6090.81 3764.78 6090.81 3631.84V2715.02C6090.81 2579.94 6185.15 2485.6 6320.2 2485.6C6428.63 2485.6 6478.73 2540.87 6516.74 2600.58L6707.02 2896.02V2715.02C6707.02 2582.09 6804.2 2485.6 6938.08 2485.6C7071.97 2485.6 7169.15 2579.94 7169.15 2715.02V3631.84C7169.15 3766.89 7074.11 3861.23 6938.08 3861.23Z" fill="#42408C"/>
<path d="M6938.08 2546.37C7031.59 2546.37 7108.41 2604.81 7108.41 2715.06V3631.88C7108.41 3740.42 7031.59 3800.53 6938.08 3800.53C6844.58 3800.53 6807.84 3758.77 6776.09 3710.34L6490.52 3267.81V3631.88C6490.52 3740.42 6412.06 3800.53 6320.2 3800.53C6228.33 3800.53 6151.54 3740.42 6151.54 3631.88V2715.06C6151.54 2604.84 6228.37 2546.37 6320.2 2546.37C6395.35 2546.37 6430.41 2578.08 6465.47 2633.21L6767.72 3102.47V2715.06C6767.72 2604.84 6847.86 2546.37 6938.05 2546.37M6938.08 2424.9C6777.22 2424.9 6658.31 2535.37 6647.16 2690.92L6567.64 2567.45C6525.59 2501.36 6459.1 2424.9 6320.23 2424.9C6152.12 2424.9 6030.11 2546.91 6030.11 2715.06V3631.88C6030.11 3799.99 6152.12 3922 6320.23 3922C6474.25 3922 6589.82 3820.74 6609.19 3675.64L6674.07 3776.21C6715.32 3839.2 6787.05 3922 6938.12 3922C7107.21 3922 7229.92 3799.99 7229.92 3631.88V2715.06C7229.92 2546.95 7107.18 2424.9 6938.12 2424.9H6938.08Z" fill="white"/>
<path d="M8055.42 3861.23C7935.85 3861.23 7880.76 3801.77 7842.63 3743.59L7668.59 3473.89V3631.84C7668.59 3764.74 7571.41 3861.23 7437.53 3861.23C7303.65 3861.23 7208.14 3764.78 7208.14 3631.84V2715.02C7208.14 2579.94 7302.48 2485.6 7437.53 2485.6C7545.96 2485.6 7596.06 2540.87 7634.04 2600.58L7824.32 2895.98V2714.99C7824.32 2582.05 7921.5 2485.56 8055.38 2485.56C8189.26 2485.56 8286.44 2579.9 8286.44 2714.99V3631.81C8286.44 3766.85 8191.41 3861.19 8055.38 3861.19L8055.42 3861.23Z" fill="#42408C"/>
<path d="M8055.42 2546.37C8148.92 2546.37 8225.75 2604.81 8225.75 2715.06V3631.88C8225.75 3740.42 8148.92 3800.53 8055.42 3800.53C7961.91 3800.53 7925.18 3758.77 7893.43 3710.34L7607.86 3267.81V3631.88C7607.86 3740.42 7529.36 3800.53 7437.53 3800.53C7345.7 3800.53 7268.88 3740.42 7268.88 3631.88V2715.06C7268.88 2604.85 7345.7 2546.37 7437.53 2546.37C7512.68 2546.37 7547.74 2578.08 7582.81 2633.21L7885.09 3102.47V2715.06C7885.09 2604.85 7965.23 2546.37 8055.42 2546.37ZM8055.42 2424.9C7894.52 2424.9 7775.64 2535.37 7764.5 2690.92L7684.94 2567.41C7642.92 2501.37 7576.44 2424.87 7437.53 2424.87C7269.42 2424.87 7147.41 2546.88 7147.41 2715.02V3631.84C7147.41 3799.95 7269.42 3921.96 7437.53 3921.96C7591.55 3921.96 7707.11 3820.71 7726.48 3675.61L7791.37 3776.18C7832.62 3839.17 7904.35 3921.96 8055.42 3921.96C8224.51 3921.96 8347.21 3799.95 8347.21 3631.84V2715.02C8347.21 2546.92 8224.47 2424.87 8055.42 2424.87V2424.9Z" fill="white"/>
<path d="M5652.17 3351.85L5649.51 3626.42C5649.51 3734.96 5726.34 3795.07 5819.84 3795.07C5913.34 3795.07 5988.49 3734.96 5988.49 3626.42V3351.85H5652.17Z" fill="#2E2E61"/>
<path d="M6545.61 3351.85L6773.43 3704.92C6805.15 3753.35 6843.56 3795.11 6935.43 3795.11C7027.29 3795.11 7105.75 3734.99 7105.75 3626.45V3351.88H6545.61V3351.85Z" fill="#2E2E61"/>
<path d="M6151.62 3351.85V3626.42C6151.62 3734.96 6228.44 3795.07 6320.27 3795.07C6412.1 3795.07 6490.6 3734.96 6490.6 3626.42V3351.85H6151.58H6151.62Z" fill="#2E2E61"/>
<path d="M7268.88 3351.85L7266.22 3626.42C7266.22 3734.96 7343.04 3795.07 7434.87 3795.07C7526.7 3795.07 7605.2 3734.96 7605.2 3626.42V3351.85H7268.88Z" fill="#2E2E61"/>
<path d="M7662.95 3351.85L7890.77 3704.92C7922.48 3753.35 7960.89 3795.11 8052.76 3795.11C8144.62 3795.11 8223.09 3734.99 8223.09 3626.45V3351.88H7662.95V3351.85Z" fill="#2E2E61"/>
<path d="M8242.42 561.879C8116.92 293.278 7687.85 276.711 7435.53 265.642C7261.41 257.996 7092.21 262.657 6923.85 276.347C5799.09 399.779 4662.89 753.436 3644.7 1223.72C3116.68 1467.59 2604.85 1746.86 2088.77 2014.63C1864.81 2130.81 1646.93 2273.62 1453.11 2439.76C1359.54 2519.97 1213.97 2606.12 1208.76 2894.24C1281.29 3350.21 1509.07 3413.38 1795.55 3470.14C2168.11 3543.95 2559.41 3425.76 2911.25 3312.27C3137.5 3239.3 3357.57 3148.93 3577.31 3057.68C3310.64 3129.74 3046.08 3199.83 2779.81 3265.62C2564.73 3316.71 2374.34 3368.78 2203.17 3358.22C1784.16 3333.89 1621.18 2791.34 1903.22 2482.29C2072.89 2305.15 2289.83 2216.96 2515.14 2101.29C2811.27 1956.99 3090.97 1837.34 3387.28 1713.26C3987.26 1466.43 4612.35 1187.16 5250.78 998.261C5515.56 918.631 5787.03 842.86 6054.58 777.285C6228.26 734.83 6401.1 699.912 6577.98 671.403C6923.3 622.612 7267.09 560.023 7596.32 621.338C7818.46 665.504 7967.45 838.309 7869.54 1040.61C7782.19 1255.79 7374.57 1559.17 7265.56 1614C7018.11 1738.49 7669.5 1436.21 7816.67 1347.08C7920.52 1284.78 8023.7 1217.31 8119.54 1145.29L8125.65 1140.66C8129.69 1137.5 8133.59 1134.33 8137.6 1131.2C8246.72 953.476 8333.12 755.948 8242.46 561.989L8242.42 561.879Z" fill="#B87103"/>
<path d="M303.482 2340.58C160.862 2340.58 79.0834 2258.18 79.0834 2114.5C79.0834 1963.4 161.481 1876.74 305.157 1876.74H339.456C158.495 1827.22 60.7324 1676.37 60.7324 1439.85C60.7324 1142.3 215.696 985.008 508.875 985.008H884.632C1027.22 985.008 1108.99 1067.41 1108.99 1211.08C1108.99 1354.76 1035.88 1438.61 907.243 1447.97C1090.28 1496.58 1189.17 1647.79 1189.17 1885.73C1189.17 2183.28 1035.34 2340.58 744.342 2340.58H303.482Z" fill="#42408C"/>
<path d="M884.633 1045.74C994.848 1045.74 1048.26 1100.87 1048.26 1211.08C1048.26 1328 993.173 1388.11 882.922 1388.11H485.499C440.387 1388.11 417.011 1404.82 417.011 1439.89C417.011 1474.95 440.387 1491.66 485.499 1491.66H766.044C1006.5 1491.66 1128.44 1630.28 1128.44 1885.77C1128.44 2141.26 1001.51 2279.88 744.343 2279.88H303.483C191.593 2279.88 139.817 2223.12 139.817 2114.54C139.817 1995.99 194.906 1937.51 305.158 1937.51H762.73C809.481 1937.51 831.219 1920.8 831.219 1885.73C831.219 1850.67 809.481 1833.96 762.73 1833.96H483.861C241.694 1833.96 121.466 1695.34 121.466 1439.85C121.466 1184.36 250.068 1045.74 508.875 1045.74H884.633ZM884.633 924.275H508.875C185.476 924.275 0 1112.19 0 1439.85C0 1622.89 55.0165 1762.3 157.221 1849.72C69.1438 1896.4 18.351 1989.32 18.351 2114.5C18.351 2291.39 127.619 2401.31 303.483 2401.31H744.343C1065.63 2401.31 1249.9 2213.39 1249.9 1885.73C1249.9 1686.71 1184.84 1539.29 1064.87 1454.16C1131.9 1403.18 1169.76 1319.15 1169.76 1211.08C1169.76 1034.2 1060.53 924.275 884.669 924.275H884.633Z" fill="white"/>
<path d="M829.908 1876.74C830.235 1879.51 830.636 1882.27 830.636 1885.33C830.636 1920.43 808.899 1937.11 762.148 1937.11H304.575C194.36 1937.11 139.234 1995.55 139.234 2114.14C139.234 2222.68 191.01 2279.48 302.9 2279.48H743.76C1000.93 2279.48 1127.86 2147.56 1127.86 1885.37C1127.86 1882.42 1127.64 1879.69 1127.6 1876.78H829.908V1876.74Z" fill="#2E2E61"/>
<path d="M1430.83 2350.59C1283.99 2350.59 1203.12 2266.74 1203.12 2114.5V1700.37C1203.12 1535.1 1278.82 1466.72 1364.96 1442.43C1261.45 1419.93 1201.44 1338.85 1201.44 1216.07C1201.44 1025.1 1323.46 985.008 1425.81 985.008H1866.7C2157.7 985.008 2311.53 1142.3 2311.53 1439.85C2311.53 1737.4 2158.28 1894.69 1868.38 1894.69H1663.57V2114.5C1663.57 2264.55 1578.73 2350.59 1430.83 2350.59Z" fill="#42408C"/>
<path d="M1866.7 1045.74C2123.87 1045.74 2250.8 1177.69 2250.8 1439.85C2250.8 1702.01 2123.87 1833.96 1868.38 1833.96H1602.83V2114.5C1602.83 2231.42 1544.43 2289.86 1430.83 2289.86C1317.23 2289.86 1263.85 2231.42 1263.85 2114.5V1700.37C1263.85 1560.11 1322.29 1491.63 1455.88 1491.63H1885.05C1931.8 1491.63 1955.18 1474.91 1955.18 1439.85C1955.18 1404.79 1931.8 1388.07 1885.05 1388.07H1427.52C1320.65 1388.07 1262.17 1329.64 1262.17 1216.07C1262.17 1102.51 1310.6 1045.74 1425.8 1045.74H1866.7ZM1866.7 924.275H1425.8C1247.28 924.275 1140.71 1033.36 1140.71 1216.07C1140.71 1314.82 1175.26 1394.23 1235.7 1445.42C1174.97 1501.75 1142.38 1588.3 1142.38 1700.37V2114.5C1142.38 2300.38 1250.23 2411.32 1430.83 2411.32C1611.43 2411.32 1724.3 2297.58 1724.3 2114.5V1955.42H1868.38C2188.61 1955.42 2372.26 1767.51 2372.26 1439.85C2372.26 1112.19 2187.99 924.275 1866.7 924.275Z" fill="white"/>
<path d="M1263.85 1876.74V2114.1C1263.85 2231.02 1313.95 2289.45 1430.83 2289.45C1547.71 2289.45 1602.83 2231.02 1602.83 2114.1V1876.74H1263.85Z" fill="#2E2E61"/>
<path d="M3119.26 2350.59C3027.04 2350.59 2954.32 2297.54 2914.49 2201.16L2902.47 2173.6H2546.92L2533.16 2203.46C2479.16 2324.96 2393.45 2350.63 2331.08 2350.63C2194.03 2350.63 2086.62 2252.79 2086.62 2127.9C2086.62 2104.89 2088.33 2070.27 2103.26 2035.49L2292.38 1615.35C2334.5 1520.5 2409.51 1466 2498.06 1466C2543.43 1466 2585.92 1477.72 2622.29 1498.15L2535.49 1289.55C2523.44 1261.37 2517.5 1231.73 2517.5 1199.4C2517.5 1075.67 2626.41 974.998 2760.25 974.998C2854.01 974.998 2927.31 1027.47 2966.67 1122.75L3347.34 2036.04C3359.43 2066.22 3365.4 2096.85 3365.4 2127.87C3365.4 2265.43 3237.63 2350.59 3119.3 2350.59H3119.26Z" fill="#42408C"/>
<path d="M2760.22 1035.69C2825.36 1035.69 2878.77 1069.08 2910.52 1145.91L3291.27 2059.38C3301.28 2084.43 3304.63 2107.8 3304.63 2127.83C3304.63 2224.68 3212.8 2289.82 3119.26 2289.82C3054.12 2289.82 3002.35 2254.76 2970.63 2177.93L2942.27 2112.79H2508.07L2478 2177.93C2444.61 2253.08 2394.51 2289.82 2331.04 2289.82C2234.19 2289.82 2147.32 2224.68 2147.32 2127.83C2147.32 2107.8 2148.99 2082.75 2159.04 2059.38L2347.72 1640.22C2381.11 1565.07 2436.2 1526.65 2498.02 1526.65C2591.53 1526.65 2680.04 1596.78 2680.04 1693.67C2680.04 1713.7 2676.69 1737.07 2666.68 1758.81L2648.29 1803.88H2815.27L2591.49 1266.17C2581.51 1242.8 2578.13 1221.1 2578.13 1199.36C2578.13 1102.51 2666.64 1035.69 2760.14 1035.69M2760.22 914.227C2592.87 914.227 2456.73 1042.14 2456.73 1199.36C2456.73 1240.03 2464.31 1277.5 2479.85 1313.91L2518.12 1405.84C2511.5 1405.44 2504.8 1405.22 2498.06 1405.22C2386.1 1405.22 2288.44 1474.66 2236.78 1590.95L2048.32 2009.57L2047.88 2010.55L2047.44 2011.53C2032.95 2045.32 2025.89 2083.41 2025.89 2127.87C2025.89 2286.8 2159.95 2411.32 2331.08 2411.32C2395.89 2411.32 2514.3 2388.13 2585.85 2234.29H2862.68C2912.89 2346.95 3005.88 2411.32 3119.3 2411.32C3288.5 2411.32 3426.13 2284.18 3426.13 2127.87C3426.13 2089.09 3418.7 2050.86 3404.07 2014.26L3403.74 2013.46L3403.41 2012.66L3022.66 1099.19C2974.17 981.768 2878.48 914.227 2760.25 914.227H2760.22Z" fill="white"/>
<path d="M3214.73 1876.74H2241.29L2158.5 2059.01C2148.48 2082.39 2146.77 2107.44 2146.77 2127.46C2146.77 2224.32 2233.65 2289.45 2330.5 2289.45C2393.96 2289.45 2444.06 2252.72 2477.45 2177.56L2507.53 2112.43H2941.73L2970.09 2177.56C3001.8 2254.39 3053.61 2289.45 3118.72 2289.45C3212.26 2289.45 3304.08 2224.32 3304.08 2127.46C3304.08 2107.44 3300.73 2084.06 3290.72 2059.01L3214.73 1876.74Z" fill="#2E2E61"/>
<path d="M3994.47 2340.58C3740.07 2340.58 3540.64 2256.25 3401.77 2090C3300.59 1965.48 3247.39 1815.94 3247.39 1656.97C3247.39 1445.1 3343.92 1251.46 3512.24 1125.7C3640.52 1031 3801.42 985.047 4004.48 985.047H4051.23C4222.4 985.047 4299.01 1103.64 4299.01 1221.13C4299.01 1338.63 4222.4 1452.2 4051.23 1452.2H4002.81C3894.19 1452.2 3848.06 1466.69 3812.2 1488.46C3768.54 1515.22 3716.18 1566.96 3716.18 1660.32C3716.18 1716.5 3735.95 1767.48 3773.35 1807.64C3805.39 1841.72 3857.49 1876.78 3999.42 1876.78H4046.17C4232.74 1876.78 4298.93 2003.05 4298.93 2111.19C4298.93 2250.54 4199.71 2340.58 4046.17 2340.58H3994.39H3994.47Z" fill="#42408C"/>
<path d="M4051.27 1045.74C4179.87 1045.74 4238.31 1127.59 4238.31 1221.09C4238.31 1314.6 4179.87 1391.42 4051.27 1391.42H4002.84C3884.29 1391.42 3827.49 1408.14 3780.74 1436.5C3707.26 1481.58 3655.52 1556.73 3655.52 1660.28C3655.52 1735.43 3683.88 1800.57 3728.96 1849C3780.74 1904.09 3855.89 1937.51 3999.49 1937.51H4046.24C4181.51 1937.51 4238.27 2019.33 4238.27 2111.19C4238.27 2203.05 4179.83 2279.84 4046.24 2279.84H3994.47C3745.67 2279.84 3566.97 2193 3448.38 2051.04C3361.54 1944.17 3308.13 1808.91 3308.13 1656.93C3308.13 1461.55 3396.6 1287.87 3548.58 1174.31C3657.12 1094.17 3800.73 1045.7 4004.48 1045.7H4051.23M4051.27 924.275H4004.52C3787.98 924.275 3615.29 974.122 3476.45 1076.62C3292.11 1214.36 3186.66 1425.76 3186.66 1656.97C3186.66 1830.06 3244.55 1992.82 3354.11 2127.65L3354.62 2128.3L3355.17 2128.92C3504.02 2307.12 3725.06 2401.31 3994.47 2401.31H4046.24C4262.81 2401.31 4359.74 2255.59 4359.74 2111.19C4359.74 1937.4 4230.81 1816.04 4046.24 1816.04H3999.49C3864.66 1816.04 3832.77 1782.11 3817.47 1765.83C3799.2 1746.21 3776.99 1711.55 3776.99 1660.32C3776.99 1609.09 3799.01 1567.87 3844.27 1540.05C3865.65 1527.09 3897.8 1512.93 4002.88 1512.93H4051.3C4232.96 1512.93 4359.81 1392.92 4359.81 1221.13C4359.81 1049.35 4232.96 924.312 4051.3 924.312L4051.27 924.275Z" fill="white"/>
<path d="M4045.7 1937.11H3998.94C3882.03 1937.11 3810.88 1914.68 3760.38 1876.74H3347.74C3371.84 1940.42 3405.82 1998.93 3447.83 2050.67C3566.39 2192.64 3745.09 2279.48 3993.92 2279.48H4045.7C4179.29 2279.48 4237.73 2202.65 4237.73 2110.82C4237.73 2019 4180.92 1937.15 4045.7 1937.15V1937.11Z" fill="#2E2E61"/>
<path d="M4529.01 2340.58C4383.22 2340.58 4299.59 2256.36 4299.59 2109.52V1216.11C4299.59 1069.26 4383.19 985.047 4529.01 985.047H5207.01C5340.9 985.047 5438.08 1082.23 5438.08 1216.11C5438.08 1333.13 5360.81 1424.78 5252.2 1444.77C5361.61 1458.75 5428.06 1539.29 5428.06 1661.99C5428.06 1784.7 5361.65 1863.56 5258.83 1881.22C5368.02 1901.72 5443.06 1991.44 5443.06 2109.52C5443.06 2241.25 5343.01 2340.58 5210.33 2340.58H4529.01Z" fill="#42408C"/>
<path d="M5207.01 1045.74C5313.88 1045.74 5377.34 1122.57 5377.34 1216.07C5377.34 1309.57 5313.88 1388.07 5207.01 1388.07H4697.66V1503.31H5217.03C5308.85 1503.31 5367.33 1556.76 5367.33 1661.95C5367.33 1767.15 5308.89 1823.95 5217.03 1823.95H4697.66V1937.51H5210.33C5317.19 1937.51 5382.33 2015.98 5382.33 2109.51C5382.33 2203.05 5317.19 2279.84 5210.33 2279.84H4529.01C4415.45 2279.84 4360.32 2221.4 4360.32 2109.51V1216.11C4360.32 1102.54 4415.45 1045.78 4529.01 1045.78H5207.01M5207.01 924.275H4529.01C4350.05 924.275 4238.85 1036.09 4238.85 1216.07V2109.48C4238.85 2289.46 4350.02 2401.27 4529.01 2401.27H5210.33C5377.63 2401.27 5503.8 2275.84 5503.8 2109.48C5503.8 2014.85 5463.45 1933.4 5398.1 1880.46C5455.04 1830.14 5488.8 1753.64 5488.8 1661.92C5488.8 1570.2 5454.79 1492.03 5396.46 1442.8C5459.81 1389.82 5498.81 1309.32 5498.81 1216.07C5498.81 1049.71 5373.37 924.275 5207.01 924.275Z" fill="white"/>
<path d="M5209.78 1937.11H4697.12V1876.74H4360.36L4359.77 2109.11C4359.77 2221 4414.9 2279.44 4528.46 2279.44H5209.78C5316.65 2279.44 5381.78 2200.98 5381.78 2109.11C5381.78 2017.25 5316.65 1937.11 5209.78 1937.11Z" fill="#2E2E61"/>
<path d="M5807.83 2907.78C5783.21 2907.78 5761.51 2892.27 5753.87 2869.22C5735.48 2813.91 5685.81 2678.36 5622.57 2615.11C5559.36 2551.9 5423.77 2502.24 5368.39 2483.82C5345.37 2476.21 5329.9 2454.51 5329.9 2429.89C5329.9 2405.28 5345.37 2383.61 5368.42 2375.93C5423.73 2357.54 5559.25 2307.95 5622.57 2244.63C5685.85 2181.39 5735.48 2045.83 5753.87 1990.45C5761.51 1967.44 5783.18 1952 5807.79 1952C5832.4 1952 5854.07 1967.44 5861.71 1990.49C5880.1 2045.83 5929.73 2181.39 5993.01 2244.63C6056.33 2307.95 6191.85 2357.54 6247.19 2375.93C6270.2 2383.58 6285.68 2405.28 6285.68 2429.89C6285.68 2454.51 6270.2 2476.17 6247.16 2483.85C6191.81 2502.28 6056.22 2551.94 5993.01 2615.15C5929.76 2678.39 5880.14 2813.95 5861.71 2869.33C5854.1 2892.31 5832.4 2907.82 5807.79 2907.82L5807.83 2907.78Z" fill="white"/>
<path d="M5807.82 1997.59C5812.38 1997.59 5816.89 2000.03 5818.53 2004.91C5839.87 2069.06 5891.68 2207.75 5960.86 2276.93C6030.04 2346.11 6168.69 2397.89 6232.88 2419.22C6242.6 2422.46 6242.6 2437.39 6232.88 2440.63C6168.73 2461.97 6030.04 2513.78 5960.86 2582.96C5891.68 2652.14 5839.9 2790.79 5818.53 2854.99C5816.93 2859.87 5812.38 2862.31 5807.82 2862.31C5803.27 2862.31 5798.76 2859.87 5797.12 2854.99C5775.78 2790.83 5723.97 2652.14 5654.79 2582.96C5585.61 2513.78 5446.96 2461.97 5382.77 2440.63C5373.05 2437.39 5373.05 2422.46 5382.77 2419.22C5446.92 2397.89 5585.61 2346.08 5654.79 2276.93C5723.97 2207.75 5775.78 2069.1 5797.12 2004.91C5798.72 2000.03 5803.27 1997.59 5807.82 1997.59ZM5807.82 1906.49C5763.55 1906.49 5724.52 1934.49 5710.68 1976.18C5674.49 2085.01 5629.52 2173.38 5590.42 2212.48C5551.31 2251.59 5462.94 2296.56 5354.08 2332.75C5312.39 2346.62 5284.39 2385.69 5284.42 2429.93C5284.42 2474.17 5312.46 2513.2 5354.11 2527.04C5462.94 2563.23 5551.31 2608.2 5590.42 2647.3C5629.52 2686.41 5674.49 2774.77 5710.68 2883.64C5724.52 2925.3 5763.59 2953.3 5807.82 2953.3C5852.06 2953.3 5891.13 2925.3 5904.97 2883.64C5941.16 2774.77 5986.13 2686.41 6025.23 2647.3C6064.34 2608.2 6152.71 2563.23 6261.57 2527C6303.23 2513.16 6331.23 2474.13 6331.23 2429.89C6331.23 2385.62 6303.26 2346.58 6261.57 2332.71C6152.67 2296.52 6064.34 2251.55 6025.23 2212.45C5986.13 2173.34 5941.16 2084.97 5904.93 1976.11C5891.1 1934.45 5852.06 1906.45 5807.79 1906.45L5807.82 1906.49Z" fill="#F39200"/>
</svg>
